M48
INCH,TZ
T01C.00787
T02C.12598
T03C.02559
T04C.03937
T05C.05118
;LEADER: 12 
;HEADER: 
;CODE  : ASCII 
;FILE  : D1_CORE-1-4.drl for board F:/PCB_PROJECT/D1-CORE/PCB/#Taaaafv01624.tmp ... layers TOP and BOTTOM
;T01 Holesize 1. = 7.870000 Tolerance = +0.000000/-0.000000 PLATED MILS Quantity = 819
;T02 Holesize 2. = 125.980000 Tolerance = +0.000000/-0.000000 PLATED MILS Quantity = 4
;T03 Holesize 3. = 25.590000 Tolerance = +0.000000/-0.000000 NON_PLATED MILS Quantity = 4
;T04 Holesize 4. = 39.370000 Tolerance = +0.000000/-0.000000 NON_PLATED MILS Quantity = 2
;T05 Holesize 5. = 51.180000 Tolerance = +0.000000/-0.000000 NON_PLATED MILS Quantity = 2
%
G90
T01
X-63033Y25365
X-63033Y20365
X-63133Y14765
X-63133Y9765
X-63233Y3665
X-63233Y-1335
X-63233Y-7735
X-63233Y-12735
X-63233Y-18535
X-63233Y-23535
X-62579Y-71612
X-62579Y-76612
X-52804Y-78548
X-57579Y-76612
X-57579Y-71612
X-52954Y-71346
X-50100Y-59500
X-50300Y-45900
X-50231Y-42706
X-50231Y-37706
X-51600Y-28000
X-59600Y-24000
X-59242Y-17242
X-52100Y-13600
X-59000Y-10000
X-53000Y300
X-57039Y2800
X-54867Y2800
X-51200Y3000
X-53100Y22800
X-49300Y21600
X-41866Y16492
X-41866Y13392
X-41866Y10392
X-48100Y9000
X-49700Y4700
X-45200Y-2600
X-45200Y-5600
X-45200Y-11200
X-45200Y-15300
X-41234Y-33892
X-46800Y-36700
X-41234Y-36892
X-41234Y-39992
X-46500Y-40800
X-44500Y-42900
X-41100Y-46000
X-44200Y-46000
X-47400Y-46000
X-40400Y-49000
X-43300Y-49100
X-46500Y-49100
X-49300Y-49100
X-48000Y-56900
X-41900Y-57100
X-45700Y-57200
X-44500Y-58800
X-44441Y-61359
X-42046Y-64654
X-49559Y-74141
X-47804Y-78548
X-41578Y-98968
X-36578Y-98968
X-31578Y-98968
X-32733Y-89535
X-32733Y-84535
X-34900Y-79000
X-39000Y-77400
X-35800Y-61600
X-39000Y-60900
X-32900Y-60200
X-39900Y-58800
X-37700Y-56900
X-34000Y-56900
X-37700Y-49100
X-34600Y-49100
X-31800Y-49100
X-31600Y-46900
X-34700Y-46200
X-37500Y-45900
X-32194Y-44173
X-38234Y-39992
X-32194Y-39173
X-38234Y-36892
X-38234Y-33892
X-39200Y-12000
X-38866Y10392
X-38866Y13392
X-38866Y16492
X-32400Y18400
X-35961Y26961
X-31000Y28000
X-30700Y30400
X-35961Y42000
X-24903Y41116
X-29903Y41116
X-28400Y31200
X-23100Y26800
X-30000Y18400
X-24037Y16386
X-25400Y14400
X-22600Y14100
X-20406Y7299
X-27000Y-8000
X-20500Y-8847
X-27900Y-12000
X-20500Y-14753
X-27884Y-15400
X-22700Y-28800
X-21733Y-35235
X-27194Y-39173
X-21733Y-40235
X-27194Y-44173
X-26841Y-50283
X-26841Y-57370
X-26841Y-68000
X-26657Y-71543
X-22502Y-78500
X-26841Y-78630
X-21717Y-90817
X-21578Y-98968
X-26578Y-98968
X-16578Y-98968
X-11578Y-98968
X-18173Y-90841
R02X3543
X-19000Y-78500
R02X4000
X-14300Y-72000
X-14300Y-68000
X-19637Y-62994
X-14637Y-62994
X-17556Y-59625
X-13700Y-58200
X-12866Y-16208
R03Y3000
X-15900Y3000
X-18469Y8487
X-15091Y18691
X-16900Y26700
X-19903Y41116
X-14903Y41116
X-4903Y41116
X-9903Y41116
X-2192Y34934
X-4692Y34934
X-7092Y34934
X-2192Y31934
X-4692Y31934
X-7092Y31934
X-1150Y26050
X-7000Y6955
X-7416Y216
X-3866Y-7208
X-6866Y-7208
X-9866Y-7208
X-3866Y-10208
R02X-3000
X-3866Y-13208
R02X-3000
X-3866Y-16208
R02X-3000
X-1000Y-26000
X-2000Y-78500
X-7000Y-78500
X-457Y-90841
X-4000Y-90841
X-7543Y-90841
X-6578Y-98968
X1100Y-98774
X4900Y-98800
X3087Y-90841
X6630Y-90841
X7467Y-83835
X7467Y-78835
X2000Y-78500
X5900Y-74400
X9400Y-73300
X9200Y-70500
X9300Y-68100
X7800Y-50800
X1300Y-40500
X3500Y-38000
X8000Y-23000
X5000Y-16800
X3453Y-14753
X3453Y-8847
X5900Y200
X4100Y3200
X2100Y15800
X2100Y17800
X2100Y19900
X2843Y25543
X9400Y37200
X3961Y42000
X16500Y43000
X12900Y37200
X16343Y25543
X17034Y18792
X14034Y18792
X17034Y16392
X14034Y16392
X17034Y13892
X14034Y13892
X17267Y-13635
X14200Y-16800
X17267Y-18635
X15600Y-29500
X16700Y-31600
X12900Y-38100
X10300Y-40600
X18841Y-50283
X13000Y-55400
X18841Y-57370
X13000Y-64700
X10900Y-65900
X14000Y-67700
X13717Y-90841
X21300Y-89900
X25000Y-66200
X25200Y-62000
X25100Y-59039
X25200Y-55700
X25314Y-48850
X28500Y-48800
X24707Y-46084
X29100Y-43714
X20800Y-38185
X26800Y-36200
X22300Y-29700
X24714Y-29492
X22500Y-26100
X27900Y-24300
X22800Y-23200
X26200Y-21500
X29700Y-21500
X26800Y-16000
X29600Y-12000
X28400Y-7800
X27600Y13500
X24410Y13790
X21260Y19961
X23800Y27200
X37008Y14800
X33858Y14758
X30800Y13654
X30600Y8000
X30500Y4000
X37400Y2000
X39700Y-4900
X38500Y-12814
X34122Y-22061
X36700Y-24200
X34500Y-24200
X31186Y-24200
X30024Y-41700
X30400Y-47200
X38462Y-81692
X49606Y-93894
X46321Y-75079
X44884Y-68716
X42599Y-66501
X40900Y-64801
X48300Y-58600
X44300Y-25800
X46728Y-25800
X48900Y-25800
X40700Y-24800
X48500Y-19100
X49200Y-2000
X44700Y-200
X49486Y4214
X48124Y12015
X43300Y12600
X40100Y16900
X46400Y17900
X49606Y18794
X59000Y42165
X55900Y36100
X59055Y35158
X58986Y27815
X59055Y19961
X55900Y18200
X52700Y16300
X58149Y13349
X50296Y12015
X55400Y11400
X53100Y11300
X52100Y6000
X59410Y5590
X59410Y3032
X52100Y2000
X57600Y-9389
X54900Y-15800
X51100Y-16000
X51100Y-19100
X54599Y-19199
X59213Y-22500
X53300Y-26989
X58801Y-42089
X59410Y-45590
X59500Y-48800
X58905Y-55000
X50136Y-55835
X58249Y-57312
X56013Y-57687
X56500Y-68700
X52756Y-81656
X53665Y-83738
X57700Y-96500
X54000Y-96500
X50000Y-96600
X67472Y-82528
X62279Y-75079
X63500Y-52900
X63000Y-46600
X64528Y-37913
R02X2559
X67087Y-35354
X69646Y-35354
X67087Y-30237
X69646Y-30237
X67087Y-25118
X69646Y-25118
X61968Y-22559
X64528Y-22559
X69646Y-20000
X67087Y-14882
X69646Y-14882
X67087Y-12322
X69646Y-12323
X67087Y-7205
X69646Y-7204
X67087Y-4646
X67087Y-2087
X64528Y472
X67087Y472
X61968Y5590
X64528Y5590
X62205Y19961
X65354Y21246
X61334Y26168
X61600Y28100
X68504Y35158
X62200Y35400
X65350Y35400
X64300Y42600
X68600Y43300
X73300Y41300
X77953Y35158
X74803Y35158
X71654Y35158
X77294Y26508
X74800Y17900
X79882Y472
X79882Y-2087
X74763Y-2086
X72205Y-2087
X79882Y-4646
X74763Y-4646
X72205Y-4646
X79882Y-7205
X74764Y-7205
X72205Y-7205
X79882Y-9763
X77322Y-9763
X74763Y-9763
X72204Y-9763
X79882Y-12322
X77322Y-12322
X74763Y-12322
X72205Y-12323
X79882Y-14882
X77322Y-14882
X74763Y-14882
X72205Y-14882
X79882Y-17441
X77322Y-17441
X74763Y-17441
X79882Y-22559
X77322Y-22560
X74763Y-22560
X72205Y-22560
X79882Y-25118
X77322Y-25118
X74763Y-25118
X72205Y-25118
X79882Y-27678
X77322Y-27678
X74763Y-27678
X79882Y-30237
X77322Y-30237
X74763Y-30237
X72205Y-30237
X79882Y-32795
X74764Y-32795
X79882Y-35354
X74764Y-35354
X72205Y-35354
X79882Y-37913
X74763Y-37913
X72205Y-37913
X72205Y-40472
X79882Y-43032
X79882Y-45590
X77399Y-58499
X79404Y-61000
X71000Y-62600
X74803Y-79303
X79150Y-81650
X76200Y-81800
X73400Y-82900
X89251Y-96414
X85799Y-96300
X85835Y-83865
X82800Y-83700
X88750Y-83050
X88000Y-54400
X80000Y-50000
X82000Y-49000
X87351Y-47349
X87559Y-40472
X85000Y-37913
X87560Y-37913
X82441Y-35354
X87560Y-35354
X82441Y-32795
X87560Y-32796
X82441Y-30237
X85001Y-30236
X87560Y-30237
X82441Y-27678
X87559Y-27678
X82441Y-25118
X87559Y-25118
X82441Y-22559
X87559Y-22559
X82441Y-17441
X87559Y-17441
X82441Y-14882
X87559Y-14882
X87559Y-12322
X82441Y-9763
X87559Y-9763
X82441Y-7205
X87560Y-7205
X82441Y-4646
X87560Y-4646
X82441Y-2087
X87559Y472
X81102Y35158
R02X3150
X93701Y35158
X90551Y35158
X92000Y13200
X92014Y10600
X92014Y8350
X97795Y472
X92678Y-2087
X90118Y-2087
X97796Y-4646
X92677Y-4646
X90118Y-4646
X95237Y-7204
X97795Y-9763
X95237Y-9763
X90118Y-9763
X97795Y-12323
X90118Y-12322
X97796Y-14881
X95237Y-14882
X92678Y-14882
X90118Y-14882
X95237Y-17441
X92678Y-17441
X90118Y-17441
X98583Y-17859
X97795Y-20001
X95237Y-22559
X92678Y-22559
X97795Y-25118
X95237Y-25118
X92678Y-25118
X90118Y-25118
X97795Y-27678
X95237Y-27678
X92678Y-27678
X90118Y-27678
X97795Y-30237
X95237Y-30237
X90118Y-30237
X97795Y-32796
X92677Y-32795
X90118Y-32795
X97795Y-35355
X90119Y-35354
X92677Y-37913
X90118Y-37913
X95175Y-55951
X92700Y-61100
X97000Y-62900
X95000Y-65200
X90551Y-79251
X95400Y-82500
X92500Y-82500
X101900Y-97500
X106300Y-81800
X102800Y-62600
X101200Y-60600
X102714Y-58900
X101349Y-56751
X108032Y-45590
X105472Y-43032
X100354Y-37913
X102913Y-37913
X105472Y-37913
X100354Y-35354
X102913Y-35354
X100354Y-32795
R02X2559
X100354Y-27678
X102913Y-27678
X100354Y-25118
R02X2559
X100354Y-20001
X102913Y-20001
X100354Y-14882
R02X2559
X101634Y-11200
X100354Y-7205
X102913Y-7205
X105472Y-7205
X102913Y-4646
X100354Y-2087
X102913Y-2087
X105472Y-2087
X108032Y-2087
X105472Y472
X109796Y6166
X106752Y8300
X109614Y10100
X103102Y22096
X106300Y24100
X108012Y25866
X115700Y38100
X118900Y36614
X112598Y36586
X118100Y25400
X115600Y24661
X112700Y24661
X116450Y13750
X118617Y13591
X110200Y12600
X115400Y10900
X112900Y8700
X117650Y8550
X115986Y6586
X110590Y3032
X119300Y200
X119450Y-17450
X115200Y-22100
X119929Y-23851
X111900Y-41752
X118700Y-44700
X110590Y-45590
X111949Y-57051
X112700Y-59500
X116186Y-61300
X111700Y-62600
X118000Y-62700
X115748Y-75079
X111600Y-96700
X115053Y-99121
R02X5000
X129300Y-82000
X126086Y-81900
X128000Y-62800
X122900Y-62700
X125400Y-62700
X120600Y-62600
X123500Y-53000
X120013Y-46554
X121601Y-27999
X122000Y-24600
X122300Y-20100
X121669Y-14674
X124000Y-14300
X127100Y-13800
X121328Y-9600
X125402Y-9602
X123350Y-7450
X127851Y-6551
X125401Y-3401
X121400Y-800
X125406Y1904
X127651Y4149
X121400Y6200
X124200Y7264
X128700Y8700
X121600Y13100
X128346Y23254
X122000Y23400
X125100Y23489
X128300Y31500
X125200Y34700
X122100Y36300
X127600Y42900
X131500Y35200
X134646Y35100
X137801Y32199
X134237Y26437
X134161Y22300
X131989Y22300
X137800Y21200
X130514Y1684
X137827Y1197
X137323Y-1009
X130000Y-3500
X135487Y-4914
X137827Y-5103
X136577Y-13047
X136600Y-20600
X131000Y-20606
X130688Y-24200
X137100Y-25773
X130688Y-27200
X137000Y-29500
X134200Y-32400
X135861Y-33950
X137828Y-36598
X132800Y-37100
X135300Y-37200
X136500Y-41323
X136800Y-44472
X137827Y-49197
X132000Y-64614
X139000Y-66500
X136132Y-68100
X131851Y-68772
X131496Y-81514
X135053Y-99121
X130053Y-99121
X140053Y-99121
X145053Y-99121
X149265Y-98667
X149265Y-93667
X144094Y-90276
X144600Y-78200
X143800Y-68600
X147000Y-66000
X144000Y-63100
X140977Y-49197
X144126Y-49197
X140977Y-46047
X144127Y-46046
X140977Y-42897
X144126Y-42898
X144127Y-39747
X140977Y-36598
X144126Y-36598
X149600Y-35024
X144126Y-33449
X148187Y-32513
X140989Y-30311
X144164Y-30336
X148129Y-28371
X140977Y-27149
X144126Y-27149
X144088Y-20812
X148900Y-15600
X149300Y3800
X149394Y10182
X149650Y17014
X141500Y21800
X143672Y21800
X144163Y26437
X140900Y35100
X144000Y35063
X149000Y40500
X158200Y40100
X159203Y31743
X159203Y26743
X151700Y18450
X153900Y15000
X152000Y13400
X154700Y11786
X153900Y8600
X151800Y7000
X154400Y5386
X153900Y2200
X151815Y1085
X153900Y-1000
X150251Y-2418
X153900Y-4200
X151860Y-5900
X154314Y-7514
X150043Y-9250
X153900Y-10642
X151853Y-12600
X154614Y-13828
X154700Y-17000
X152037Y-17911
X153756Y-20256
X150297Y-22322
X159887Y-24013
X152410Y-24464
X156287Y-26713
X152410Y-26735
X159873Y-27149
X154500Y-30600
X154500Y-32872
X159911Y-33411
X156686Y-33486
X154600Y-36900
X159912Y-39710
X156762Y-39786
X152000Y-41762
X159836Y-42935
X152000Y-44033
X159838Y-46082
X158299Y-50000
X151100Y-69200
X155000Y-77900
X159465Y-80867
X159265Y-88467
X154265Y-88467
X159265Y-93667
X154265Y-93667
X159265Y-98667
X154265Y-98667
X164465Y-80867
X165600Y-76700
X165000Y-65000
X160200Y-64100
X161449Y-49900
X164800Y-49900
X166900Y-48200
X163035Y-46035
X167600Y-45100
X163023Y-42897
X167600Y-41900
X163000Y-39700
X167394Y-39738
X167900Y-36600
X169851Y-33849
X168500Y-32006
X167700Y-28599
X162987Y-27113
X169600Y-25575
X162962Y-23938
X167400Y-23600
X162986Y-20814
X166500Y-17700
X168200Y-14500
X166172Y-11402
X166172Y-8253
X166173Y-5103
R02Y3150
X168088Y21714
X161106Y27382
X179630Y19811
X174630Y19811
X179630Y14811
X174630Y14811
X170300Y13300
X179630Y9811
X174630Y9811
X175000Y6000
X175000Y0
X172500Y-3000
X172500Y-5500
X172500Y-8000
X172500Y-13000
X172100Y-19400
X172500Y-22000
X175100Y-37000
X175100Y-41000
X175100Y-45000
X175000Y-50000
X175000Y-56000
X177700Y-59700
X176159Y-61703
X171159Y-61703
X179000Y-63800
X177563Y-65963
X180800Y-72100
X180500Y-70000
X181159Y-61703
X181000Y-56000
X181000Y-50000
X181300Y-45000
X181500Y-40000
X181500Y-35000
X181500Y-30000
X181500Y-26000
X181600Y-22000
X181500Y-18000
X181400Y-15400
X181500Y-13000
X181600Y-10400
X181500Y-8000
X181000Y-6000
X181500Y-3000
X181000Y0
X181000Y6000
T02
X-55118Y35433
X-55118Y-90551
X173228Y-90551
X173228Y35433
T03
X-27378Y27630
X-4622Y27630
X27622Y27630
X50378Y27630
T04
X11417Y-82677
X11417Y27559
T05
X153937Y-82677
X153937Y27559
M30
