G04 ================== begin FILE IDENTIFICATION RECORD ==================*
G04 Layout Name:  F:/PCB_PROJECT/D1-CORE/PCB/D1_CORE.brd*
G04 Film Name:    POWER*
G04 File Format:  Gerber RS274X*
G04 File Origin:  Cadence Allegro 17.2-S079*
G04 Origin Date:  Wed Mar 23 19:10:51 2022*
G04 *
G04 Layer:  BOARD GEOMETRY/OUTLINE*
G04 Layer:  ETCH/POWER*
G04 Layer:  PIN/POWER*
G04 Layer:  VIA CLASS/POWER*
G04 *
G04 Offset:    (0.00 0.00)*
G04 Mirror:    No*
G04 Mode:      Positive*
G04 Rotation:  0*
G04 FullContactRelief:  No*
G04 UndefLineWidth:     1.00*
G04 ================== end FILE IDENTIFICATION RECORD ====================*
%FSLAX25Y25*MOIN*%
%IR0*IPPOS*OFA0.00000B0.00000*MIA0B0*SFA1.00000B1.00000*%
%ADD11C,.01772*%
%ADD12C,.02559*%
%ADD10C,.20866*%
%ADD13C,.01*%
%ADD14C,.004*%
%ADD15C,.001*%
%ADD16C,.007*%
%ADD17C,.0035*%
%ADD18C,.0416*%
%ADD19C,.0219*%
%ADD20C,.0672*%
%ADD21C,.02187*%
%ADD22C,.02188*%
%ADD23C,.02189*%
G75*
%LPD*%
G75*
G36*
G01X-52999Y-65002D02*
X-51998Y-64001D01*
Y-28999D01*
X-53999Y-26998D01*
X-64928D01*
Y28405D01*
G02X-64297Y28614I350J0D01*
G03X-62908Y27062I9180J6818D01*
G02X-63119Y26457I-238J-256D01*
G03X-64128Y25365I86J-1092D01*
G03X-61938I1095J0D01*
G03X-61952Y25539I-1095J-1D01*
G02X-61414Y25887I345J56D01*
G03X-55118Y23998I6296J9546D01*
G03X-54272Y24029I5J11435D01*
G02X-53968Y23467I26J-349D01*
G03X-54195Y22800I868J-667D01*
G03X-52005I1095J0D01*
G03X-52483Y23704I-1094J0D01*
G02X-52370Y24333I197J289D01*
G03X-43683Y35433I-2748J11100D01*
G03X-48299Y44612I-11434J0D01*
G02X-48090Y45243I209J281D01*
G01X166200D01*
G02X166409Y44612I0J-350D01*
G03X161793Y35433I6818J-9179D01*
G01Y35432D01*
G03X162116Y32734I11435J1D01*
G02X161776Y32302I-340J-82D01*
G01X160145D01*
G03X158261I-942J-560D01*
G01X138900D01*
X138870Y32438D01*
G03X136732I-1069J-240D01*
G01X136702Y32302D01*
X129046D01*
G03X127554I-746J-803D01*
G01X16192D01*
X13395Y29504D01*
X13271Y29615D01*
G03X11417Y30328I-1855J-2056D01*
G03X8648Y27559I0J-2769D01*
G03X11047Y24815I2769J0D01*
G01X11198Y24794D01*
Y12892D01*
X14092Y9998D01*
X87592D01*
X96757Y834D01*
X96733Y738D01*
G03X96700Y472I1062J-267D01*
G03X97795Y-623I1095J0D01*
G03X98061Y-590I-1J1095D01*
G01X98157Y-566D01*
X99098Y-1508D01*
Y-6092D01*
X97749Y-7442D01*
G02X97152Y-7195I-247J248D01*
G01Y-5554D01*
X93772Y-2175D01*
X93773Y-2101D01*
Y-2087D01*
G03X92678Y-992I-1095J0D01*
G03X91676Y-1644I0J-1096D01*
G01X91630Y-1748D01*
X91166D01*
X91120Y-1644D01*
G03X89116I-1002J-444D01*
G01X89070Y-1748D01*
X85454D01*
X83395Y-3808D01*
G02X83156Y-3817I-124J123D01*
G03X82441Y-3551I-715J-828D01*
G03X81346Y-4646I0J-1095D01*
G03X81748Y-5494I1095J0D01*
G01Y-6357D01*
G03Y-8053I693J-848D01*
G01Y-8417D01*
G02X81450Y-8541I-175J0D01*
G01X80769Y-7860D01*
X80835Y-7744D01*
G03X80977Y-7205I-952J539D01*
G03X78787I-1095J0D01*
G03X78803Y-7390I1095J1D01*
G02X78458Y-7798I-345J-58D01*
G01X76188D01*
G02X75843Y-7390I0J350D01*
G03X75859Y-7205I-1079J186D01*
G03X73669I-1095J0D01*
G03X73720Y-7537I1095J-2D01*
G01X73753Y-7638D01*
X73307Y-8084D01*
X73089Y-7866D01*
X73155Y-7749D01*
G03X73300Y-7205I-950J545D01*
G03X72205Y-8300I-1095J0D01*
G03X72749Y-8155I-1J1095D01*
G01X72866Y-8089D01*
X73084Y-8307D01*
X72639Y-8752D01*
X72537Y-8720D01*
G03X72204Y-8668I-333J-1043D01*
G03X71109Y-9763I0J-1095D01*
G03X71161Y-10096I1095J0D01*
G01X71193Y-10198D01*
X70079Y-11312D01*
X69978Y-11279D01*
G03X69646Y-11228I-330J-1044D01*
G03X68551Y-12323I0J-1095D01*
G03X68602Y-12655I1095J-2D01*
G01X68635Y-12756D01*
X68188Y-13203D01*
X67969Y-12985D01*
X68036Y-12868D01*
G03X68182Y-12322I-948J546D01*
G03X67087Y-13417I-1095J0D01*
G03X67740Y-13201I0J1095D01*
G02X68298Y-13482I208J-281D01*
G01Y-15392D01*
X67492Y-16198D01*
X63008D01*
X59808Y-12998D01*
X39595D01*
Y-12814D01*
G03X37405I-1095J0D01*
G01Y-12998D01*
X18158D01*
G03X17315Y-12541I-891J-637D01*
G01X17247Y-12538D01*
X6123Y-1414D01*
G02X6256Y-835I247J248D01*
G03X6995Y200I-355J1035D01*
G03X5900Y1295I-1095J0D01*
G03X4865Y556I0J-1094D01*
G02X4286Y423I-331J114D01*
G01X-3348Y8058D01*
Y14758D01*
X-8592Y20002D01*
X-43608D01*
X-46902Y16708D01*
Y10169D01*
G02X-47457Y9886I-350J0D01*
G03X-48100Y10095I-643J-885D01*
G03Y7905I0J-1095D01*
G03X-47457Y8114I0J1094D01*
G02X-46902Y7831I205J-283D01*
G01Y3392D01*
X-46852Y3342D01*
Y2958D01*
X-46902Y2908D01*
Y-7008D01*
X-10308Y-43602D01*
X27998D01*
X28006Y-43768D01*
G03X30194I1094J54D01*
G01X30202Y-43602D01*
X40208D01*
X43408Y-40402D01*
X65008D01*
X66540Y-38869D01*
X66649Y-38917D01*
G03X67085Y-39008I437J1004D01*
G01X67087D01*
G03X68182Y-37913I0J1095D01*
G01Y-37911D01*
G03X68091Y-37475I-1095J-1D01*
G01X68043Y-37366D01*
X68508Y-36902D01*
X73708D01*
X74271Y-36338D01*
X74377Y-36378D01*
G03X74764Y-36449I388J1024D01*
G03X75472Y-36189I0J1094D01*
G02X76048Y-36456I226J-267D01*
G01Y-38346D01*
X77354Y-39652D01*
X77998D01*
Y-41880D01*
X77204Y-42675D01*
G03X76998Y-43171I496J-497D01*
G01Y-45302D01*
X76973Y-45344D01*
G03X76848Y-45787I727J-444D01*
G01Y-46447D01*
X75953Y-47342D01*
X64390D01*
G02X64054Y-46897I1J350D01*
G03X64095Y-46600I-1055J297D01*
G03X61905I-1095J0D01*
G03X61946Y-46897I1096J0D01*
G02X61610Y-47342I-337J-95D01*
G01X61501D01*
X60762Y-46604D01*
G03X60571Y-46460I-603J-601D01*
G02X60418Y-46017I169J306D01*
G03X60505Y-45590I-1008J428D01*
G03X58315I-1095J0D01*
G03X58419Y-46055I1095J1D01*
G02X58295Y-46496I-317J-149D01*
G03X58162Y-46604I467J-711D01*
G01X50171Y-54596D01*
X50102Y-54597D01*
G03X48898Y-55835I34J-1238D01*
G03X49270Y-56720I1239J0D01*
G02X49273Y-57218I-244J-250D01*
G01X48847Y-57644D01*
X48738Y-57596D01*
G03X48302Y-57505I-437J-1004D01*
G01X48300D01*
G03X47205Y-58600I0J-1095D01*
G01Y-58602D01*
G03X47296Y-59038I1095J1D01*
G01X47344Y-59147D01*
X44392Y-62098D01*
X40992D01*
X38598Y-64492D01*
Y-67308D01*
X40392Y-69102D01*
X43853D01*
X43901Y-69199D01*
G03X45867I983J483D01*
G01X45915Y-69102D01*
X50008D01*
X62708Y-56402D01*
X87208D01*
X88119Y-55490D01*
X88175Y-55481D01*
G03X89088Y-54521I-175J1081D01*
G01X89091Y-54494D01*
X89102Y-54471D01*
Y-36808D01*
X89590Y-36320D01*
X89698Y-36365D01*
G03X90119Y-36449I421J1011D01*
G03X90596Y-36340I1J1095D01*
G02X91095Y-36604I153J-315D01*
G01X91773Y-37282D01*
X91711Y-37396D01*
G03X91582Y-37910I966J-516D01*
G01Y-37913D01*
G03X92677Y-39008I1095J0D01*
G03X93194Y-38879I1J1095D01*
G01X93308Y-38817D01*
X110994Y-56503D01*
X110946Y-56612D01*
G03X110854Y-57051I1003J-439D01*
G03X111949Y-58146I1095J0D01*
G03X112388Y-58054I0J1095D01*
G01X112497Y-58006D01*
X112738Y-58247D01*
X112575Y-58411D01*
X112520Y-58420D01*
G03X111605Y-59500I180J-1080D01*
G03X112700Y-60595I1095J0D01*
G03X113715Y-59912I0J1096D01*
G02X114286Y-59796I324J-131D01*
G01X115235Y-60744D01*
X115186Y-60854D01*
G03X115091Y-61300I999J-446D01*
G03X116186Y-62395I1095J0D01*
G03X116632Y-62300I0J1094D01*
G01X116742Y-62251D01*
X116932Y-62441D01*
X116918Y-62529D01*
G03X116905Y-62700I1082J-168D01*
G03X119095I1095J0D01*
G01Y-62698D01*
G03X119078Y-62507I-1095J-1D01*
G01X119075Y-62492D01*
Y-62302D01*
X119511D01*
Y-62485D01*
X119510Y-62494D01*
G03X119505Y-62600I1090J-105D01*
G03X120600Y-63695I1095J0D01*
G03X121443Y-63299I0J1095D01*
G02X122000Y-63323I269J-224D01*
G03X122900Y-63795I900J622D01*
G03X123847Y-63249I0J1094D01*
G02X124453I303J-176D01*
G03X125400Y-63795I947J548D01*
G03X126495Y-62700I0J1095D01*
G01Y-62698D01*
G03X126478Y-62507I-1095J-1D01*
G01X126475Y-62492D01*
Y-62302D01*
X126947D01*
Y-62499D01*
X126941Y-62521D01*
G03X126905Y-62799I1059J-278D01*
G01Y-62800D01*
G03X129095I1095J0D01*
G03X129089Y-62687I-1095J-1D01*
G02X129437Y-62302I348J35D01*
G01X142627D01*
G02X142959Y-62760I-1J-350D01*
G03X142905Y-63099I1041J-340D01*
G01Y-63100D01*
G03X145095I1095J0D01*
G01Y-63099D01*
G03X145041Y-62760I-1095J-1D01*
G02X145373Y-62302I333J108D01*
G01X170242D01*
G03X172076I917J600D01*
G01X175242D01*
G03X177076I917J600D01*
G01X179908D01*
X180081Y-62128D01*
X180219Y-62266D01*
X180230Y-62283D01*
G03X181159Y-62798I929J580D01*
G03X182254Y-61703I0J1095D01*
G03X181871Y-60871I-1095J0D01*
G02X181851Y-60358I228J266D01*
G01X182441Y-59769D01*
G02X183038Y-60016I247J-247D01*
G01Y-83523D01*
G02X182407Y-83732I-350J0D01*
G03X173228Y-79116I-9179J-6818D01*
G03X161793Y-90551I0J-11435D01*
G03X166409Y-99730I11434J0D01*
G02X166200Y-100361I-209J-281D01*
G01X146191D01*
G02X145916Y-99795I0J350D01*
G03X146148Y-99121I-863J674D01*
G03X143958I-1095J0D01*
G03X144190Y-99795I1095J0D01*
G02X143915Y-100361I-275J-216D01*
G01X141191D01*
G02X140916Y-99795I0J350D01*
G03X141148Y-99121I-863J674D01*
G03X138958I-1095J0D01*
G03X139190Y-99795I1095J0D01*
G02X138915Y-100361I-275J-216D01*
G01X136191D01*
G02X135916Y-99795I0J350D01*
G03X136148Y-99121I-863J674D01*
G03X133958I-1095J0D01*
G03X134190Y-99795I1095J0D01*
G02X133915Y-100361I-275J-216D01*
G01X131191D01*
G02X130916Y-99795I0J350D01*
G03X131148Y-99121I-863J674D01*
G03X128958I-1095J0D01*
G03X129190Y-99795I1095J0D01*
G02X128915Y-100361I-275J-216D01*
G01X126191D01*
G02X125916Y-99795I0J350D01*
G03X126148Y-99121I-863J674D01*
G03X123958I-1095J0D01*
G03X124190Y-99795I1095J0D01*
G02X123915Y-100361I-275J-216D01*
G01X121191D01*
G02X120916Y-99795I0J350D01*
G03X121148Y-99121I-863J674D01*
G03X118958I-1095J0D01*
G03X119190Y-99795I1095J0D01*
G02X118915Y-100361I-275J-216D01*
G01X116191D01*
G02X115916Y-99795I0J350D01*
G03X116148Y-99121I-863J674D01*
G03X113958I-1095J0D01*
G03X114190Y-99795I1095J0D01*
G02X113915Y-100361I-275J-216D01*
G01X-5578D01*
G02X-5820Y-99758I0J350D01*
G03X-5483Y-98968I-757J790D01*
G03X-7673I-1095J0D01*
G03X-7336Y-99758I1094J0D01*
G02X-7578Y-100361I-242J-253D01*
G01X-10578D01*
G02X-10820Y-99758I0J350D01*
G03X-10483Y-98968I-757J790D01*
G03X-12673I-1095J0D01*
G03X-12336Y-99758I1094J0D01*
G02X-12578Y-100361I-242J-253D01*
G01X-15578D01*
G02X-15820Y-99758I0J350D01*
G03X-15483Y-98968I-757J790D01*
G03X-17673I-1095J0D01*
G03X-17336Y-99758I1094J0D01*
G02X-17578Y-100361I-242J-253D01*
G01X-20578D01*
G02X-20820Y-99758I0J350D01*
G03X-20483Y-98968I-757J790D01*
G03X-22673I-1095J0D01*
G03X-22336Y-99758I1094J0D01*
G02X-22578Y-100361I-242J-253D01*
G01X-25578D01*
G02X-25820Y-99758I0J350D01*
G03X-25483Y-98968I-757J790D01*
G03X-27673I-1095J0D01*
G03X-27336Y-99758I1094J0D01*
G02X-27578Y-100361I-242J-253D01*
G01X-30578D01*
G02X-30820Y-99758I0J350D01*
G03X-30483Y-98968I-757J790D01*
G03X-32673I-1095J0D01*
G03X-32336Y-99758I1094J0D01*
G02X-32578Y-100361I-242J-253D01*
G01X-35578D01*
G02X-35820Y-99758I0J350D01*
G03X-35483Y-98968I-757J790D01*
G03X-37673I-1095J0D01*
G03X-37336Y-99758I1094J0D01*
G02X-37578Y-100361I-242J-253D01*
G01X-40578D01*
G02X-40820Y-99758I0J350D01*
G03X-40483Y-98968I-757J790D01*
G03X-42673I-1095J0D01*
G03X-42336Y-99758I1094J0D01*
G02X-42578Y-100361I-242J-253D01*
G01X-48090D01*
G02X-48299Y-99730I0J350D01*
G03X-43683Y-90551I-6818J9179D01*
G03X-51682Y-79644I-11436J0D01*
G02X-51874Y-79126I105J334D01*
G03X-51709Y-78548I-930J578D01*
G03X-53899I-1095J0D01*
G03X-53882Y-78739I1095J1D01*
G02X-54253Y-79149I-345J-61D01*
G03X-55118Y-79116I-868J-11402D01*
G03X-64297Y-83732I0J-11434D01*
G02X-64928Y-83523I-281J209D01*
G01Y-65002D01*
X-52999D01*
G37*
G36*
G01X-13721Y19500D02*
X-8800D01*
X-3850Y14550D01*
Y7850D01*
X16431Y-12431D01*
G02X16446Y-12910I-247J-247D01*
G03X16172Y-13635I822J-725D01*
G03X17267Y-14730I1095J0D01*
G03X18361Y-13669I0J1095D01*
G01X18367Y-13500D01*
X37647D01*
G03X39353I853J685D01*
G01X59600D01*
X62800Y-16700D01*
X67700D01*
X68802Y-15598D01*
X68925Y-15706D01*
G03X69646Y-15977I721J824D01*
G03Y-13787I0J1095D01*
G03X69270Y-13854I1J-1095D01*
G02X68800Y-13525I-120J329D01*
G01Y-13401D01*
G02X69067Y-13253I175J-1D01*
G03X69646Y-13418I578J930D01*
G03X70741Y-12323I0J1095D01*
G03X70566Y-11729I-1096J0D01*
G01X70489Y-11611D01*
X71493Y-10607D01*
X71611Y-10684D01*
G03X72204Y-10858I592J921D01*
G03X73299Y-9763I0J1095D01*
G03X73125Y-9170I-1095J1D01*
G01X73048Y-9052D01*
X73800Y-8300D01*
X80500D01*
X81300Y-9100D01*
Y-13909D01*
G02X80691Y-14144I-350J0D01*
G03X79882Y-13787I-809J-738D01*
G03Y-15977I0J-1095D01*
G03X80691Y-15620I0J1095D01*
G02X81300Y-15855I259J-235D01*
G01Y-16468D01*
G02X80691Y-16703I-350J0D01*
G03X79882Y-16346I-809J-738D01*
G03Y-18536I0J-1095D01*
G03X80954Y-17665I0J1095D01*
G01X80983Y-17526D01*
X81300D01*
Y-18100D01*
X78800Y-20600D01*
Y-22390D01*
X78798Y-22403D01*
G03X78787Y-22559I1084J-155D01*
G03X78798Y-22715I1095J-1D01*
G01X78800Y-22728D01*
Y-24949D01*
X78798Y-24962D01*
G03X78787Y-25118I1084J-155D01*
G03X78798Y-25274I1095J-1D01*
G01X78800Y-25287D01*
Y-27300D01*
X78837Y-27337D01*
X78815Y-27431D01*
G03X78787Y-27678I1067J-246D01*
G03X78884Y-28130I1095J-1D01*
G01X78900Y-28164D01*
Y-29751D01*
X78884Y-29785D01*
G03X78787Y-30237I998J-451D01*
G03X78884Y-30689I1095J-1D01*
G01X78900Y-30723D01*
Y-31000D01*
X75427Y-34473D01*
X75311Y-34406D01*
G03X74764Y-34259I-548J-948D01*
G03X73669Y-35354I0J-1095D01*
G03X73816Y-35901I1095J1D01*
G01X73883Y-36017D01*
X73500Y-36400D01*
X73129D01*
G02X73002Y-36105I0J175D01*
G03X73300Y-35354I-797J751D01*
G03X71110I-1095J0D01*
G03X71245Y-35881I1096J0D01*
G02X70939Y-36400I-306J-169D01*
G01X70912D01*
G02X70606Y-35881I0J350D01*
G03X70741Y-35354I-961J527D01*
G03X68551I-1095J0D01*
G03X68686Y-35881I1096J0D01*
G02X68380Y-36400I-306J-169D01*
G01X68300D01*
X67702Y-36998D01*
X67588Y-36940D01*
G03X67087Y-36818I-502J-973D01*
G03X65992Y-37913I0J-1095D01*
G03X66114Y-38414I1095J1D01*
G01X66172Y-38528D01*
X64800Y-39900D01*
X43200D01*
X40000Y-43100D01*
X31017D01*
G02X30776Y-42496I0J350D01*
G03X31119Y-41700I-752J796D01*
G03X28929I-1095J0D01*
G03X29035Y-42170I1095J0D01*
G02X28811Y-42658I-316J-150D01*
G03X28193Y-43100I288J-1056D01*
G01X-10100D01*
X-22725Y-30475D01*
G02X-22531Y-29882I248J247D01*
G03X-21605Y-28800I-169J1082D01*
G03X-22700Y-27705I-1095J0D01*
G03X-23782Y-28631I0J-1095D01*
G02X-24375Y-28825I-346J54D01*
G01X-39509Y-13691D01*
G02X-39247Y-13094I248J247D01*
G03X-39200Y-13095I47J1094D01*
G03X-40295Y-12000I0J1095D01*
G03X-40294Y-12047I1095J0D01*
G02X-40891Y-12309I-350J-14D01*
G01X-46400Y-6800D01*
Y-6350D01*
X-46084Y-6246D01*
G03X-45200Y-6695I884J646D01*
G03Y-4505I0J1095D01*
G03X-45844Y-4715I1J-1095D01*
G02X-46400Y-4432I-206J283D01*
G01Y-3768D01*
G02X-45844Y-3485I350J0D01*
G03X-45200Y-3695I645J885D01*
G03Y-1505I0J1095D01*
G03X-45844Y-1715I1J-1095D01*
G02X-46400Y-1432I-206J283D01*
G01Y2700D01*
X-46350Y2750D01*
Y3550D01*
X-46400Y3600D01*
Y16500D01*
X-43400Y19500D01*
X-33635D01*
G02X-33336Y18968I0J-350D01*
G03X-33495Y18400I935J-568D01*
G03X-32400Y17305I1095J0D01*
G03X-31491Y17790I0J1094D01*
G02X-30909I291J-195D01*
G03X-30000Y17305I909J609D01*
G03X-28905Y18400I0J1095D01*
G03X-29064Y18968I-1094J0D01*
G02X-28765Y19500I299J182D01*
G01X-16461D01*
G02X-16129Y19039I0J-350D01*
G03X-16186Y18691I1038J-349D01*
G03X-13996I1095J0D01*
G03X-14053Y19039I-1095J-1D01*
G02X-13721Y19500I332J111D01*
G37*
G36*
G01X97796Y-13786D02*
G03X97700Y-13789I-14J-1096D01*
G01X97693Y-13790D01*
X97500D01*
Y-13515D01*
X97612Y-13402D01*
G03X97795Y-13418I187J1079D01*
G03Y-11228I0J1095D01*
G03X97700Y-11231I-13J-1095D01*
G01X97693Y-11232D01*
X97500D01*
Y-10955D01*
X97612Y-10842D01*
G03X97795Y-10858I187J1079D01*
G03Y-8668I0J1095D01*
G03X97700Y-8671I-13J-1095D01*
G01X97693Y-8672D01*
X97500D01*
Y-8400D01*
X98685Y-7215D01*
G02X99277Y-7400I248J-248D01*
G03X100354Y-8300I1077J194D01*
G03Y-6110I0J1095D01*
G03X100048Y-6154I1J-1095D01*
G02X99600Y-5818I-98J336D01*
G01Y-3474D01*
G02X100048Y-3138I350J0D01*
G03X100354Y-3182I307J1051D01*
G03Y-992I0J1095D01*
G01X100353D01*
G03X99710Y-1201I1J-1095D01*
G01X99589Y-1289D01*
X98593Y-293D01*
X98681Y-172D01*
G03X98890Y471I-886J644D01*
G01Y472D01*
G03X97795Y1567I-1095J0D01*
G01X97794D01*
G03X97151Y1358I1J-1095D01*
G01X97030Y1270D01*
X87800Y10500D01*
X56736D01*
G02X56413Y10983I0J350D01*
G03X56495Y11400I-1013J416D01*
G03X55400Y12495I-1095J0D01*
G03X54500Y12023I0J-1094D01*
G02X53943Y11999I-288J200D01*
G03X53100Y12395I-843J-699D01*
G03X52005Y11300I0J-1095D01*
G03X52059Y10959I1095J-1D01*
G02X51727Y10500I-332J-109D01*
G01X14300D01*
X11700Y13100D01*
Y24800D01*
X11848Y24824D01*
G03X14186Y27559I-431J2735D01*
G01Y27561D01*
G03X13711Y29111I-2769J-1D01*
G01X16400Y31800D01*
X126856D01*
G02X127206Y31462I0J-350D01*
G03X129394I1094J38D01*
G02X129744Y31800I350J-12D01*
G01X136775D01*
X136824Y31704D01*
G03X138778I977J495D01*
G01X138827Y31800D01*
X158098D01*
X158113Y31641D01*
G03X160293I1090J102D01*
G01X160308Y31800D01*
X162385D01*
G03X173228Y23998I10843J3634D01*
G03X182407Y28614I0J11434D01*
G02X183038Y28405I281J-209D01*
G01Y-9449D01*
G02X182425Y-9679I-350J0D01*
G03X182170Y-9465I-823J-722D01*
G02X182146Y-8884I183J299D01*
G03X182595Y-8000I-646J884D01*
G03X182055Y-7056I-1095J0D01*
G02X181934Y-6572I178J302D01*
G03X182095Y-6001I-934J572D01*
G01Y-6000D01*
G03X179905I-1095J0D01*
G03X180445Y-6944I1095J0D01*
G02X180566Y-7428I-178J-302D01*
G03X180405Y-7999I934J-572D01*
G01Y-8000D01*
G03X180930Y-8935I1095J0D01*
G02X180954Y-9516I-183J-299D01*
G03X180505Y-10400I646J-884D01*
G03X181600Y-11495I1095J0D01*
G01X181601D01*
G03X182425Y-11121I0J1095D01*
G02X183038Y-11351I263J-230D01*
G01Y-21049D01*
G02X182425Y-21279I-350J0D01*
G03X181601Y-20905I-824J-721D01*
G01X181600D01*
G03Y-23095I0J-1095D01*
G01X181601D01*
G03X182425Y-22721I0J1095D01*
G02X183038Y-22951I263J-230D01*
G01Y-58462D01*
X180848Y-60652D01*
X180809Y-60666D01*
G03X180122Y-61352I350J-1037D01*
G01X180109Y-61391D01*
X179700Y-61800D01*
X177262D01*
X177252Y-61636D01*
G03X177164Y-61268I-1093J-67D01*
G02X177537Y-60783I321J139D01*
G03X177700Y-60795I162J1083D01*
G03X176605Y-59700I0J1095D01*
G03X176695Y-60135I1096J0D01*
G02X176322Y-60620I-321J-139D01*
G03X176159Y-60608I-162J-1083D01*
G03X175066Y-61636I0J-1095D01*
G01X175056Y-61800D01*
X172262D01*
X172252Y-61636D01*
G03X170066I-1093J-67D01*
G01X170056Y-61800D01*
X128482D01*
X128417Y-61787D01*
X128402Y-61781D01*
G03X127584Y-61787I-402J-1020D01*
G01X127552Y-61800D01*
X126024D01*
G03X124776I-624J-901D01*
G01X123524D01*
G03X122276I-624J-901D01*
G01X121348D01*
G03X119852I-748J-801D01*
G01X118624D01*
G03X118000Y-61605I-624J-901D01*
G03X117720Y-61641I-2J-1095D01*
G02X117281Y-61303I-89J338D01*
G01Y-61302D01*
G03X116186Y-60205I-1095J2D01*
G01X116185D01*
G03X115693Y-60322I1J-1095D01*
G01X115580Y-60380D01*
X112865Y-57665D01*
X112923Y-57551D01*
G03X113044Y-57051I-974J500D01*
G03X111949Y-55956I-1095J0D01*
G03X111449Y-56077I0J-1095D01*
G01X111335Y-56135D01*
X93643Y-38443D01*
X93688Y-38334D01*
G03X93772Y-37914I-1011J421D01*
G01Y-37913D01*
G03X92677Y-36818I-1095J0D01*
G01X92676D01*
G03X92256Y-36902I1J-1095D01*
G01X92147Y-36947D01*
X91600Y-36400D01*
Y-34097D01*
X92018Y-33679D01*
X92134Y-33746D01*
G03X92677Y-33890I543J952D01*
G03Y-31700I0J1095D01*
G01X92676D01*
G03X92468Y-31720I0J-1095D01*
G02X92052Y-31377I-66J343D01*
G01Y-29254D01*
X91600Y-28803D01*
Y-21200D01*
X94520Y-18280D01*
X94639Y-18358D01*
G03X95237Y-18536I598J917D01*
G03X96332Y-17441I0J1095D01*
G03X96154Y-16843I-1095J0D01*
G01X96076Y-16724D01*
X97079Y-15721D01*
X97198Y-15798D01*
G03X97796Y-15976I598J917D01*
G03Y-13786I0J1095D01*
G37*
G36*
G01X88282Y-28500D02*
X89395D01*
G03X90118Y-28773I723J821D01*
G03X90707Y-28601I0J1094D01*
G01X90825Y-28525D01*
X91700Y-29400D01*
Y-32299D01*
X91684Y-32334D01*
G03X91582Y-32795I993J-461D01*
G03X91684Y-33256I1095J0D01*
G01X91700Y-33291D01*
Y-33500D01*
X90750Y-34450D01*
X90636Y-34389D01*
G03X90119Y-34259I-517J-965D01*
G03X89024Y-35354I0J-1095D01*
G03X89154Y-35871I1095J0D01*
G01X89215Y-35985D01*
X88600Y-36600D01*
Y-36643D01*
G02X88083Y-36951I-350J0D01*
G03X87560Y-36818I-523J-962D01*
G03Y-39008I0J-1095D01*
G03X88083Y-38875I0J1095D01*
G02X88600Y-39183I167J-308D01*
G01Y-39203D01*
G02X88083Y-39510I-350J0D01*
G03X87559Y-39377I-523J-962D01*
G03Y-41567I0J-1095D01*
G03X88083Y-41434I1J1095D01*
G02X88600Y-41741I167J-307D01*
G01Y-46218D01*
G02X88032Y-46492I-350J0D01*
G03X87351Y-46254I-682J-857D01*
G03Y-48444I0J-1095D01*
G03X88032Y-48206I-1J1095D01*
G02X88600Y-48480I218J-274D01*
G01Y-52977D01*
G02X88189Y-53322I-350J0D01*
G03X88000Y-53305I-192J-1078D01*
G03X86905Y-54400I0J-1095D01*
G03X87228Y-55176I1094J0D01*
G02Y-55672I-247J-248D01*
G01X87000Y-55900D01*
X62500D01*
X49800Y-68600D01*
X45982D01*
X45950Y-68465D01*
G03X43818I-1066J-251D01*
G01X43786Y-68600D01*
X40600D01*
X39100Y-67100D01*
Y-64700D01*
X41200Y-62600D01*
X44600D01*
X47685Y-59515D01*
X47799Y-59573D01*
G03X48300Y-59695I502J973D01*
G03X49395Y-58600I0J1095D01*
G03X49273Y-58099I-1095J-1D01*
G01X49215Y-57985D01*
X50125Y-57075D01*
X50193Y-57072D01*
G03X51373Y-55892I-57J1237D01*
G01X51376Y-55824D01*
X57974Y-49226D01*
G02X58531Y-49310I248J-247D01*
G03X59500Y-49895I969J510D01*
G03X60511Y-49220I0J1095D01*
G02X60926Y-49016I323J-134D01*
G03X61148Y-49046I224J822D01*
G01X76306D01*
G03X76743Y-48925I-1J852D01*
G01X76784Y-48900D01*
X77200D01*
X79485Y-46615D01*
X79583Y-46643D01*
G03X79882Y-46685I300J1053D01*
G03X80977Y-45590I0J1095D01*
G03X80935Y-45291I-1095J-1D01*
G01X80907Y-45193D01*
X81050Y-45050D01*
Y-39050D01*
X83900Y-36200D01*
Y-34900D01*
X86800Y-32000D01*
Y-31000D01*
X87200Y-30600D01*
Y-29200D01*
X87627Y-28773D01*
X87688Y-28765D01*
G03X88282Y-28500I-129J1087D01*
G37*
G36*
G01X91223Y-2100D02*
X91573D01*
X91596Y-2249D01*
G03X92678Y-3180I1081J163D01*
G03X93456Y-2855I0J1094D01*
G02X93953Y-2853I249J-245D01*
G01X96800Y-5700D01*
Y-9308D01*
X96786Y-9341D01*
G03X96702Y-9763I1010J-420D01*
G03X96786Y-10186I1094J-3D01*
G01X96800Y-10218D01*
Y-11868D01*
X96786Y-11900D01*
G03X96702Y-12323I1010J-420D01*
G03X96786Y-12745I1094J-2D01*
G01X96800Y-12778D01*
Y-14426D01*
X96786Y-14459D01*
G03X96730Y-14632I1009J-422D01*
G01X96719Y-14681D01*
X96487Y-14913D01*
X96324Y-14750D01*
X96314Y-14695D01*
G03X95237Y-13788I-1078J-187D01*
G03X94143Y-14882I0J-1094D01*
G03X95050Y-15959I1094J1D01*
G01X95105Y-15969D01*
X95268Y-16132D01*
X95036Y-16364D01*
X94987Y-16376D01*
G03X94172Y-17191I250J-1065D01*
G01X94160Y-17240D01*
X93928Y-17472D01*
X93765Y-17309D01*
X93755Y-17254D01*
G03X92678Y-16347I-1078J-187D01*
G03X91584Y-17441I0J-1094D01*
G03X92262Y-18452I1094J1D01*
G02X92376Y-19024I-133J-324D01*
G01X90700Y-20700D01*
Y-23693D01*
G02X90294Y-24039I-350J0D01*
G03X90118Y-24025I-174J-1080D01*
G03X89025Y-25118I1J-1094D01*
G03X89371Y-25917I1094J-1D01*
G02X89380Y-26420I-239J-256D01*
G01X88861Y-26939D01*
G02X88358Y-26930I-247J248D01*
G03X87559Y-26584I-798J-748D01*
G03X86466Y-27678I1J-1094D01*
G03X86812Y-28476I1094J0D01*
G02X86820Y-28980I-239J-256D01*
G01X86300Y-29500D01*
Y-31700D01*
X83500Y-34500D01*
Y-36000D01*
X80200Y-39300D01*
X77500D01*
X76400Y-38200D01*
Y-34700D01*
X78227Y-32873D01*
G02X78816Y-33041I248J-247D01*
G03X79882Y-33889I1066J246D01*
G03Y-31702I0J1093D01*
G03X79828Y-31703I-7J-1094D01*
G01X79751Y-31707D01*
X79572Y-31528D01*
X79772Y-31328D01*
X79848Y-31330D01*
G03X79882I17J1093D01*
G03Y-29143I-1J1094D01*
G03X79790Y-29147I1J-1094D01*
G02X79600Y-28972I-15J175D01*
G01Y-28942D01*
G02X79790Y-28768I175J0D01*
G03X79882Y-28771I82J1091D01*
G03Y-26584I-1J1093D01*
G03X79790Y-26588I1J-1093D01*
G02X79600Y-26413I-15J175D01*
G01Y-26383D01*
G02X79790Y-26208I175J0D01*
G03X79882Y-26212I93J1089D01*
G03Y-24025I-1J1094D01*
G03X79790Y-24028I-10J-1094D01*
G02X79600Y-23854I-15J174D01*
G01Y-23824D01*
G02X79790Y-23649I175J0D01*
G03X79882Y-23653I93J1090D01*
G03X80975Y-22559I-1J1094D01*
G03X79933Y-21467I-1094J0D01*
G02X79600Y-21117I17J350D01*
G01Y-20700D01*
X81901Y-18399D01*
X82010Y-18446D01*
G03X82441Y-18534I430J1006D01*
G03Y-16347I0J1094D01*
G03X82298Y-16356I-3J-1094D01*
G01X82286Y-16358D01*
X82100D01*
Y-15964D01*
X82286D01*
X82298Y-15966D01*
G03X82441Y-15975I140J1085D01*
G03X83534Y-14882I-1J1094D01*
G03X82448Y-13788I-1094J0D01*
G02X82100Y-13438I2J350D01*
G01Y-11207D01*
G02X82448Y-10857I350J0D01*
G03X83534Y-9763I-8J1094D01*
G03X82441Y-8670I-1094J-1D01*
G03X82298Y-8679I-3J-1094D01*
G01X82286Y-8680D01*
X82100D01*
Y-8288D01*
X82286D01*
X82298Y-8289D01*
G03X82441Y-8298I140J1085D01*
G03Y-6111I0J1094D01*
G03X82298Y-6120I-3J-1094D01*
G01X82286Y-6122D01*
X82100D01*
Y-5729D01*
X82286D01*
X82298Y-5730D01*
G03X82441Y-5740I148J1084D01*
G03X83535Y-4646I0J1094D01*
G03X83490Y-4338I-1094J-3D01*
G01X83461Y-4239D01*
X85600Y-2100D01*
X89014D01*
X89037Y-2249D01*
G03X91200I1082J162D01*
G01X91223Y-2100D01*
G37*
%LPC*%
G75*
G36*
G01X179950Y-71409D02*
G03X179878Y-70901I-272J221D01*
G02X179405Y-70000I622J901D01*
G02X181595I1095J0D01*
G02X181350Y-70691I-1095J-1D01*
G03X181422Y-71199I272J-221D01*
G02X181895Y-72100I-622J-901D01*
G02X179705I-1095J0D01*
G02X179950Y-71409I1095J1D01*
G37*
G36*
G01X-55690Y2078D02*
G03X-56216I-263J-231D01*
G02X-57039Y1705I-823J721D01*
G02Y3895I0J1095D01*
G02X-56216Y3522I0J-1094D01*
G03X-55690I263J231D01*
G02X-54867Y3895I823J-721D01*
G02Y1705I0J-1095D01*
G02X-55690Y2078I0J1094D01*
G37*
G36*
G01X1348Y18596D02*
G03Y19104I-241J254D01*
G02X1005Y19900I752J796D01*
G02X3195I1095J0D01*
G02X2852Y19104I-1095J0D01*
G03Y18596I241J-254D01*
G02X3195Y17800I-752J-796D01*
G02X2890Y17042I-1094J0D01*
G03Y16558I253J-242D01*
G02X3195Y15800I-789J-758D01*
G02X1005I-1095J0D01*
G02X1310Y16558I1094J0D01*
G03Y17042I-253J242D01*
G02X1005Y17800I789J758D01*
G02X1348Y18596I1095J0D01*
G37*
G36*
G01X130281Y-82487D02*
G02X129300Y-83095I-981J487D01*
G02Y-80905I0J1095D01*
G02X129983Y-81145I-1J-1095D01*
G03X130515Y-81027I218J274D01*
G02X131496Y-80419I981J-487D01*
G02Y-82609I0J-1095D01*
G02X130813Y-82369I1J1095D01*
G03X130281Y-82487I-218J-274D01*
G37*
G36*
G01X8648Y-82656D02*
G02X11417Y-79908I2769J-21D01*
G02Y-85446I0J-2769D01*
G02X9098Y-84190I0J2769D01*
G03X8481Y-84249I-293J-191D01*
G02X7467Y-84930I-1014J414D01*
G02Y-82740I0J1095D01*
G02X8097Y-82939I0J-1095D01*
G03X8648Y-82656I201J286D01*
G37*
G36*
G01X8654Y-68984D02*
G02X8205Y-68100I646J884D01*
G02X10395I1095J0D01*
G02X9870Y-69035I-1095J0D01*
G03X9846Y-69616I183J-299D01*
G02X10295Y-70500I-646J-884D01*
G02X8105I-1095J0D01*
G02X8630Y-69565I1095J0D01*
G03X8654Y-68984I-183J299D01*
G37*
G36*
G01X101637Y-59095D02*
G02X101619Y-58900I1077J198D01*
G02X102714Y-59995I1095J0D01*
G02X102644Y-59993I-4J1095D01*
G03X102277Y-60405I-23J-349D01*
G02X102295Y-60600I-1077J-198D01*
G02X101200Y-59505I-1095J0D01*
G02X101270Y-59507I4J-1095D01*
G03X101637Y-59095I23J349D01*
G37*
G36*
G01X-40175Y-59860D02*
G02X-40995Y-58800I275J1060D01*
G02X-38805I1095J0D01*
G02X-38943Y-59332I-1094J0D01*
G03X-38725Y-59840I306J-169D01*
G02X-37905Y-60900I-275J-1060D01*
G02X-40095I-1095J0D01*
G02X-39957Y-60368I1094J0D01*
G03X-40175Y-59860I-306J169D01*
G37*
G36*
G01X-47213Y-57661D02*
G02X-48000Y-57995I-787J760D01*
G02Y-55805I0J1095D01*
G02X-47044Y-56366I0J-1095D01*
G03X-46487Y-56439I306J171D01*
G02X-45700Y-56105I787J-760D01*
G02X-44605Y-57200I0J-1095D01*
G02X-44613Y-57332I-1095J0D01*
G03X-44322Y-57720I348J-42D01*
G02X-43405Y-58800I-177J-1080D01*
G02X-45595I-1095J0D01*
G02X-45587Y-58668I1095J0D01*
G03X-45878Y-58280I-348J42D01*
G02X-46656Y-57734I178J1080D01*
G03X-47213Y-57661I-306J-171D01*
G37*
G36*
G01X29320Y-47378D02*
G02X29305Y-47200I1080J181D01*
G02X30400Y-48295I1095J0D01*
G02X30041Y-48234I1J1095D01*
G03X29580Y-48622I-115J-331D01*
G02X29595Y-48800I-1080J-181D01*
G02X28500Y-47705I-1095J0D01*
G02X28859Y-47766I-1J-1095D01*
G03X29320Y-47378I115J331D01*
G37*
G36*
G01X-32379Y-47670D02*
G02X-32695Y-46900I780J770D01*
G02X-30505I1095J0D01*
G02X-30973Y-47797I-1094J0D01*
G03X-31021Y-48330I201J-287D01*
G02X-30705Y-49100I-780J-770D01*
G02X-32895I-1095J0D01*
G02X-32427Y-48203I1094J0D01*
G03X-32379Y-47670I-201J287D01*
G37*
G36*
G01X-50778Y4505D02*
G02X-50795Y4700I1078J192D01*
G02X-49700Y3605I1095J0D01*
G02X-49759Y3607I8J1095D01*
G03X-50122Y3195I-19J-349D01*
G02X-50105Y3000I-1078J-192D01*
G02X-51200Y4095I-1095J0D01*
G02X-51141Y4093I-8J-1095D01*
G03X-50778Y4505I19J349D01*
G37*
G36*
G01X-29465Y31454D02*
G02X-28400Y32295I1065J-254D01*
G02Y30105I0J-1095D01*
G02X-29078Y30340I0J1096D01*
G03X-29635Y30146I-217J-275D01*
G02X-30219Y29416I-1065J254D01*
G03X-30292Y28835I154J-314D01*
G02X-29905Y28000I-707J-835D01*
G02X-32095I-1095J0D01*
G02X-31481Y28984I1095J0D01*
G03X-31408Y29565I-154J314D01*
G02X-31795Y30400I707J835D01*
G02X-30700Y31495I1095J0D01*
G02X-30022Y31260I0J-1096D01*
G03X-29465Y31454I217J275D01*
G37*
G36*
G01X-5601Y32544D02*
G02X-4692Y33029I909J-609D01*
G02X-3745Y32483I0J-1094D01*
G03X-3139I303J176D01*
G02X-2192Y33029I947J-548D01*
G02Y30839I0J-1095D01*
G02X-3139Y31385I0J1094D01*
G03X-3745I-303J-176D01*
G02X-4692Y30839I-947J548D01*
G02X-5601Y31324I0J1094D01*
G03X-6183I-291J-195D01*
G02X-7092Y30839I-909J609D01*
G02Y33029I0J1095D01*
G02X-6183Y32544I0J-1094D01*
G03X-5601I291J195D01*
G37*
G36*
G01Y35544D02*
G02X-4692Y36029I909J-609D01*
G02X-3745Y35483I0J-1094D01*
G03X-3139I303J176D01*
G02X-2192Y36029I947J-548D01*
G02Y33839I0J-1095D01*
G02X-3139Y34385I0J1094D01*
G03X-3745I-303J-176D01*
G02X-4692Y33839I-947J548D01*
G02X-5601Y34324I0J1094D01*
G03X-6183I-291J-195D01*
G02X-7092Y33839I-909J609D01*
G02Y36029I0J1095D01*
G02X-6183Y35544I0J-1094D01*
G03X-5601I291J195D01*
G37*
G36*
G01X15462Y-30586D02*
G02X14505Y-29500I138J1086D01*
G02X16695I1095J0D01*
G02X16572Y-30005I-1095J-1D01*
G03X16838Y-30514I310J-162D01*
G02X17795Y-31600I-138J-1086D01*
G02X15605I-1095J0D01*
G02X15728Y-31095I1095J1D01*
G03X15462Y-30586I-310J162D01*
G37*
G36*
G01X23266Y-30216D02*
G02X22300Y-30795I-966J516D01*
G02Y-28605I0J1095D01*
G02X23163Y-29027I-1J-1095D01*
G03X23748Y-28976I276J215D01*
G02X24714Y-28397I966J-516D01*
G02Y-30587I0J-1095D01*
G02X23851Y-30165I1J1095D01*
G03X23266Y-30216I-276J-215D01*
G37*
G36*
G01X47551Y-25078D02*
G03X48077I263J231D01*
G02X48900Y-24705I823J-721D01*
G02Y-26895I0J-1095D01*
G02X48077Y-26522I0J1094D01*
G03X47551I-263J-231D01*
G02X46728Y-26895I-823J721D01*
G02X45808Y-26394I0J1095D01*
G03X45220I-294J-190D01*
G02X44300Y-26895I-920J594D01*
G02Y-24705I0J1095D01*
G02X45220Y-25206I0J-1095D01*
G03X45808I294J190D01*
G02X46728Y-24705I920J-594D01*
G02X47551Y-25078I0J-1094D01*
G37*
G36*
G01X33554Y-22997D02*
G02X33027Y-22061I568J936D01*
G02X35217I1095J0D01*
G02X34976Y-22746I-1094J0D01*
G03X35068Y-23264I273J-219D01*
G02X35334Y-23490I-567J-937D01*
G03X35866I266J227D01*
G02X36700Y-23105I834J-711D01*
G02Y-25295I0J-1095D01*
G02X35866Y-24910I0J1096D01*
G03X35334I-266J-227D01*
G02X34500Y-25295I-834J711D01*
G02X33405Y-24200I0J1095D01*
G02X33646Y-23515I1094J0D01*
G03X33554Y-22997I-273J219D01*
G37*
G36*
G01X-19557Y8614D02*
G02X-18469Y9582I1088J-127D01*
G02Y7392I0J-1095D01*
G02X-18849Y7460I0J1096D01*
G03X-19318Y7172I-121J-328D01*
G02X-20406Y6204I-1088J127D01*
G02Y8394I0J1095D01*
G02X-20026Y8326I0J-1096D01*
G03X-19557Y8614I121J328D01*
G37*
G36*
G01X-25052Y15976D02*
G02X-25132Y16386I1015J411D01*
G02X-24037Y15291I1095J0D01*
G01X-24055D01*
G03X-24385Y14810I-5J-350D01*
G02X-24305Y14400I-1015J-411D01*
G02X-25400Y15495I-1095J0D01*
G01X-25382D01*
G03X-25052Y15976I5J350D01*
G37*
G36*
G01X131672Y-2948D02*
X132310Y-2310D01*
G02X132700Y-2148I391J-390D01*
G01X139600D01*
G02X139990Y-2310I-1J-552D01*
G01X141578Y-3898D01*
X144011D01*
G02X144401Y-4060I-1J-552D01*
G01X145089Y-4748D01*
X150201D01*
X150789Y-4160D01*
G02X151083Y-4007I390J-390D01*
G02X151262Y-3919I329J-443D01*
G01X151271Y-3910D01*
G02X151661Y-3748I391J-390D01*
G01X152742D01*
X152790Y-3651D01*
G02X153900Y-2962I1110J-550D01*
G02Y-5438I0J-1238D01*
G02X153540Y-5384I2J1238D01*
G03X153090Y-5759I-102J-335D01*
G02X153098Y-5900I-1230J-141D01*
G02X151860Y-7138I-1238J0D01*
G02X150860Y-6630I0J1238D01*
G01X144578D01*
G02X144188Y-6468I1J552D01*
G01X143472Y-5752D01*
X141000D01*
G02X140610Y-5590I1J552D01*
G01X139050Y-4030D01*
X138725D01*
G03X138601Y-4328I0J-175D01*
G02X138922Y-5103I-775J-775D01*
G02X136732I-1095J0D01*
G02X136879Y-4555I1095J0D01*
G03X136576Y-4030I-303J175D01*
G01X133350D01*
X132054Y-5326D01*
G02X131664Y-5488I-391J390D01*
G01X129405D01*
G02X129015Y-5326I1J552D01*
G01X127741Y-4052D01*
X126454D01*
G02X125401Y-4639I-1053J651D01*
G02Y-2163I0J1238D01*
G02X126510Y-2851I0J-1238D01*
G01X126558Y-2948D01*
X127969D01*
G02X128359Y-3110I-1J-552D01*
G01X128634Y-3385D01*
X128791Y-3228D01*
X128803Y-3183D01*
G02X130000Y-2262I1197J-317D01*
G02X131108Y-2948I0J-1238D01*
G01X131672D01*
G37*
G36*
G01X122448Y-11428D02*
X121778Y-10758D01*
X121678Y-10787D01*
G02X121328Y-10838I-352J1187D01*
G02X122566Y-9600I0J1238D01*
G02X122541Y-9849I-1238J-1D01*
G01X122522Y-9942D01*
X123066Y-10486D01*
X123907D01*
G03X124236Y-10019I0J350D01*
G02X124164Y-9602I1166J416D01*
G02X125402Y-8364I1238J0D01*
G02X126453Y-8948I0J-1238D01*
G01X138239D01*
G02X138629Y-9110I-1J-552D01*
G01X140403Y-10884D01*
X150721D01*
X150831Y-10774D01*
G02X151221Y-10612I391J-390D01*
G01X152653D01*
X152675Y-10463D01*
G02X153900Y-9404I1225J-179D01*
G02Y-11880I0J-1238D01*
G02X153320Y-11736I0J1238D01*
G01X153282Y-11716D01*
X153075D01*
G03X152924Y-11978I0J-175D01*
G02X153091Y-12600I-1071J-621D01*
G02X151853Y-13838I-1238J0D01*
G02X150649Y-12886I0J1237D01*
G01X150617Y-12752D01*
X139901D01*
G02X139687Y-12708I2J552D01*
G02X139474Y-12576I176J522D01*
G01X137700Y-10802D01*
X127013D01*
X126387Y-11428D01*
G02X125997Y-11590I-391J390D01*
G01X122838D01*
G02X122448Y-11428I1J552D01*
G37*
G36*
G01X131711Y3952D02*
X134649Y6890D01*
G02X135039Y7052I391J-390D01*
G01X140800D01*
G02X141190Y6890I-1J-552D01*
G01X145928Y2152D01*
X150071D01*
X151209Y3290D01*
G02X151599Y3452I391J-390D01*
G01X153200D01*
G02X153491Y3368I-2J-552D01*
G02X153900Y3438I410J-1168D01*
G02Y962I0J-1238D01*
G02X153477Y1036I-1J1238D01*
G03X153018Y791I-119J-329D01*
G02X151815Y-153I-1203J295D01*
G02X150859Y298I0J1239D01*
G01X145389D01*
G02X144999Y460I1J552D01*
G01X140261Y5198D01*
X135578D01*
X131890Y1510D01*
G02X131717Y1393I-390J390D01*
G02X130514Y446I-1203J291D01*
G02X129301Y1437I0J1238D01*
G01X129290Y1489D01*
X129129Y1649D01*
X128890Y1410D01*
G02X128500Y1248I-391J390D01*
G01X126456D01*
G02X125406Y666I-1050J656D01*
G02Y3142I0J1238D01*
G02X126517Y2449I0J-1237D01*
G01X126565Y2352D01*
X128272D01*
X129710Y3790D01*
G02X130100Y3952I391J-390D01*
G01X131711D01*
G37*
G36*
G01X136012Y-11202D02*
X137113D01*
G02X137503Y-11363I1J-551D01*
G01X140288Y-14148D01*
X147273D01*
X147711Y-13710D01*
G02X148101Y-13548I391J-390D01*
G01X149499D01*
G02X149889Y-13710I-1J-552D01*
G01X150527Y-14348D01*
X152993D01*
X153381Y-13960D01*
X153377Y-13883D01*
G02X153376Y-13828I1237J50D01*
G02X154614Y-15066I1238J0D01*
G02X154105Y-14956I1J1238D01*
G01X153994Y-14907D01*
X153611Y-15290D01*
G02X153221Y-15452I-391J390D01*
G01X150141D01*
X150138Y-15623D01*
G02X148900Y-16838I-1238J23D01*
G02X147770Y-16105I0J1238D01*
G01X147723Y-16002D01*
X130550D01*
G02X130160Y-15840I1J552D01*
G01X129966Y-15646D01*
X125794D01*
G02X125404Y-15484I1J552D01*
G01X125072Y-15152D01*
X124901D01*
X124851Y-15199D01*
G02X124000Y-15538I-851J899D01*
G02X123223Y-15263I1J1238D01*
G03X122709Y-15346I-220J-273D01*
G02X121669Y-15912I-1040J672D01*
G02Y-13436I0J1238D01*
G02X121788Y-13442I-3J-1238D01*
G01X121870Y-13450D01*
X122846Y-12474D01*
G02X123236Y-12312I391J-390D01*
G01X125978D01*
X126174Y-12116D01*
G02X126564Y-11954I391J-390D01*
G01X128106D01*
G02X128496Y-12116I-1J-552D01*
G01X128728Y-12348D01*
X134272D01*
X135256Y-11364D01*
G02X135646Y-11202I391J-390D01*
G01X136012D01*
G37*
G36*
G01X153710Y-16037D02*
G03X153925Y-16034I106J139D01*
G02X154700Y-15762I774J-966D01*
G02Y-18238I0J-1238D01*
G02X153848Y-17898I0J1238D01*
G03X153261Y-18099I-241J-254D01*
G02X152037Y-19149I-1224J188D01*
G02X151623Y-19078I-1J1238D01*
G02X151348Y-19152I-276J478D01*
G01X146399D01*
G02X146009Y-18990I1J552D01*
G01X145377Y-18358D01*
X129645D01*
G02X129255Y-18196I1J552D01*
G01X129011Y-17952D01*
X125028D01*
X123420Y-19560D01*
X123459Y-19666D01*
G02X123538Y-20100I-1159J-435D01*
G02X122300Y-18862I-1238J0D01*
G02X122453Y-18872I-4J-1238D01*
G01X122538Y-18882D01*
X122821Y-18599D01*
G03X122574Y-18002I-247J247D01*
G01X120558D01*
G02X119450Y-18688I-1108J552D01*
G02Y-16212I0J1238D01*
G02X120558Y-16898I0J-1238D01*
G01X123461D01*
X124099Y-16260D01*
G02X124489Y-16098I391J-390D01*
G01X129550D01*
G02X129940Y-16260I-1J-552D01*
G01X130184Y-16504D01*
X145956D01*
G02X146346Y-16666I-1J-552D01*
G01X146978Y-17298D01*
X149822D01*
X151010Y-16110D01*
G02X151139Y-16014I390J-390D01*
G02X151442Y-15924I302J-461D01*
G01X153375D01*
G02X153710Y-16037I1J-551D01*
G37*
G36*
G01X125464Y-18554D02*
X126980D01*
G02X127006Y-18553I34J-552D01*
G02X127397Y-18715I0J-553D01*
G01X127436Y-18754D01*
X144606D01*
G02X144996Y-18916I-1J-552D01*
G01X145017Y-18937D01*
X145025Y-18943D01*
G02X145073Y-18986I-343J-432D01*
G01X145635Y-19548D01*
X152740D01*
G02X153756Y-19018I1016J-709D01*
G02Y-21494I0J-1238D01*
G02X152623Y-20756I0J1239D01*
G01X152577Y-20652D01*
X145407D01*
G02X145017Y-20490I1J552D01*
G01X144385Y-19858D01*
X137990D01*
G03X137654Y-20303I1J-350D01*
G02X137695Y-20600I-1055J-297D01*
G02X137653Y-20902I-1095J-2D01*
G03X137989Y-21348I336J-96D01*
G01X143144D01*
G02X143533Y-21509I-1J-552D01*
G01X143721Y-21696D01*
X149229D01*
G02X150297Y-21084I1068J-626D01*
G02Y-23560I0J-1238D01*
G02X149199Y-22894I0J1238D01*
G01X149150Y-22800D01*
X143493D01*
G02X143104Y-22639I1J552D01*
G01X142916Y-22452D01*
X130490D01*
G02X130464Y-22453I-34J552D01*
G02X130073Y-22291I0J553D01*
G01X130028Y-22246D01*
X125534D01*
X123239Y-24541D01*
X123238Y-24613D01*
G02X122000Y-25838I-1238J13D01*
G02X120889Y-25147I0J1239D01*
G03X120433Y-24982I-314J-155D01*
G02X119930Y-25089I-503J1131D01*
G01X119929D01*
G02Y-22613I0J1238D01*
G02X120605Y-22814I0J-1237D01*
G01X120645Y-22773D01*
G02X121036Y-22611I391J-391D01*
G02X121062Y-22612I-8J-553D01*
G01X122408D01*
X124154Y-20866D01*
Y-19864D01*
G02X124316Y-19474I552J-1D01*
G01X125074Y-18716D01*
G02X125464Y-18554I391J-390D01*
G37*
G36*
G01X49473Y11293D02*
G03X48947I-263J-231D01*
G02X48124Y10920I-823J721D01*
G02Y13110I0J1095D01*
G02X48947Y12737I0J-1094D01*
G03X49473I263J231D01*
G02X50296Y13110I823J-721D01*
G02Y10920I0J-1095D01*
G02X49473Y11293I0J1094D01*
G37*
G36*
G01X142849Y21078D02*
G03X142323I-263J-231D01*
G02X141500Y20705I-823J721D01*
G02Y22895I0J1095D01*
G02X142323Y22522I0J-1094D01*
G03X142849I263J231D01*
G02X143672Y22895I823J-721D01*
G02Y20705I0J-1095D01*
G02X142849Y21078I0J1094D01*
G37*
G36*
G01X133338Y21578D02*
G03X132812I-263J-231D01*
G02X131989Y21205I-823J721D01*
G02Y23395I0J1095D01*
G02X132812Y23022I0J-1094D01*
G03X133338I263J231D01*
G02X134161Y23395I823J-721D01*
G02Y21205I0J-1095D01*
G02X133338Y21578I0J1094D01*
G37*
G36*
G01X160636Y26393D02*
G03X160175Y26238I-150J-316D01*
G02X159203Y25648I-972J506D01*
G02Y27838I0J1095D01*
G02X159673Y27732I0J-1095D01*
G03X160134Y27887I150J316D01*
G02X161106Y28477I972J-506D01*
G02Y26287I0J-1095D01*
G02X160636Y26393I0J1095D01*
G37*
G36*
G01X60634Y27010D02*
G03X60699Y27478I-223J270D01*
G02X60505Y28100I900J622D01*
G02X62695I1095J0D01*
G02X62300Y27258I-1095J0D01*
G03X62235Y26790I223J-270D01*
G02X62429Y26168I-900J-622D01*
G02X60239I-1095J0D01*
G02X60634Y27010I1095J0D01*
G37*
G36*
G01X118645Y-45794D02*
G02X117605Y-44700I55J1094D01*
G02X119795I1095J0D01*
G01Y-44701D01*
G02X119750Y-45011I-1095J1D01*
G03X120068Y-45460I335J-100D01*
G02X121108Y-46554I-55J-1094D01*
G02X118918I-1095J0D01*
G01Y-46553D01*
G02X118963Y-46243I1095J-1D01*
G03X118645Y-45794I-335J100D01*
G37*
G36*
G01X151323Y-42622D02*
G02X150905Y-41762I676J860D01*
G02X153095I1095J0D01*
G02X152677Y-42622I-1094J0D01*
G03Y-43173I217J-276D01*
G02X153095Y-44033I-676J-860D01*
G02X150905I-1095J0D01*
G02X151323Y-43173I1094J0D01*
G03Y-42622I-217J275D01*
G37*
G36*
G01X153823Y-31461D02*
G02X153405Y-30600I678J861D01*
G02X155595I1095J0D01*
G02X155177Y-31461I-1096J0D01*
G03Y-32011I216J-275D01*
G02X155511Y-32452I-678J-860D01*
G03X156041Y-32601I324J134D01*
G02X156686Y-32391I645J-886D01*
G02Y-34581I0J-1095D01*
G02X155675Y-33906I0J1095D01*
G03X155145Y-33757I-324J-134D01*
G02X154500Y-33967I-645J886D01*
G02X153405Y-32872I0J1095D01*
G02X153823Y-32011I1096J0D01*
G03Y-31461I-216J275D01*
G37*
G36*
G01X142327Y-26264D02*
G03X141994Y-26744I-8J-350D01*
G02X142072Y-27149I-1017J-406D01*
G02X140977Y-26054I-1095J0D01*
G02X141045Y-26056I2J-1095D01*
G03X141315Y-25459I23J349D01*
G01X140582Y-24726D01*
X134118D01*
X132776Y-26068D01*
Y-27649D01*
G02X132622Y-28021I-526J0D01*
G01X131660Y-28983D01*
G02X131288Y-29138I-373J372D01*
G01X130103D01*
G02X129730Y-28983I0J526D01*
G01X128904Y-28156D01*
G02X128750Y-27784I372J372D01*
G01Y-26428D01*
G02X128905Y-26056I527J-1D01*
G01X129842Y-25118D01*
X129739Y-24995D01*
G02X129450Y-24200I949J795D01*
G02X130688Y-22962I1238J0D01*
G02X131843Y-23755I0J-1238D01*
G03X132417Y-23877I327J126D01*
G01X133217Y-23078D01*
G02X133589Y-22924I372J-372D01*
G01X141111D01*
G02X141483Y-23078I0J-526D01*
G01X142867Y-24462D01*
X150577D01*
X150947Y-24092D01*
G02X151289Y-23938I373J-372D01*
G02X152410Y-23226I1121J-526D01*
G02X153648Y-24464I0J-1238D01*
G02X153275Y-25349I-1236J0D01*
G03Y-25850I245J-251D01*
G02X153648Y-26735I-863J-885D01*
G02X152410Y-27973I-1238J0D01*
G02X151289Y-27261I0J1238D01*
G02X150947Y-27107I31J526D01*
G01X150104Y-26264D01*
X142327D01*
G37*
G36*
G01X97654Y-18439D02*
G02X97488Y-17859I930J580D01*
G02X99678I1095J0D01*
G02X98915Y-18903I-1096J0D01*
G03X98724Y-19421I106J-333D01*
G02X98890Y-20001I-930J-580D01*
G02X96700I-1095J0D01*
G02X97463Y-18957I1096J0D01*
G03X97654Y-18439I-106J333D01*
G37*
G36*
G01X91327Y9747D02*
G02X90919Y10600I688J853D01*
G02X93109I1095J0D01*
G02X92701Y9747I-1096J0D01*
G03Y9203I220J-272D01*
G02X93109Y8350I-688J-853D01*
G02X90919I-1095J0D01*
G02X91327Y9203I1096J0D01*
G03Y9747I-220J272D01*
G37*
G36*
G01X106951Y25597D02*
G02X106917Y25866I1061J271D01*
G02X108012Y24771I1095J0D01*
G02X107776Y24797I1J1095D01*
G03X107361Y24369I-76J-342D01*
G02X107395Y24100I-1061J-271D01*
G02X106300Y25195I-1095J0D01*
G02X106536Y25169I-1J-1095D01*
G03X106951Y25597I76J342D01*
G37*
G36*
G01X128926Y14688D02*
X130628Y16390D01*
G02X131018Y16552I391J-390D01*
G01X147082D01*
G02X147472Y16390I-1J-552D01*
G01X148610Y15252D01*
X151038D01*
X151084Y15284D01*
G02X151405Y15388I322J-448D01*
G01X152719D01*
X152764Y15493D01*
G02X153900Y16238I1136J-494D01*
G02Y13762I0J-1238D01*
G02X153656Y13786I-1J1238D01*
G03X153238Y13434I-68J-343D01*
G01Y13400D01*
G02X152000Y12162I-1238J0D01*
G02X150778Y13202I0J1238D01*
G01X150754Y13348D01*
X148000D01*
G02X147610Y13510I1J552D01*
G01X146472Y14648D01*
X131628D01*
X129890Y12910D01*
G02X129500Y12748I-391J390D01*
G01X124128D01*
X122640Y11260D01*
G02X122250Y11098I-391J390D01*
G01X121378D01*
X121190Y10910D01*
G02X120800Y10748I-391J390D01*
G01X116636D01*
X116604Y10614D01*
G02X115400Y9662I-1204J285D01*
G02Y12138I0J1238D01*
G02X116192Y11852I1J-1238D01*
G01X120572D01*
X120833Y12113D01*
X120713Y12237D01*
G02X120362Y13100I887J864D01*
G02X121600Y14338I1238J0D01*
G02X121901Y14301I1J-1238D01*
G01X121997Y14277D01*
X122246Y14526D01*
G02X122636Y14688I391J-390D01*
G01X128926D01*
G37*
G36*
G01X129360Y18840D02*
G02X129750Y19002I391J-390D01*
G01X150592D01*
G02X151700Y19688I1108J-552D01*
G02Y17212I0J-1238D01*
G02X151338Y17266I0J1238D01*
G03X150886Y16950I-102J-335D01*
G02X149650Y15776I-1236J64D01*
G02X148413Y16979I0J1237D01*
G01X148408Y17148D01*
X130428D01*
X128690Y15410D01*
G02X128300Y15248I-391J390D01*
G01X121054D01*
X119794Y13988D01*
X119818Y13892D01*
G02X119855Y13591I-1201J-300D01*
G02X118617Y12353I-1238J0D01*
G02X117706Y12752I-1J1238D01*
G03X117229Y12788I-258J-237D01*
G02X116450Y12512I-779J961D01*
G02Y14988I0J1238D01*
G02X116751Y14951I1J-1238D01*
G01X116847Y14927D01*
X118910Y16990D01*
G02X119300Y17152I391J-390D01*
G01X127672D01*
X129360Y18840D01*
G37*
G36*
G01X130099Y9252D02*
X132287Y11440D01*
G02X132677Y11602I391J-390D01*
G01X143823D01*
G02X144213Y11440I-1J-552D01*
G01X147201Y8452D01*
X150441D01*
X150815Y8826D01*
G02X151205Y8988I391J-390D01*
G01X152719D01*
X152764Y9093D01*
G02X153900Y9838I1136J-494D01*
G02Y7362I0J-1238D01*
G02X153498Y7429I0J1238D01*
G03X153036Y7076I-113J-331D01*
G02X153038Y7000I-1236J-71D01*
G02X151800Y5762I-1238J0D01*
G02X150692Y6448I0J1238D01*
G01X146600D01*
G02X146210Y6610I1J552D01*
G01X143072Y9748D01*
X133216D01*
X130342Y6874D01*
G02X129952Y6712I-391J390D01*
G01X125308D01*
G02X124200Y6026I-1108J552D01*
G02Y8502I0J1238D01*
G02X125308Y7816I0J-1238D01*
G01X127205D01*
G03X127534Y8283I0J350D01*
G02X127462Y8700I1166J416D01*
G02X128700Y9938I1238J0D01*
G02X129808Y9252I0J-1238D01*
G01X130099D01*
G37*
G36*
G01X129761Y12202D02*
X131449Y13890D01*
G02X131839Y14052I391J-390D01*
G01X145197D01*
G02X145587Y13890I-1J-552D01*
G01X147525Y11952D01*
X148353D01*
X148409Y12008D01*
G02X148799Y12170I391J-390D01*
G01X150282D01*
G02X150672Y12008I-1J-552D01*
G01X150928Y11752D01*
X153452D01*
X153468Y11909D01*
G02X154700Y13024I1232J-123D01*
G02Y10548I0J-1238D01*
G02X154085Y10712I1J1238D01*
G02X153828Y10648I-258J488D01*
G01X150978D01*
G03X150629Y10273I0J-350D01*
G02X150632Y10182I-1235J-86D01*
G02X149394Y8944I-1238J0D01*
G02X148277Y9648I0J1238D01*
G01X147300D01*
G02X146910Y9810I1J552D01*
G01X144572Y12148D01*
X132328D01*
X130690Y10510D01*
G02X130300Y10348I-391J390D01*
G01X125229D01*
X123891Y9010D01*
G02X123501Y8848I-391J390D01*
G01X122528D01*
X122290Y8610D01*
G02X121900Y8448I-391J390D01*
G01X120359D01*
X118421Y6510D01*
G02X118031Y6348I-391J390D01*
G01X117208D01*
X117170Y6225D01*
G02X115986Y5348I-1184J361D01*
G02Y7824I0J1238D01*
G02X116081Y7820I-5J-1238D01*
G03X116448Y8253I27J349D01*
G02X116412Y8550I1202J296D01*
G02X117650Y9788I1238J0D01*
G02X118468Y9479I0J-1237D01*
G01X118591Y9371D01*
X119410Y10190D01*
G02X119800Y10352I391J-390D01*
G01X121411D01*
X121599Y10540D01*
G02X121989Y10702I391J-390D01*
G01X122882D01*
X124220Y12040D01*
G02X124610Y12202I391J-390D01*
G01X129761D01*
G37*
G36*
G01X133599Y9140D02*
G02X133989Y9302I391J-390D01*
G01X142350D01*
G02X142740Y9140I-1J-552D01*
G01X146778Y5102D01*
X147791D01*
X148315Y5626D01*
G02X148705Y5788I391J-390D01*
G01X149895D01*
G02X150285Y5626I-1J-552D01*
G01X150859Y5052D01*
X152812D01*
G03X153162Y5398I0J350D01*
G02X154400Y6624I1238J-12D01*
G02Y4148I0J-1238D01*
G02X154099Y4185I-1J1238D01*
G01X154003Y4209D01*
X153904Y4110D01*
G02X153514Y3948I-391J390D01*
G01X150541D01*
X150538Y3777D01*
G02X149300Y2562I-1238J23D01*
G02X148192Y3248I0J1238D01*
G01X146200D01*
G02X145810Y3410I1J552D01*
G01X141772Y7448D01*
X134528D01*
X131590Y4510D01*
G02X131200Y4348I-391J390D01*
G01X129015D01*
X128889Y4222D01*
Y4149D01*
G02X126413I-1238J0D01*
G02X126521Y4655I1239J0D01*
G03X126202Y5148I-319J143D01*
G01X126028D01*
X125390Y4510D01*
G02X125000Y4348I-391J390D01*
G01X122700D01*
G02X122310Y4510I1J552D01*
G01X121797Y5023D01*
X121701Y4999D01*
G02X121400Y4962I-300J1201D01*
G02X122638Y6200I0J1238D01*
G02X122601Y5899I-1238J-1D01*
G01X122577Y5803D01*
X122928Y5452D01*
X124772D01*
X125410Y6090D01*
G02X125800Y6252I391J-390D01*
G01X130711D01*
X133599Y9140D01*
G37*
G36*
G01X126179Y-6578D02*
G03X126636Y-6314I114J331D01*
G02X127851Y-5313I1215J-237D01*
G02X129089Y-6527I0J-1238D01*
G01X129092Y-6698D01*
X142910D01*
G02X143300Y-6860I-1J-552D01*
G01X144288Y-7848D01*
X148634D01*
X149058Y-7424D01*
G02X149448Y-7262I391J-390D01*
G01X150638D01*
G02X151028Y-7424I-1J-552D01*
G01X151452Y-7848D01*
X152700D01*
X153075Y-7473D01*
X153080Y-7409D01*
G02X154314Y-6276I1234J-106D01*
G02Y-8752I0J-1238D01*
G02X153701Y-8589I1J1238D01*
G01X153585Y-8523D01*
X153318Y-8790D01*
G02X152928Y-8952I-391J390D01*
G01X151630D01*
G03X151280Y-9290I0J-350D01*
G02X150043Y-10488I-1237J40D01*
G02X148935Y-9802I0J1238D01*
G01X143750D01*
G02X143360Y-9640I1J552D01*
G01X142272Y-8552D01*
X126900D01*
G02X126510Y-8390I1J552D01*
G01X125772Y-7652D01*
X124579D01*
X124543Y-7780D01*
G02X123350Y-8688I-1193J330D01*
G02Y-6212I0J1238D01*
G02X124198Y-6548I0J-1238D01*
G01X126000D01*
G02X126179Y-6578I0J-552D01*
G37*
G36*
G01X131354Y50D02*
X135783Y4479D01*
G02X136173Y4640I389J-390D01*
G01X139527D01*
G02X139917Y4479I1J-551D01*
G01X145544Y-1148D01*
X148272D01*
X148828Y-592D01*
G02X149218Y-430I391J-390D01*
G01X150846D01*
G02X151005Y-454I-2J-552D01*
G02X151318Y-610I-77J-546D01*
G01X151556Y-848D01*
X152664D01*
X152696Y-714D01*
G02X153900Y238I1204J-285D01*
G02Y-2238I0J-1238D01*
G02X153108Y-1952I-1J1238D01*
G01X151835D01*
G03X151486Y-2327I0J-350D01*
G02X151489Y-2418I-1235J-86D01*
G02X150251Y-3656I-1238J0D01*
G02X149170Y-3020I0J1237D01*
G01X144969D01*
G02X144579Y-2859I-1J551D01*
G01X138972Y2748D01*
X136728D01*
X132338Y-1642D01*
G02X131948Y-1804I-391J390D01*
G01X129297D01*
G02X129015Y-1726I1J552D01*
G01X128974Y-1702D01*
X122889D01*
G02X122688Y-1664I0J551D01*
G01X122657Y-1652D01*
X122301D01*
X122251Y-1699D01*
G02X121400Y-2038I-851J899D01*
G02X120219Y-1171I0J1238D01*
G03X119756Y-951I-334J-105D01*
G02X119300Y-1038I-456J1152D01*
G02Y1438I0J1238D01*
G02X119784Y1339I-1J-1238D01*
G02X119900Y1352I119J-539D01*
G01X122000D01*
G02X122390Y1190I-1J-552D01*
G01X123428Y152D01*
X129506D01*
G02X129788Y74I-1J-552D01*
G01X129829Y50D01*
X131354D01*
G37*
G36*
G01X58071Y-55710D02*
G02X57810Y-55000I835J710D01*
G02X60000I1095J0D01*
G02X59241Y-56042I-1095J0D01*
G03X59083Y-56602I108J-333D01*
G02X59344Y-57312I-835J-710D01*
G02X58249Y-58407I-1095J0D01*
G02X57514Y-58124I0J1096D01*
G03X56973Y-58215I-235J-259D01*
G02X56013Y-58782I-960J529D01*
G02Y-56592I0J1095D01*
G02X56748Y-56875I0J-1096D01*
G03X57289Y-56784I235J259D01*
G02X57913Y-56270I959J-529D01*
G03X58071Y-55710I-108J333D01*
G37*
G36*
G01X81068Y-50242D02*
G02X80000Y-51095I-1068J242D01*
G02Y-48905I0J1095D01*
G02X80448Y-49001I0J-1095D01*
G03X80932Y-48758I143J320D01*
G02X82000Y-47905I1068J-242D01*
G02Y-50095I0J-1095D01*
G02X81552Y-49999I0J1095D01*
G03X81068Y-50242I-143J-320D01*
G37*
G54D18*
X-4622Y27630D03*
X-27378D03*
X50378D03*
X27622D03*
G54D19*
X-26841Y-57370D03*
X58801Y-42089D03*
X-53000Y300D03*
X61968Y5590D03*
X67087Y472D03*
X72205Y-2087D03*
Y-4646D03*
X79882D03*
Y-2087D03*
X82441D03*
X87559Y472D03*
X-44441Y-61359D03*
X-26841Y-50283D03*
X67087Y-7205D03*
X57600Y-9389D03*
X67087Y-4646D03*
Y-2087D03*
X64528Y472D03*
X59410Y3032D03*
Y5590D03*
X72205Y-40472D03*
X6630Y-90841D03*
X18841Y-50283D03*
X165000Y-65000D03*
X7800Y-50800D03*
X69646Y-7204D03*
X13000Y-55400D03*
X79882Y472D03*
X-14630Y-90841D03*
X-52954Y-71346D03*
X-11087Y-90841D03*
X-49559Y-74141D03*
X-59242Y-17242D03*
X164465Y-80867D03*
X-59600Y-24000D03*
X-42046Y-64654D03*
X-457Y-90841D03*
X-7543D03*
X-26841Y-68000D03*
X-21717Y-90817D03*
X-26657Y-71543D03*
X-39000Y-77400D03*
X-18173Y-90841D03*
X18841Y-57370D03*
X-34000Y-56900D03*
X3087Y-90841D03*
X159465Y-80867D03*
X74763Y-2086D03*
X88750Y-83050D03*
X92500Y-82500D03*
X21300Y-89900D03*
X25000Y-66200D03*
X-4000Y-90841D03*
X92700Y-61100D03*
X79404Y-61000D03*
X-16900Y26700D03*
X-59000Y-10000D03*
X-23100Y26800D03*
X-49300Y21600D03*
X9400Y-73300D03*
X25314Y-48850D03*
X111700Y-62600D03*
X-45200Y-15300D03*
Y-11200D03*
X24707Y-46084D03*
X73300Y41300D03*
X37400Y2000D03*
X77399Y-58499D03*
X95000Y-65200D03*
X131851Y-68772D03*
X132000Y-64614D03*
X102800Y-62600D03*
X95400Y-82500D03*
X139000Y-66500D03*
X85799Y-96300D03*
X-34900Y-79000D03*
X101349Y-56751D03*
X136132Y-68100D03*
X76200Y-81800D03*
X79150Y-81650D03*
X10900Y-65900D03*
X68504Y35158D03*
X82800Y-83700D03*
X-34600Y-49100D03*
X159265Y-88467D03*
X147000Y-66000D03*
X87402Y35158D03*
X14000Y-67700D03*
X77953Y35158D03*
X54000Y-96500D03*
X126086Y-81900D03*
X56500Y-68700D03*
X101900Y-97500D03*
X125200Y34700D03*
X115700Y38100D03*
X144000Y35063D03*
X131500Y35200D03*
X134646Y35100D03*
X140900D03*
X118900Y36614D03*
X122100Y36300D03*
X93701Y35158D03*
X64300Y42600D03*
X90551Y35158D03*
X84252D03*
X81102D03*
X74803D03*
X71654D03*
X65350Y35400D03*
X62200D03*
X49200Y-2000D03*
X52100Y6000D03*
X59000Y42165D03*
X67472Y-82528D03*
X52100Y2000D03*
X4100Y3200D03*
X16500Y43000D03*
X49486Y4214D03*
X112598Y36586D03*
X1100Y-98774D03*
X9400Y37200D03*
X12900D03*
X154265Y-88467D03*
X149000Y40500D03*
X59055Y35158D03*
X39700Y-4900D03*
X71000Y-62600D03*
X55900Y36100D03*
X68600Y43300D03*
X73400Y-82900D03*
X44700Y-200D03*
X-1150Y26050D03*
X62279Y-75079D03*
X151100Y-69200D03*
X-52100Y-13600D03*
X-35961Y26961D03*
X144094Y-90276D03*
X115748Y-75079D03*
X3961Y42000D03*
X2843Y25543D03*
X177563Y-65963D03*
X144600Y-78200D03*
X90551Y-79251D03*
X46321Y-75079D03*
X74803Y-79303D03*
X106300Y-81800D03*
X160200Y-64100D03*
X89251Y-96414D03*
X49606Y-93894D03*
X95175Y-55951D03*
X-35961Y42000D03*
X25200Y-55700D03*
X-43300Y-49100D03*
X-46500D03*
X-49300D03*
X-40400Y-49000D03*
X-37700Y-49100D03*
X-41900Y-57100D03*
X-37700Y-56900D03*
X-50100Y-59500D03*
X-32900Y-60200D03*
X-35800Y-61600D03*
X-50300Y-45900D03*
X-29903Y41116D03*
X-24903D03*
X-19903D03*
X-14903D03*
X-9903D03*
X-47400Y-46000D03*
X-44200D03*
X-41100D03*
X-4903Y41116D03*
X28400Y-7800D03*
X-37500Y-45900D03*
X-34700Y-46200D03*
X-13700Y-58200D03*
X5900Y-74400D03*
X-44500Y-42900D03*
X-46800Y-36700D03*
X-46500Y-40800D03*
X-63033Y20365D03*
X-63233Y-1335D03*
Y3665D03*
X-63133Y9765D03*
Y14765D03*
X179000Y-63800D03*
X-63233Y-12735D03*
Y-7735D03*
X-50231Y-37706D03*
Y-42706D03*
X-27194Y-39173D03*
X-32194D03*
X-27194Y-44173D03*
X-32194D03*
X-14637Y-62994D03*
X-19637D03*
X-17556Y-59625D03*
X-57579Y-71612D03*
X-62579D03*
X-57579Y-76612D03*
X30500Y4000D03*
X-62579Y-76612D03*
X-63233Y-23535D03*
Y-18535D03*
X-47804Y-78548D03*
X-32733Y-89535D03*
Y-84535D03*
X-21733Y-40235D03*
Y-35235D03*
X7467Y-78835D03*
X159265Y-93667D03*
X154265D03*
X149265D03*
X159265Y-98667D03*
X154265D03*
X149265D03*
X50000Y-96600D03*
X57700Y-96500D03*
X38462Y-81692D03*
X61968Y-22559D03*
X64528D03*
X74763Y-17441D03*
X64528Y-37913D03*
X67087Y-35354D03*
X77322Y-17441D03*
X72205Y-14882D03*
X74763D03*
X77322D03*
X72205Y-12323D03*
X74764Y-32795D03*
X69646Y-20000D03*
X67087Y-25118D03*
X72205Y-22560D03*
X67087Y-30237D03*
X69646Y-25118D03*
Y-30237D03*
X72205D03*
Y-25118D03*
X59213Y-22500D03*
X3453Y-14753D03*
X-3866Y-7208D03*
Y-10208D03*
X3453Y-8847D03*
X-7416Y216D03*
X-12866Y-7208D03*
X-6866Y-13208D03*
X-12866D03*
X-6866Y-10208D03*
X-3866Y-13208D03*
X-12866Y-10208D03*
X-20500Y-14753D03*
X-9866Y-13208D03*
Y-7208D03*
X-6866D03*
X-9866Y-10208D03*
Y-16208D03*
X-6866D03*
X-20500Y-8847D03*
X-3866Y-16208D03*
X-12866D03*
X-27900Y-12000D03*
X-1000Y-26000D03*
X-22600Y14100D03*
X26800Y-36200D03*
X20800Y-38185D03*
X5000Y-16800D03*
X51100Y-16000D03*
Y-19100D03*
X10300Y-40600D03*
X53300Y-26989D03*
X27900Y-24300D03*
X29700Y-21500D03*
X26200D03*
X31186Y-24200D03*
X12900Y-38100D03*
X8000Y-23000D03*
X-27884Y-15400D03*
X-27000Y-8000D03*
X14200Y-16800D03*
X-15900Y3000D03*
X-7000Y6955D03*
X26800Y-16000D03*
X3500Y-38000D03*
X1300Y-40500D03*
X22500Y-26100D03*
X40700Y-24800D03*
X22800Y-23200D03*
X17267Y-18635D03*
X48500Y-19100D03*
X137827Y1197D03*
X149600Y-35024D03*
X140977Y-36598D03*
X144126Y-33449D03*
X135861Y-33950D03*
X148129Y-28371D03*
X144164Y-30336D03*
X137000Y-29500D03*
X136800Y-44472D03*
X137827Y-49197D03*
X140977Y-46047D03*
X144127Y-39747D03*
X140977Y-42897D03*
X140989Y-30311D03*
X105472Y-32795D03*
X95237Y-30237D03*
X102913Y-32795D03*
Y-14882D03*
X97795Y-25118D03*
X102913D03*
X100354D03*
X105472D03*
X167700Y-28599D03*
X162987Y-27113D03*
X159911Y-33411D03*
X167900Y-36600D03*
X156762Y-39786D03*
X154600Y-36900D03*
X163023Y-42897D03*
X166900Y-48200D03*
X100354Y-32795D03*
X111900Y-41752D03*
X110590Y-45590D03*
X106752Y8300D03*
X163035Y-46035D03*
X159836Y-42935D03*
X158299Y-50000D03*
X144126Y-49197D03*
X166173Y1197D03*
Y-5103D03*
X166172Y-11402D03*
X162962Y-23938D03*
X100354Y-20001D03*
X105472Y-14882D03*
X101634Y-11200D03*
X102913Y-7205D03*
X105472D03*
X102913Y-4646D03*
Y-2087D03*
X105472D03*
X108032D03*
X105472Y472D03*
X110590Y3032D03*
X109796Y6166D03*
X159873Y-27149D03*
X100354Y-35354D03*
X102913D03*
X105472Y-37913D03*
X102913D03*
X181500Y-35000D03*
X100354Y-37913D03*
X105472Y-43032D03*
X108032Y-45590D03*
X100354Y-14882D03*
X97795Y-27678D03*
X102913D03*
X100354D03*
X102913Y-20001D03*
X144127Y-46046D03*
X167600Y-45100D03*
X167394Y-39738D03*
X123500Y-53000D03*
X168200Y-14500D03*
X121601Y-27999D03*
X132800Y-37100D03*
X169600Y-25575D03*
X115200Y-22100D03*
X134237Y26437D03*
X159912Y-39710D03*
X181000Y6000D03*
X181500Y-18000D03*
X181000Y0D03*
Y-56000D03*
X181500Y-30000D03*
Y-40000D03*
Y-3000D03*
X97795Y-35355D03*
Y-32796D03*
Y-30237D03*
X181500Y-26000D03*
X181000Y-50000D03*
X181500Y-13000D03*
X181300Y-45000D03*
X52700Y16300D03*
X109614Y10100D03*
X110200Y12600D03*
X125100Y23489D03*
X115600Y24661D03*
X103102Y22096D03*
X122000Y23400D03*
X112700Y24661D03*
X172100Y-19400D03*
X59055Y19961D03*
X166500Y-17700D03*
X74800Y17900D03*
X23800Y27200D03*
X62205Y19961D03*
X92000Y13200D03*
X55900Y18200D03*
X40100Y16900D03*
X168500Y-32006D03*
X58149Y13349D03*
X77294Y26508D03*
X37008Y14800D03*
X24410Y13790D03*
X46400Y17900D03*
X27600Y13500D03*
X30800Y13654D03*
X33858Y14758D03*
X43300Y12600D03*
X144163Y26437D03*
X170300Y13300D03*
X118100Y25400D03*
X21260Y19961D03*
X49606Y18794D03*
X16343Y25543D03*
X137800Y21200D03*
X128346Y23254D03*
X65354Y21246D03*
X58986Y27815D03*
X174630Y9811D03*
X179630D03*
X174630Y14811D03*
X179630D03*
X174630Y19811D03*
X179630D03*
X168088Y21714D03*
X112900Y8700D03*
X90118Y-30237D03*
X85000Y-37913D03*
X90118Y-32795D03*
X63500Y-52900D03*
X87560Y-35354D03*
G54D20*
X153937Y-82677D03*
Y27559D03*
G54D21*
X90118Y-17441D03*
X87559D03*
X82441Y-22559D03*
X92677Y-4646D03*
X90118Y-14882D03*
X92678D03*
X87559D03*
Y-12322D03*
Y-9763D03*
X90118Y-12322D03*
Y-9763D03*
X82441Y-30237D03*
Y-27678D03*
Y-25118D03*
X87559D03*
Y-22559D03*
G54D22*
X82441Y-32795D03*
G54D23*
X87560Y-7205D03*
Y-4646D03*
%LPD*%
G75*
G54D10*
X-55118Y-90551D03*
Y35433D03*
X173228Y-90551D03*
Y35433D03*
G54D11*
X-51600Y-28000D03*
X-38234Y-39992D03*
X-41234D03*
Y-36892D03*
X-38234D03*
X-41234Y-33892D03*
X-38234D03*
X-41866Y10392D03*
X-38866D03*
X-41866Y13392D03*
X-38866D03*
Y16492D03*
X-41866D03*
X-26841Y-78630D03*
X-19000Y-78500D03*
X-22502D03*
X-7000D03*
X-11000D03*
X-15000D03*
X-14300Y-72000D03*
Y-68000D03*
X2000Y-78500D03*
X-2000D03*
X4900Y-98800D03*
X13717Y-90841D03*
X13000Y-64700D03*
X14034Y13892D03*
Y16392D03*
Y18792D03*
X17034Y13892D03*
Y16392D03*
Y18792D03*
X25200Y-62000D03*
X25100Y-59039D03*
X29600Y-12000D03*
X30600Y8000D03*
X42599Y-66501D03*
X40900Y-64801D03*
X52756Y-81656D03*
X53665Y-83738D03*
X50136Y-55835D03*
X54599Y-19199D03*
X54900Y-15800D03*
X64528Y5590D03*
X69646Y-37913D03*
X72205D03*
X74763D03*
Y-27678D03*
Y-30237D03*
Y-25118D03*
Y-22560D03*
Y-9763D03*
Y-12322D03*
X67087Y-14882D03*
X74763Y-4646D03*
X85835Y-83865D03*
X79882Y-37913D03*
X77322Y-27678D03*
Y-30237D03*
X79882Y-35354D03*
X82441D03*
X85001Y-30236D03*
X77322Y-25118D03*
Y-22560D03*
X79882Y-9763D03*
Y-12322D03*
X77322D03*
Y-9763D03*
X90118Y-37913D03*
X92678Y-27678D03*
X95237D03*
X87560Y-30237D03*
Y-32796D03*
X92678Y-25118D03*
X95237Y-22559D03*
Y-25118D03*
X92678Y-22559D03*
X95237Y-7204D03*
Y-9763D03*
X90118Y-4646D03*
X97000Y-62900D03*
X97796Y-4646D03*
X111600Y-96700D03*
X115986Y6586D03*
X116450Y13750D03*
X115400Y10900D03*
X122000Y-24600D03*
X119929Y-23851D03*
X119450Y-17450D03*
X122300Y-20100D03*
X121669Y-14674D03*
X121328Y-9600D03*
X125402Y-9602D03*
X124000Y-14300D03*
X123350Y-7450D03*
X121400Y-800D03*
X125406Y1904D03*
X119300Y200D03*
X125401Y-3401D03*
X121600Y13100D03*
X124200Y7264D03*
X117650Y8550D03*
X118617Y13591D03*
X121400Y6200D03*
X135300Y-37200D03*
X136500Y-41323D03*
X134200Y-32400D03*
X130688Y-27200D03*
Y-24200D03*
X127851Y-6551D03*
X135487Y-4914D03*
X130000Y-3500D03*
X130514Y1684D03*
X127651Y4149D03*
X128700Y8700D03*
X127600Y42900D03*
X143800Y-68600D03*
X140977Y-49197D03*
X144126Y-42898D03*
X137828Y-36598D03*
X144126Y-27149D03*
Y-36598D03*
X137100Y-25773D03*
X144088Y-20812D03*
X137323Y-1009D03*
X155000Y-77900D03*
X148187Y-32513D03*
X156287Y-26713D03*
X152410Y-26735D03*
X150297Y-22322D03*
X153756Y-20256D03*
X154700Y-17000D03*
X152410Y-24464D03*
X152037Y-17911D03*
X154614Y-13828D03*
X151853Y-12600D03*
X154314Y-7514D03*
X153900Y-10642D03*
X148900Y-15600D03*
X150043Y-9250D03*
X150251Y-2418D03*
X153900Y-4200D03*
X151815Y1085D03*
X153900Y2200D03*
Y-1000D03*
X149300Y3800D03*
X151860Y-5900D03*
X151800Y7000D03*
X149394Y10182D03*
X154700Y11786D03*
X152000Y13400D03*
X154400Y5386D03*
X153900Y8600D03*
Y15000D03*
X151700Y18450D03*
X149650Y17014D03*
X165600Y-76700D03*
X164800Y-49900D03*
X161449D03*
X167600Y-41900D03*
X159838Y-46082D03*
X163000Y-39700D03*
X162986Y-20814D03*
X159887Y-24013D03*
X167400Y-23600D03*
X166172Y-8253D03*
X166173Y-1953D03*
X158200Y40100D03*
X175000Y-50000D03*
Y-56000D03*
X175100Y-37000D03*
Y-41000D03*
Y-45000D03*
X169851Y-33849D03*
X172500Y-22000D03*
Y-13000D03*
Y-8000D03*
Y-3000D03*
X175000Y0D03*
X172500Y-5500D03*
X175000Y6000D03*
X181400Y-15400D03*
G54D12*
X-27378Y27630D03*
X-4622D03*
X27622D03*
X50378D03*
G54D13*
G01X77700Y-45787D02*
Y-46800D01*
X76306Y-48194D01*
X61148D01*
X60160Y-47206D01*
X58764D01*
X50136Y-55835D01*
G54D14*
G01X114000Y12700D02*
X115169D01*
X115532Y12336D01*
G01D02*
X115533D01*
G01D02*
X115833D01*
X115855Y12314D01*
X117855D01*
X118119Y12050D01*
X118400D01*
G01X117300Y10200D02*
X116731D01*
X114131Y7600D01*
X114100D01*
G01D02*
Y5800D01*
X115200Y4700D01*
G01D02*
X116200D01*
X116300Y4800D01*
G01X114000Y12700D02*
X113700Y12400D01*
G01X113400Y12100D02*
Y10030D01*
X114194Y9236D01*
Y9205D01*
X114965Y8434D01*
G01X113700Y12400D02*
X113400Y12100D01*
G01X113700Y14600D02*
Y12400D01*
G01X115986Y6586D02*
X116300Y6900D01*
X118031D01*
X120131Y9000D01*
X121900D01*
X122300Y9400D01*
X123501D01*
X125001Y10900D01*
X130300D01*
X132100Y12700D01*
X144800D01*
X147300Y10200D01*
X149376D01*
X149394Y10182D01*
G01X152000Y13400D02*
X151500Y13900D01*
X148000D01*
X146700Y15200D01*
X131400D01*
X129500Y13300D01*
X123900D01*
X122250Y11650D01*
X121150D01*
X120800Y11300D01*
X115800D01*
X115400Y10900D01*
G01X116600Y15200D02*
X114300D01*
X113700Y14600D01*
G01X120500Y-21800D02*
X122631D01*
X123800Y-20631D01*
Y-20400D01*
G01D02*
Y-19709D01*
X125209Y-18300D01*
X125400D01*
G01D02*
X129044D01*
X129300Y-18556D01*
G01X129100Y-22800D02*
X125600D01*
X123600Y-24800D01*
G01X117600Y-17000D02*
Y-21100D01*
X118200Y-21700D01*
G01D02*
X120400D01*
X120500Y-21800D01*
G01X117600Y-21100D02*
Y-25000D01*
X118700Y-26100D01*
G01D02*
X122531D01*
X123600Y-25031D01*
Y-24800D01*
G01X150297Y-22322D02*
X150223Y-22248D01*
X143493D01*
X143144Y-21900D01*
X130464D01*
X130258Y-21694D01*
X125306D01*
X122400Y-24600D01*
X122000D01*
G01X153756Y-20256D02*
X153600Y-20100D01*
X145407D01*
X144683Y-19376D01*
X144676D01*
X144606Y-19306D01*
X127206D01*
X127006Y-19106D01*
X125464D01*
X124706Y-19864D01*
Y-21094D01*
X122636Y-23164D01*
X121036D01*
X120349Y-23851D01*
X119929D01*
G01X119450Y-17450D02*
X123689D01*
X124489Y-16650D01*
X129550D01*
X129956Y-17056D01*
X145956D01*
X146750Y-17850D01*
X150050D01*
X151400Y-16500D01*
X151417D01*
X151442Y-16475D01*
X153375D01*
X153900Y-17000D01*
X154700D01*
G01X152037Y-17911D02*
X151348Y-18600D01*
X146399D01*
X145605Y-17806D01*
X129645D01*
X129239Y-17400D01*
X124800D01*
X122300Y-19900D01*
Y-20100D01*
G01X125400Y-15800D02*
X125439D01*
X125483Y-15844D01*
X129844D01*
X130306Y-16306D01*
G01X121500Y-11700D02*
X122439D01*
X122639Y-11900D01*
X126000D01*
G01D02*
X126109D01*
G01X126308Y-11788D02*
X126221D01*
X126109Y-11900D01*
G01X132500Y-8750D02*
X126581D01*
X125931Y-8100D01*
X125800D01*
G01D02*
X124731D01*
X123831Y-9000D01*
X123300D01*
G01D02*
X122759D01*
X121259Y-7500D01*
X121200D01*
G01D02*
X120100D01*
X119500Y-8100D01*
G01D02*
Y-11000D01*
X120300Y-11800D01*
G01D02*
X121400D01*
X121500Y-11700D01*
G01X119500Y-11000D02*
Y-15700D01*
X119600Y-15800D01*
G01D02*
X118800D01*
X117600Y-17000D01*
G01X119400Y-6500D02*
Y-8000D01*
X119500Y-8100D01*
G01X119900Y-15800D02*
X120764D01*
X121074Y-16110D01*
X122264D01*
X122574Y-15800D01*
X125400D01*
G01X119900D02*
X120800Y-16700D01*
G01X119600Y-15800D02*
X119900D01*
G01X120800Y-16700D02*
X123300D01*
X124200Y-15800D01*
G01X121669Y-14674D02*
Y-14431D01*
X123236Y-12864D01*
X126206D01*
X126564Y-12506D01*
X128106D01*
X128500Y-12900D01*
X134500D01*
X135646Y-11754D01*
X136040D01*
X136041Y-11753D01*
X137113D01*
X140060Y-14700D01*
X147501D01*
X148101Y-14100D01*
X149499D01*
X150299Y-14900D01*
X153221D01*
X154293Y-13828D01*
X154614D01*
G01X151853Y-12600D02*
X151700D01*
X151300Y-12200D01*
X139901D01*
X139887Y-12186D01*
X139864D01*
X137928Y-10250D01*
X126785D01*
X125997Y-11038D01*
X122838D01*
X121400Y-9600D01*
X121328D01*
G01X153900Y-10642D02*
X153378Y-11164D01*
X151221D01*
X150949Y-11436D01*
X140175D01*
X138239Y-9500D01*
X125504D01*
X125402Y-9602D01*
G01X148900Y-15600D02*
X148800D01*
X148650Y-15450D01*
X130550D01*
X130194Y-15094D01*
X125794D01*
X125300Y-14600D01*
X124300D01*
X124000Y-14300D01*
G01X150043Y-9250D02*
X143750D01*
X142500Y-8000D01*
X126900D01*
X126000Y-7100D01*
X123700D01*
X123350Y-7450D01*
G01X128300Y-5000D02*
X126000D01*
G01X123600Y400D02*
X129767D01*
X129919Y248D01*
X131148D01*
X131800Y900D01*
G01X121700Y-3000D02*
X123771D01*
X124769Y-2002D01*
G01D02*
X124806Y-1965D01*
X125996D01*
X126033Y-2002D01*
G01D02*
X132337D01*
X133339Y-1000D01*
X133500D01*
G01X121700Y-3000D02*
Y-4200D01*
X120900Y-5000D01*
G01X119400Y-6500D02*
Y-2800D01*
X117500Y-900D01*
G01D02*
Y1100D01*
X118400Y2000D01*
G01D02*
X122000D01*
X123600Y400D01*
G01X120200Y4000D02*
Y3800D01*
X118400Y2000D01*
G01X116300Y4800D02*
Y2300D01*
X117500Y1100D01*
G01X121900Y-5000D02*
X120900D01*
X119400Y-6500D01*
G01X123000Y-5000D02*
X124350Y-6350D01*
G01X121900Y-5000D02*
X123000D01*
G01X124350Y-6350D02*
X125950D01*
X127300Y-5000D01*
G01X125800D02*
X123000D01*
G01X126000D02*
X126700Y-4300D01*
G01X125800Y-5000D02*
X126000D01*
G01X121400Y-800D02*
X122000D01*
X122300Y-1100D01*
X122839D01*
X122889Y-1150D01*
X129195D01*
X129297Y-1252D01*
X131948D01*
X136500Y3300D01*
X139200D01*
X144969Y-2469D01*
X150200D01*
X150251Y-2418D01*
G01X125406Y1904D02*
X125510Y1800D01*
X128500D01*
X130100Y3400D01*
X131939D01*
X135039Y6500D01*
X140800D01*
X145700Y1600D01*
X150299D01*
X151599Y2900D01*
X153200D01*
X153900Y2200D01*
G01Y-1000D02*
X153500Y-1400D01*
X151328D01*
X150928Y-1000D01*
X150864D01*
X150846Y-982D01*
X149218D01*
X148500Y-1700D01*
X145316D01*
X139527Y4089D01*
X136173D01*
X131584Y-500D01*
X131461D01*
X131459Y-502D01*
X129608D01*
X129506Y-400D01*
X123200D01*
X122000Y800D01*
X119900D01*
X119300Y200D01*
G01X125401Y-3401D02*
X125500Y-3500D01*
X127969D01*
X129405Y-4936D01*
X131664D01*
X133122Y-3478D01*
X139278D01*
X141000Y-5200D01*
X143700D01*
X144578Y-6078D01*
X151400D01*
X151578Y-5900D01*
X151860D01*
G01X117300Y10200D02*
X119139D01*
X119489Y10550D01*
G01D02*
X121289D01*
X121569Y10830D01*
G01D02*
X121639Y10900D01*
G01D02*
X122500D01*
G01D02*
X122700D01*
X124300Y12500D01*
G01D02*
X129778D01*
X131578Y14300D01*
X131800D01*
G01X118400Y12050D02*
X119750D01*
X120100Y12400D01*
G01D02*
Y12919D01*
G01D02*
Y13631D01*
X121269Y14800D01*
X121300D01*
G01X117100Y5200D02*
X117500D01*
X120550Y8250D01*
G01D02*
X122700D01*
X123100Y8650D01*
G01D02*
X123812D01*
X125312Y10150D01*
X125600D01*
G01D02*
X130611D01*
X132411Y11950D01*
G01X122700Y8250D02*
Y6931D01*
X122836Y6795D01*
Y6464D01*
X123450Y5850D01*
G01D02*
X123583D01*
G01D02*
X123605Y5828D01*
X124795D01*
X125433Y6466D01*
G01D02*
X125505D01*
G01D02*
X130466D01*
X133500Y9500D01*
G01X120200Y4000D02*
X125700D01*
X126800Y2900D01*
G01X117100Y5200D02*
X116700D01*
X116300Y4800D01*
G01X153900Y15000D02*
X153736Y14836D01*
X151405D01*
X151269Y14700D01*
X148382D01*
X147082Y16000D01*
X131018D01*
X129154Y14136D01*
X122636D01*
X121600Y13100D01*
G01X124200Y7264D02*
X129952D01*
X132988Y10300D01*
X143300D01*
X146600Y7000D01*
X151800D01*
G01X154700Y11786D02*
X154414D01*
X153828Y11200D01*
X150700D01*
X150282Y11618D01*
X148799D01*
X148581Y11400D01*
X147297D01*
X145197Y13500D01*
X131839D01*
X129989Y11650D01*
X124610D01*
X123110Y10150D01*
X121989D01*
X121639Y9800D01*
X119800D01*
X118550Y8550D01*
X117650D01*
G01X118617Y13591D02*
X120826Y15800D01*
X128300D01*
X130200Y17700D01*
X148900D01*
X149586Y17014D01*
X149650D01*
G01X154400Y5386D02*
X153514Y4500D01*
X150631D01*
X149895Y5236D01*
X148705D01*
X148019Y4550D01*
X146550D01*
X142350Y8750D01*
X133989D01*
X130939Y5700D01*
X125800D01*
X125000Y4900D01*
X122700D01*
X121400Y6200D01*
G01X121300Y14800D02*
X122239D01*
X122439Y15000D01*
X125300D01*
G01D02*
X128800D01*
X130600Y16800D01*
G01X116600Y15200D02*
X116839D01*
G01D02*
X119039Y17400D01*
X122300D01*
G01D02*
X127639D01*
X129439Y19200D01*
X129900D01*
G01X116450Y13750D02*
X119300Y16600D01*
X127900D01*
X129750Y18450D01*
X151700D01*
G01X133200Y-22675D02*
X129225D01*
X129100Y-22800D01*
G01X129300Y-18556D02*
X144922D01*
G01X150997Y-23689D02*
X150473Y-24213D01*
X143213D01*
X141675Y-22675D01*
X133200D01*
G01X132500Y-11000D02*
X135339D01*
G01X132500Y-8750D02*
X138550D01*
X140486Y-10686D01*
X150100D01*
G01X130306Y-16306D02*
X130345D01*
G01D02*
X146100D01*
G01X132500Y-11000D02*
X127161D01*
X126580Y-11581D01*
G01D02*
X126561D01*
G01D02*
X126519D01*
G01D02*
X126515D01*
G01X126308Y-11788D02*
X126515Y-11581D01*
G01X126396Y-11700D02*
X128400D01*
X128800Y-12100D01*
G01X135400Y-11000D02*
X137600D01*
G01X135339D02*
X135400D01*
G01X128800Y-12100D02*
X134239D01*
X135339Y-11000D01*
G01X154314Y-7514D02*
X154131Y-7697D01*
X153631D01*
X152928Y-8400D01*
X151224D01*
X150638Y-7814D01*
X149448D01*
X148862Y-8400D01*
X144060D01*
X142910Y-7250D01*
X128550D01*
X127851Y-6551D01*
G01X132500Y-6500D02*
X130000D01*
X129186Y-5686D01*
G01D02*
X129017D01*
X128331Y-5000D01*
X128300D01*
G01X126800Y2900D02*
X126869D01*
X127056Y2713D01*
X128313D01*
X129700Y4100D01*
G01X131800Y900D02*
X131923D01*
X135862Y4839D01*
X139860D01*
X141100Y3600D01*
G01X133500Y-1000D02*
X137314D01*
X137323Y-1009D01*
G01X136800Y2500D02*
X133500Y-800D01*
Y-1000D01*
G01X132519Y-1820D02*
X135890D01*
G01D02*
X138756D01*
G01X126700Y-4300D02*
X127600D01*
X128300Y-5000D01*
G01X129186Y-5686D02*
X132114D01*
X133500Y-4300D01*
G01D02*
X134873D01*
X135487Y-4914D01*
G01X143521Y-6800D02*
X143221Y-6500D01*
X132500D01*
G01X153900Y-4200D02*
X153800Y-4300D01*
X151661D01*
X151511Y-4450D01*
X151411D01*
X151311Y-4550D01*
X151179D01*
X150429Y-5300D01*
X144861D01*
X144011Y-4450D01*
X141350D01*
X139600Y-2700D01*
X132700D01*
X131900Y-3500D01*
X130000D01*
G01X130514Y1684D02*
X130516D01*
X130732Y1900D01*
X131500D01*
X135350Y5750D01*
X140489D01*
X145389Y850D01*
X151550D01*
X151785Y1085D01*
X151815D01*
G01X132411Y11950D02*
X144050D01*
X147300Y8700D01*
G01X133500Y9500D02*
X142800D01*
X146500Y5800D01*
G01X129700Y4100D02*
X129739D01*
X129789Y4150D01*
X131550D01*
X134600Y7200D01*
G01D02*
X134678D01*
X134728Y7250D01*
X141689D01*
X146575Y2364D01*
X149895D01*
X151181Y3650D01*
X151400D01*
G01X149300Y3800D02*
X146200D01*
X142000Y8000D01*
X134300D01*
X131200Y4900D01*
X128787D01*
X128187Y4300D01*
X127801D01*
X127651Y4149D01*
G01X153900Y8600D02*
X153736Y8436D01*
X151205D01*
X150669Y7900D01*
X146973D01*
X143823Y11050D01*
X132677D01*
X130327Y8700D01*
X128700D01*
G01X131800Y14300D02*
X146400D01*
X147800Y12900D01*
G01X130600Y16800D02*
X147700D01*
X148800Y15700D01*
G01X129900Y19200D02*
X149600D01*
G01X138100Y-20100D02*
X143376D01*
X144088Y-20812D01*
G01D02*
X144162Y-20886D01*
X150100D01*
G01X144922Y-18556D02*
X145256D01*
X146000Y-19300D01*
G01D02*
X146038D01*
X146088Y-19350D01*
X151700D01*
G01X141675Y-22675D02*
X142675D01*
X143200Y-23200D01*
G01D02*
X149000D01*
X149500Y-23700D01*
G01X137600Y-11000D02*
X139900Y-13300D01*
G01X138550Y-8750D02*
X142150D01*
X143400Y-10000D01*
G01D02*
X148614D01*
X149300Y-10686D01*
G01X139600Y-13000D02*
X150100D01*
X151200Y-14100D01*
G01X139900Y-13300D02*
Y-13400D01*
X140450Y-13950D01*
G01D02*
X147190D01*
G01X146306Y-16306D02*
X146906D01*
G01X146306D02*
X147100Y-17100D01*
G01X146100Y-16306D02*
X146306D01*
G01X144267Y-6828D02*
X144239Y-6800D01*
X143900D01*
G01X143600D02*
X144400Y-7600D01*
G01D02*
X148601D01*
G01X143900Y-6800D02*
X143600D01*
G01X141100Y3600D02*
X141578D01*
X145178Y0D01*
X149200D01*
G01X136800Y2500D02*
X138900D01*
X144700Y-3300D01*
G01X138756Y-1820D02*
X139820D01*
X141700Y-3700D01*
G01D02*
X144350D01*
X145200Y-4550D01*
G01D02*
X150050D01*
X150600Y-4000D01*
G01X144700Y-3300D02*
X149100D01*
X149800Y-4000D01*
G01X138300Y-6500D02*
X139700Y-5100D01*
G01D02*
X139800D01*
X140600Y-5900D01*
G01D02*
X140700D01*
G01X144267Y-6828D02*
X150757D01*
X150929Y-7000D01*
G01X140800Y-6000D02*
X140900Y-6100D01*
G01X140800Y-6000D02*
X143439D01*
X144239Y-6800D01*
G01X140700Y-5900D02*
X140800Y-6000D01*
G01X143521Y-6800D02*
X143600D01*
G01X146150Y6150D02*
X150350D01*
X151000Y5500D01*
G01X150400Y-20886D02*
X152355D01*
X153169Y-21700D01*
X153200D01*
G01X150100Y-20886D02*
X150400D01*
G01X153200Y-21700D02*
X154700D01*
G01X151700Y-19350D02*
X152631D01*
X153161Y-18820D01*
X153680D01*
X154000Y-18500D01*
G01D02*
X156900D01*
G01X146906Y-16306D02*
X147406D01*
X148200Y-17100D01*
G01X149500D02*
X149600D01*
X150900Y-15800D01*
G01X156900Y-18500D02*
Y-20800D01*
X155900Y-21800D01*
G01X154700Y-21700D02*
X155800D01*
X155900Y-21800D01*
G01X153100Y-23000D02*
X154800D01*
X155800Y-22000D01*
G01X149500Y-23700D02*
Y-23713D01*
X150000Y-24213D01*
G01X150997Y-23689D02*
X151012D01*
X151701Y-23000D01*
X153100D01*
G01X149793Y-24006D02*
X149953Y-23846D01*
X150520D01*
X150680Y-24006D01*
G01X148269Y-17100D02*
X149500D01*
G01X150900Y-15800D02*
X151039D01*
G01D02*
X151089Y-15750D01*
X151106D01*
X151131Y-15725D01*
G01D02*
X153944D01*
X154105Y-15564D01*
X156564D01*
X156900Y-15900D01*
G01X154000Y-12300D02*
X156300D01*
X156700Y-12700D01*
G01X157000Y-13000D02*
Y-15800D01*
X156900Y-15900D01*
G01X150100Y-10686D02*
X150522D01*
G01D02*
Y-10678D01*
G01X154000Y-12331D02*
Y-12300D01*
G01X152300Y-9700D02*
X151624D01*
X150912Y-10412D01*
G01X150522Y-10686D02*
X150638D01*
X150912Y-10412D01*
G01X153178Y-13233D02*
X153500Y-12911D01*
Y-12800D01*
G01X150800Y-14100D02*
X152465D01*
G01D02*
Y-14019D01*
X153214Y-13270D01*
G01X153500Y-12800D02*
X154000Y-12300D01*
G01X153214Y-13270D02*
Y-13086D01*
X153500Y-12800D01*
G01X152300Y-9700D02*
X152811D01*
X153305Y-9206D01*
X155906D01*
X156700Y-10000D01*
G01D02*
Y-12700D01*
X157000Y-13000D01*
G01X147190Y-13950D02*
Y-13910D01*
X147800Y-13300D01*
G01D02*
X150000D01*
X150800Y-14100D01*
G01X152700Y-7200D02*
X152878Y-7022D01*
Y-6919D01*
X154097Y-5700D01*
G01X156200D02*
Y-8912D01*
X155906Y-9206D01*
G01X148200Y-17100D02*
X148269D01*
G01X147100D02*
X148200D01*
G01X148601Y-7600D02*
Y-7599D01*
X149200Y-7000D01*
G01X151265Y-7336D02*
X152463D01*
X152500Y-7300D01*
G01X150929Y-7000D02*
X151265Y-7336D01*
G01X149200Y-7000D02*
X150929D01*
G01X149200Y0D02*
X150869D01*
G01D02*
X151119Y-250D01*
G01X151700Y-600D02*
X152269D01*
X153469Y600D01*
X153800D01*
G01D02*
X155500D01*
X157000Y2100D01*
G01X156700Y4700D02*
Y2400D01*
X157000Y2100D01*
G01X150600Y-4000D02*
X150675Y-3925D01*
G01X149800Y-4000D02*
X150600D01*
G01X150675Y-3925D02*
X150714D01*
G01X151800Y-3100D02*
Y-3000D01*
G01X150900Y-3800D02*
X151000D01*
X151100Y-3700D01*
X151200D01*
G01X151119Y-250D02*
X151251D01*
X151601Y-600D01*
X151700D01*
G01X150900Y-3800D02*
X150800D01*
X150675Y-3925D01*
G01X151800Y-3100D02*
X152400Y-2500D01*
X152500D01*
G01X151200Y-3700D02*
X151800Y-3100D01*
G01X152500Y-2500D02*
X154431D01*
X156200Y-731D01*
G01X156300Y-400D02*
Y1300D01*
X156250Y1350D01*
G01X154097Y-5700D02*
X156200D01*
G01X156300Y-631D02*
Y-400D01*
G01X156200Y-5700D02*
Y-731D01*
X156300Y-631D01*
G01X147800Y12900D02*
X150300D01*
X151200Y12000D01*
G01D02*
X151369D01*
X151405Y11964D01*
X152664D01*
X154300Y13600D01*
G01D02*
X156100D01*
X156800Y12900D01*
G01X156300Y16000D02*
Y13800D01*
X156100Y13600D01*
G01X147300Y8700D02*
X150300D01*
X151800Y10200D01*
G01D02*
X155300D01*
X156800Y11700D01*
G01D02*
Y12900D01*
G01X151000Y5500D02*
X152331D01*
X153600Y6769D01*
Y6900D01*
G01D02*
X155000D01*
X156700Y8600D01*
G01X156800Y11700D02*
Y8700D01*
G01X151400Y3650D02*
X155650D01*
X156700Y4700D01*
G01D02*
Y8600D01*
X156800Y8700D01*
G01X148800Y15700D02*
X149050Y15450D01*
G01D02*
X150450D01*
X151600Y16600D01*
G01D02*
X155700D01*
X156300Y16000D01*
G01X149600Y19200D02*
X150419D01*
X151219Y20000D01*
X151300D01*
G01D02*
X155300D01*
X156300Y19000D01*
G01D02*
Y16000D01*
G01X150958Y15450D02*
X151094Y15586D01*
X151886D01*
G01D02*
X152286D01*
X153300Y16600D01*
G01X150958Y15450D02*
X150450D01*
G01X156900Y-15900D02*
Y-18500D01*
G54D15*
G01X-66929Y35433D02*
Y-90551D01*
G03X-55118Y-102362I11811J0D01*
G01X173228D01*
G03X185039Y-90551I0J11811D01*
G01Y35433D01*
G03X173228Y47244I-11811J0D01*
G01X-55118D01*
G03X-66929Y35433I0J-11811D01*
G54D16*
G01X78700Y-39200D02*
Y-42171D01*
X77700Y-43171D01*
Y-45787D01*
G54D17*
G01X152410Y-26735D02*
X151319D01*
X150322Y-25738D01*
X142338D01*
X140800Y-24200D01*
X133900D01*
X132250Y-25850D01*
Y-27649D01*
X131288Y-28611D01*
X130103D01*
X129277Y-27784D01*
Y-26428D01*
X130849Y-24856D01*
Y-24361D01*
X130688Y-24200D01*
G01Y-27200D02*
X131500Y-26388D01*
Y-25539D01*
X133589Y-23450D01*
X141111D01*
X142649Y-24988D01*
X150795D01*
X151319Y-24464D01*
X152410D01*
M02*
