G04 ================== begin FILE IDENTIFICATION RECORD ==================*
G04 Layout Name:  F:/PCB_PROJECT/D1-CORE/PCB/D1_CORE.brd*
G04 Film Name:    SOLDER_TOP*
G04 File Format:  Gerber RS274X*
G04 File Origin:  Cadence Allegro 17.2-S079*
G04 Origin Date:  Wed Mar 23 19:10:51 2022*
G04 *
G04 Layer:  VIA CLASS/SOLDERMASK_TOP*
G04 Layer:  PIN/SOLDERMASK_TOP*
G04 Layer:  PACKAGE GEOMETRY/SOLDERMASK_TOP*
G04 Layer:  BOARD GEOMETRY/OUTLINE*
G04 *
G04 Offset:    (0.00 0.00)*
G04 Mirror:    No*
G04 Mode:      Positive*
G04 Rotation:  0*
G04 FullContactRelief:  No*
G04 UndefLineWidth:     1.00*
G04 ================== end FILE IDENTIFICATION RECORD ====================*
%FSLAX25Y25*MOIN*%
%IR0*IPPOS*OFA0.00000B0.00000*MIA0B0*SFA1.00000B1.00000*%
%ADD39R,.08268X.06299*%
%ADD15C,.04201*%
%ADD42C,.01614*%
%ADD36C,.01457*%
%ADD13R,.04331X.04331*%
%ADD38R,.0748X.13386*%
%ADD11R,.0874X.0874*%
%AMMACRO18*
4,1,44,-.011,.0085,
-.011,-.0085,
-.01093,-.009368,
-.010705,-.01021,
-.010338,-.011001,
-.009838,-.011715,
-.009223,-.012332,
-.008509,-.012833,
-.00772,-.013202,
-.006878,-.013428,
-.00601,-.013505,
-.006,-.0135,
.006,-.0135,
.006868,-.01343,
.00771,-.013205,
.008501,-.012838,
.009215,-.012338,
.009832,-.011723,
.010333,-.011009,
.010702,-.01022,
.010928,-.009378,
.011005,-.00851,
.011,-.0085,
.011,.0085,
.01093,.009368,
.010705,.01021,
.010338,.011001,
.009838,.011715,
.009223,.012332,
.008509,.012833,
.00772,.013202,
.006878,.013428,
.00601,.013505,
.006,.0135,
-.006,.0135,
-.006868,.01343,
-.00771,.013205,
-.008501,.012838,
-.009215,.012338,
-.009832,.011723,
-.010333,.011009,
-.010702,.01022,
-.010928,.009378,
-.011005,.00851,
-.011,.0085,
0.0*
%
%ADD18MACRO18*%
%ADD34R,.035X.04*%
%ADD16R,.04X.035*%
%ADD29R,.0126X.04016*%
%ADD10C,.2126*%
%ADD27R,.04016X.0126*%
%ADD35R,.08071X.06102*%
%ADD17R,.0122X.04764*%
%ADD30R,.10709X.10709*%
%ADD25R,.0248X.04843*%
%ADD21R,.07205X.04843*%
%ADD24R,.04331X.06693*%
%ADD33R,.06693X.04331*%
%ADD20R,.07205X.05827*%
%ADD12R,.02902X.02598*%
%ADD14R,.02598X.02902*%
%ADD43R,.04764X.06732*%
%ADD37R,.02874X.06417*%
%ADD41R,.06732X.04764*%
%ADD28R,.01299X.04843*%
%ADD32R,.04764X.03189*%
%ADD40R,.01575X.06299*%
%ADD26R,.02756X.06299*%
%ADD22R,.06299X.02756*%
%ADD19R,.05098X.04598*%
%ADD31R,.04598X.05098*%
%ADD23R,.04098X.03799*%
%ADD44C,.001*%
G75*
%LPD*%
G75*
G54D10*
X-55118Y-90551D03*
Y35433D03*
X173228Y-90551D03*
Y35433D03*
G54D20*
X-35961Y25543D03*
X3961D03*
X19039D03*
X58961D03*
G54D11*
X-59000Y-57039D03*
Y-36961D03*
G54D12*
X-56900Y21000D03*
X-53100D03*
X-27900Y-8000D03*
Y-16000D03*
X-32100Y-12000D03*
X-35900D03*
X-27900D03*
X-35900Y-8000D03*
X-32100D03*
X-35900Y-16000D03*
X-32100D03*
X-15900Y-30000D03*
Y-26000D03*
X-24100Y-8000D03*
Y-16000D03*
Y-12000D03*
X-15900Y3000D03*
Y11000D03*
Y7000D03*
X-12100Y-30000D03*
X-7900Y-26000D03*
X-12100D03*
Y3000D03*
Y11000D03*
Y7000D03*
X1100Y-97000D03*
X-4100Y-26000D03*
X-2300Y3200D03*
X1500D03*
Y11200D03*
X-2300D03*
X1500Y7200D03*
X-2300D03*
X4900Y-97000D03*
X7700Y-16800D03*
X11500D03*
Y-12800D03*
X7700D03*
X52100Y-45000D03*
Y-2000D03*
Y2000D03*
Y6000D03*
X55900Y-45000D03*
Y-2000D03*
Y2000D03*
Y6000D03*
X105100Y-96000D03*
X108900D03*
X127100Y-27000D03*
Y-20000D03*
Y-24000D03*
Y-12000D03*
Y-16000D03*
X130900Y-27000D03*
Y-20000D03*
Y-24000D03*
Y-12000D03*
Y-16000D03*
X154900Y-67000D03*
X151100D03*
X175100Y-37000D03*
Y-41000D03*
Y-45000D03*
Y-33000D03*
Y-29000D03*
Y-17000D03*
Y-21000D03*
Y-25000D03*
Y-13000D03*
Y-8000D03*
Y-3000D03*
X178900Y-37000D03*
Y-41000D03*
Y-45000D03*
Y-33000D03*
Y-29000D03*
Y-17000D03*
Y-21000D03*
Y-25000D03*
Y-13000D03*
Y-8000D03*
Y-3000D03*
G54D21*
X-35961Y42000D03*
X3961D03*
X19039D03*
X58961D03*
G54D30*
X-8400Y-11800D03*
G54D31*
X8000Y10000D03*
X16000D03*
G54D22*
X-26841Y-78630D03*
Y-82173D03*
Y-85717D03*
Y-68000D03*
Y-71543D03*
Y-75087D03*
Y-57370D03*
Y-60913D03*
Y-64457D03*
Y-50283D03*
Y-53827D03*
X18841Y-85717D03*
Y-82173D03*
Y-78630D03*
Y-75087D03*
Y-71543D03*
Y-68000D03*
Y-64457D03*
Y-60913D03*
Y-57370D03*
Y-53827D03*
Y-50283D03*
G54D40*
X125110Y-73000D03*
X127079D03*
X129047D03*
X131016D03*
X132984D03*
X134953D03*
X136921D03*
X138890D03*
G54D13*
X-49559Y-71346D03*
Y-64654D03*
X-44441Y-71346D03*
Y-64654D03*
X82654Y-67559D03*
Y-62441D03*
X89346Y-67559D03*
Y-62441D03*
G54D23*
X-31400Y-28800D03*
Y6200D03*
X-25400Y-28800D03*
Y6200D03*
X8600Y200D03*
X14600D03*
X175000Y-53000D03*
Y3000D03*
X181000Y-53000D03*
Y3000D03*
G54D32*
X25520Y-62000D03*
X40480D03*
G54D41*
X139000Y26437D03*
Y43563D03*
G54D14*
X-48000Y-56900D03*
Y-53100D03*
X-39000Y-71100D03*
Y-74900D03*
Y-66900D03*
Y-63100D03*
X-34000Y-56900D03*
Y-53100D03*
X-7000Y3100D03*
Y6900D03*
X25000Y-89900D03*
Y-86100D03*
Y-81900D03*
Y-78100D03*
X43000Y-77900D03*
Y-74100D03*
X50000Y-77900D03*
Y-74100D03*
X57000Y-54900D03*
Y-51100D03*
X71000Y-68900D03*
X68000Y-57900D03*
X71000Y-65100D03*
X68000Y-54100D03*
X72000Y23100D03*
X68000Y15100D03*
Y18900D03*
X72000Y15100D03*
Y18900D03*
X68000Y23100D03*
X72000Y26900D03*
X68000D03*
X84000Y-57900D03*
Y-54100D03*
X88000Y-57900D03*
Y-54100D03*
X97000Y-61900D03*
Y-58100D03*
X130000Y42900D03*
Y39100D03*
X155000Y-75900D03*
Y-72100D03*
X149000Y34100D03*
Y37900D03*
G54D33*
X32000Y-93000D03*
Y-85000D03*
G54D24*
X-31000Y-22000D03*
X-32400Y-800D03*
X-23000Y-22000D03*
X-24400Y-800D03*
X7600Y-6800D03*
X15600D03*
G54D42*
X139402Y-47622D03*
X142551D03*
X145701D03*
X139402Y-38173D03*
X142551D03*
X145701D03*
X139402Y-41323D03*
X142551D03*
X145701D03*
X139402Y-44472D03*
X142551D03*
X145701D03*
X139402Y-28724D03*
X142551D03*
X145701D03*
X139402Y-31874D03*
X142551D03*
X145701D03*
X139402Y-35024D03*
X142551D03*
X145701D03*
X139402Y-19276D03*
X142551D03*
X145701D03*
X139402Y-22425D03*
X142551D03*
X145701D03*
X139402Y-25575D03*
X142551D03*
X145701D03*
X139402Y-6677D03*
X142551D03*
X145701D03*
X139402Y-9827D03*
X142551D03*
X145701D03*
X139402Y-12976D03*
X142551D03*
X145701D03*
X139402Y-16126D03*
X142551D03*
X145701D03*
X139402Y-378D03*
X142551D03*
X145701D03*
X139402Y-3528D03*
X142551D03*
X145701D03*
X158299Y-47622D03*
X161449D03*
X164598D03*
X158299Y-38173D03*
X161449D03*
X164598D03*
X158299Y-41323D03*
X161449D03*
X164598D03*
X158299Y-44472D03*
X161449D03*
X164598D03*
X158299Y-28724D03*
X161449D03*
X164598D03*
X158299Y-31874D03*
X161449D03*
X164598D03*
X158299Y-35024D03*
X161449D03*
X164598D03*
X158299Y-19276D03*
X161449D03*
X164598D03*
X158299Y-22425D03*
X161449D03*
X164598D03*
X158299Y-25575D03*
X161449D03*
X164598D03*
X158299Y-6677D03*
X161449D03*
X164598D03*
X158299Y-9827D03*
X161449D03*
X164598D03*
X158299Y-12976D03*
X161449D03*
X164598D03*
X158299Y-16126D03*
X161449D03*
X164598D03*
X158299Y-378D03*
X161449D03*
X164598D03*
X158299Y-3528D03*
X161449D03*
X164598D03*
G54D15*
X-48000Y-30000D03*
X-32000Y13000D03*
X8000Y-23000D03*
Y17000D03*
X51000Y-53000D03*
X95000Y-68000D03*
G54D43*
X160437Y-70000D03*
X177563D03*
G54D25*
X-28795Y22531D03*
X-25646D03*
X-6354D03*
X-3205D03*
X26205D03*
X29354D03*
X48646D03*
X51795D03*
G54D16*
X-49571Y-17242D03*
X-55771D03*
X-49571Y-24041D03*
X-55771D03*
X-49571Y-10443D03*
X-55771D03*
G54D34*
X43000Y-90100D03*
Y-83900D03*
X50000Y-90100D03*
Y-83900D03*
X155000Y33900D03*
Y40100D03*
G54D44*
G01X-66929Y35433D02*
Y-90551D01*
G03X-55118Y-102362I11811J0D01*
G01X173228D01*
G03X185039Y-90551I0J11811D01*
G01Y35433D01*
G03X173228Y47244I-11811J0D01*
G01X-55118D01*
G03X-66929Y35433I0J-11811D01*
G54D26*
X-21717Y-90841D03*
X-18173D03*
Y-45159D03*
X-21717D03*
X-14630Y-90841D03*
X-11087D03*
X-7543D03*
Y-45159D03*
X-11087D03*
X-14630D03*
X-4000Y-90841D03*
X-457D03*
X3087D03*
Y-45159D03*
X-457D03*
X-4000D03*
X6630Y-90841D03*
X10173D03*
X13717D03*
Y-45159D03*
X10173D03*
X6630D03*
G54D17*
X-49063Y-3646D03*
X-51031D03*
X-53000D03*
X-54969D03*
X-56937D03*
Y15646D03*
X-54969D03*
X-53000D03*
X-51031D03*
X-49063D03*
G54D35*
X67213Y-82528D03*
G54D27*
X-16668Y-16721D03*
Y-14753D03*
Y-12784D03*
Y-10816D03*
Y-8847D03*
Y-6879D03*
X-132Y-16721D03*
Y-6879D03*
Y-8847D03*
Y-10816D03*
Y-12784D03*
Y-14753D03*
G54D18*
X-39000Y-53000D03*
X-43000D03*
G54D36*
X60689Y-44311D03*
Y-41752D03*
Y-39193D03*
X63248Y-44311D03*
Y-41752D03*
Y-39193D03*
X60689Y-36634D03*
Y-31516D03*
X63248Y-36634D03*
Y-34075D03*
Y-31516D03*
Y-28957D03*
X60689Y-26398D03*
Y-18720D03*
X63248Y-26398D03*
Y-23839D03*
Y-21280D03*
Y-18720D03*
X60689Y-13602D03*
Y-8484D03*
X63248Y-16161D03*
Y-13602D03*
Y-11043D03*
Y-8484D03*
X60689Y-3366D03*
Y-807D03*
Y1752D03*
X63248Y-5925D03*
Y-3366D03*
Y-807D03*
Y1752D03*
X60689Y4311D03*
X63248D03*
X65807Y-44311D03*
Y-41752D03*
Y-39193D03*
X68366Y-44311D03*
Y-41752D03*
Y-39193D03*
X70925Y-41752D03*
Y-39193D03*
X73484Y-44311D03*
Y-41752D03*
Y-39193D03*
X65807Y-36634D03*
Y-34075D03*
Y-31516D03*
Y-28957D03*
X68366Y-36634D03*
Y-34075D03*
Y-31516D03*
Y-28957D03*
X70925Y-36634D03*
Y-34075D03*
Y-31516D03*
Y-28957D03*
X73484Y-36634D03*
Y-34075D03*
Y-31516D03*
Y-28957D03*
X65807Y-26398D03*
Y-23839D03*
Y-21280D03*
Y-18720D03*
X68366Y-23839D03*
Y-21280D03*
X70925Y-23839D03*
Y-21280D03*
X73484Y-23839D03*
Y-21280D03*
X65807Y-16161D03*
Y-13602D03*
Y-11043D03*
Y-8484D03*
X68366Y-16161D03*
Y-13602D03*
Y-8484D03*
X70925Y-16161D03*
Y-13602D03*
Y-8484D03*
X73484Y-16161D03*
Y-13602D03*
Y-8484D03*
X65807Y-5925D03*
Y-3366D03*
Y-807D03*
Y1752D03*
X68366Y-5925D03*
Y-3366D03*
Y-807D03*
Y1752D03*
X70925Y-5925D03*
Y-3366D03*
Y-807D03*
Y1752D03*
X73484Y-5925D03*
Y-3366D03*
Y-807D03*
Y1752D03*
X65807Y4311D03*
X68366D03*
X73484D03*
X76043Y-41752D03*
Y-39193D03*
X78602Y-44311D03*
Y-41752D03*
Y-39193D03*
X81161Y-41752D03*
Y-39193D03*
X83720Y-44311D03*
Y-41752D03*
Y-39193D03*
X76043Y-36634D03*
Y-34075D03*
Y-31516D03*
Y-28957D03*
X78602D03*
X81161Y-36634D03*
Y-34075D03*
Y-31516D03*
Y-28957D03*
X83720Y-36634D03*
Y-34075D03*
Y-31516D03*
Y-28957D03*
X76043Y-26398D03*
Y-23839D03*
Y-21280D03*
Y-18720D03*
X78602Y-26398D03*
Y-23839D03*
Y-21280D03*
Y-18720D03*
X81161Y-26398D03*
Y-23839D03*
Y-21280D03*
Y-18720D03*
X83720Y-26398D03*
Y-23839D03*
Y-21280D03*
Y-18720D03*
X76043Y-16161D03*
Y-13602D03*
Y-11043D03*
Y-8484D03*
X78602Y-16161D03*
Y-13602D03*
Y-11043D03*
X81161Y-16161D03*
Y-13602D03*
Y-11043D03*
Y-8484D03*
X83720Y-16161D03*
Y-13602D03*
Y-11043D03*
Y-8484D03*
X76043Y-5925D03*
Y-3366D03*
Y-807D03*
Y1752D03*
X78602Y-807D03*
Y1752D03*
X81161Y-5925D03*
Y-3366D03*
Y-807D03*
Y1752D03*
X83720Y-5925D03*
Y-3366D03*
Y-807D03*
Y1752D03*
X78602Y4311D03*
X86280Y-41752D03*
Y-39193D03*
X88839Y-41752D03*
Y-39193D03*
X91398Y-44311D03*
Y-41752D03*
Y-39193D03*
X93957Y-41752D03*
Y-39193D03*
X86280Y-28957D03*
X88839Y-36634D03*
Y-34075D03*
Y-31516D03*
Y-28957D03*
X91398Y-36634D03*
Y-34075D03*
Y-31516D03*
Y-28957D03*
X93957D03*
X86280Y-26398D03*
Y-23839D03*
Y-21280D03*
Y-18720D03*
X88839Y-26398D03*
Y-23839D03*
Y-21280D03*
Y-18720D03*
X91398Y-26398D03*
Y-23839D03*
Y-21280D03*
Y-18720D03*
X93957Y-26398D03*
Y-23839D03*
Y-21280D03*
Y-18720D03*
X86280Y-16161D03*
Y-13602D03*
Y-11043D03*
X88839Y-16161D03*
Y-13602D03*
Y-11043D03*
Y-8484D03*
X91398Y-16161D03*
Y-13602D03*
Y-11043D03*
Y-8484D03*
X93957Y-16161D03*
Y-13602D03*
Y-11043D03*
X86280Y-807D03*
Y1752D03*
X88839Y-5925D03*
Y-3366D03*
Y-807D03*
Y1752D03*
X91398Y-5925D03*
Y-3366D03*
Y-807D03*
Y1752D03*
X93957Y-807D03*
Y1752D03*
X86280Y4311D03*
X91398D03*
X96516Y-44311D03*
Y-41752D03*
Y-39193D03*
X99075Y-41752D03*
Y-39193D03*
X101634Y-44311D03*
Y-41752D03*
Y-39193D03*
X104193Y-44311D03*
Y-41752D03*
Y-39193D03*
X96516Y-36634D03*
Y-34075D03*
Y-31516D03*
Y-28957D03*
X99075Y-36634D03*
Y-34075D03*
Y-31516D03*
Y-28957D03*
X101634Y-36634D03*
Y-34075D03*
Y-31516D03*
Y-28957D03*
X104193Y-36634D03*
Y-34075D03*
Y-31516D03*
Y-28957D03*
X96516Y-23839D03*
Y-21280D03*
X99075Y-23839D03*
Y-21280D03*
X101634Y-23839D03*
Y-21280D03*
X104193Y-26398D03*
Y-23839D03*
Y-21280D03*
Y-18720D03*
X96516Y-16161D03*
Y-13602D03*
Y-8484D03*
X99075Y-16161D03*
Y-13602D03*
Y-8484D03*
X101634Y-16161D03*
Y-13602D03*
Y-8484D03*
X104193Y-16161D03*
Y-13602D03*
Y-11043D03*
Y-8484D03*
X96516Y-5925D03*
Y-3366D03*
Y-807D03*
Y1752D03*
X99075Y-5925D03*
Y-3366D03*
Y-807D03*
Y1752D03*
X101634Y-5925D03*
Y-3366D03*
Y-807D03*
Y1752D03*
X104193Y-5925D03*
Y-3366D03*
Y-807D03*
Y1752D03*
X96516Y4311D03*
X101634D03*
X104193D03*
X106752Y-44311D03*
Y-41752D03*
Y-39193D03*
X109311Y-44311D03*
Y-41752D03*
Y-39193D03*
X106752Y-36634D03*
Y-34075D03*
Y-31516D03*
Y-28957D03*
X109311Y-36634D03*
Y-31516D03*
X106752Y-26398D03*
Y-23839D03*
Y-21280D03*
Y-18720D03*
X109311Y-26398D03*
Y-23839D03*
Y-18720D03*
X106752Y-16161D03*
Y-13602D03*
Y-11043D03*
Y-8484D03*
X109311Y-13602D03*
Y-8484D03*
X106752Y-5925D03*
Y-3366D03*
Y-807D03*
Y1752D03*
X109311Y-3366D03*
Y-807D03*
Y1752D03*
X106752Y4311D03*
X109311D03*
G54D19*
X-40000Y-30000D03*
Y-22000D03*
Y-2000D03*
Y6000D03*
G54D28*
X-16984Y22531D03*
X-18953D03*
X-20921D03*
X-22890D03*
X-9110D03*
X-11079D03*
X-13047D03*
X-15016D03*
X34079D03*
X32110D03*
X43921D03*
X41953D03*
X39984D03*
X38016D03*
X36047D03*
X45890D03*
G54D37*
X72843Y-89850D03*
X77173D03*
X81504D03*
X85835D03*
X90165D03*
X94496D03*
X98827D03*
X103157D03*
G54D29*
X-7416Y-20068D03*
X-9384D03*
X-11353D03*
X-13321D03*
Y-3532D03*
X-11353D03*
X-9384D03*
X-7416D03*
X-3479Y-20068D03*
X-5447D03*
Y-3532D03*
X-3479D03*
G54D38*
X107488Y-78236D03*
G54D39*
X118417Y-83236D03*
X145583D03*
M02*
