G04 ================== begin FILE IDENTIFICATION RECORD ==================*
G04 Layout Name:  F:/PCB_PROJECT/D1-CORE/PCB/D1_CORE.brd*
G04 Film Name:    TOP*
G04 File Format:  Gerber RS274X*
G04 File Origin:  Cadence Allegro 17.2-S079*
G04 Origin Date:  Thu Mar 31 21:50:26 2022*
G04 *
G04 Layer:  BOARD GEOMETRY/OUTLINE*
G04 Layer:  ETCH/TOP*
G04 Layer:  PIN/TOP*
G04 Layer:  VIA CLASS/TOP*
G04 *
G04 Offset:    (0.00 0.00)*
G04 Mirror:    No*
G04 Mode:      Positive*
G04 Rotation:  0*
G04 FullContactRelief:  No*
G04 UndefLineWidth:     1.00*
G04 ================== end FILE IDENTIFICATION RECORD ====================*
%FSLAX25Y25*MOIN*%
%IR0*IPPOS*OFA0.00000B0.00000*MIA0B0*SFA1.00000B1.00000*%
%ADD16C,.04*%
%ADD38C,.01063*%
%ADD45C,.05118*%
%ADD11C,.01772*%
%ADD44C,.01575*%
%ADD27C,.02559*%
%ADD32C,.03937*%
%ADD12R,.08661X.08661*%
%ADD14R,.03937X.03937*%
%ADD40R,.07087X.12992*%
%AMMACRO19*
4,1,40,-.01,.0075,
-.01,-.0075,
-.009924,-.008368,
-.009698,-.00921,
-.00933,-.01,
-.00883,-.010714,
-.008214,-.01133,
-.0075,-.01183,
-.00671,-.012198,
-.005868,-.012424,
-.005,-.0125,
.005,-.0125,
.005868,-.012424,
.00671,-.012198,
.0075,-.01183,
.008214,-.01133,
.00883,-.010714,
.00933,-.01,
.009698,-.00921,
.009924,-.008368,
.01,-.0075,
.01,.0075,
.009924,.008368,
.009698,.00921,
.00933,.01,
.00883,.010714,
.008214,.01133,
.0075,.01183,
.00671,.012198,
.005868,.012424,
.005,.0125,
-.005,.0125,
-.005868,.012424,
-.00671,.012198,
-.0075,.01183,
-.008214,.01133,
-.00883,.010714,
-.00933,.01,
-.009698,.00921,
-.009924,.008368,
-.01,.0075,
0.0*
%
%ADD19MACRO19*%
%ADD20R,.045X.04*%
%ADD33R,.04X.045*%
%ADD24R,.035X.03201*%
%ADD13R,.02299X.02*%
%ADD15R,.02X.02299*%
%ADD31R,.1063X.1063*%
%ADD34R,.04724X.0315*%
%ADD18R,.01181X.04724*%
%ADD26R,.02362X.04724*%
%ADD42R,.01181X.05906*%
%ADD36R,.03X.03799*%
%ADD10C,.20866*%
%ADD17R,.03799X.03*%
%ADD30R,.01181X.03937*%
%ADD28R,.02362X.05906*%
%ADD29R,.03937X.01181*%
%ADD23R,.05906X.02362*%
%ADD22R,.07087X.04724*%
%ADD46R,.04724X.06693*%
%ADD43R,.06693X.04724*%
%ADD21R,.07087X.05709*%
%ADD39R,.02756X.06299*%
%ADD37R,.07874X.05906*%
%ADD41R,.07874X.05906*%
%ADD25R,.03937X.06299*%
%ADD35R,.06299X.03937*%
%ADD47C,.01*%
%ADD48C,.02*%
%ADD49C,.0235*%
%ADD50C,.004*%
%ADD51C,.005*%
%ADD52C,.001*%
%ADD53C,.007*%
%ADD54C,.0035*%
%ADD55C,.06004*%
%ADD56C,.03776*%
G75*
%LPD*%
G75*
G36*
G01X-64928Y-65002D02*
X-52529D01*
Y-66622D01*
G03X-51528Y-67624I1001J-1D01*
G01X-48575D01*
X-48177Y-68022D01*
G02X-48530Y-68876I-353J-354D01*
G01X-51528D01*
G03X-52029Y-69378I0J-501D01*
G01Y-73314D01*
G03X-51528Y-73816I501J-1D01*
G01X-47590D01*
G03X-47560Y-73815I-2J501D01*
G02X-47157Y-73981I30J-499D01*
G03X-46410Y-74316I748J666D01*
G01X-42472D01*
G03X-41472Y-73367I0J1002D01*
G02X-40649Y-73012I499J-26D01*
G03X-40630Y-73028I654J758D01*
G02X-40473Y-73583I-314J-389D01*
G03X-40502Y-73750I473J-168D01*
G01Y-76050D01*
G03X-40000Y-76551I502J1D01*
G01X-38000D01*
G03X-37498Y-76050I0J502D01*
G01Y-73750D01*
G03X-37527Y-73583I-502J-1D01*
G02X-37370Y-73028I471J166D01*
G03X-36998Y-72250I-630J779D01*
G01Y-71002D01*
X-35698D01*
X-33902Y-72798D01*
Y-81500D01*
G03X-33550Y-82350I1202J0D01*
G01X-30796Y-85104D01*
Y-86898D01*
G03X-29794Y-87900I1002J0D01*
G01X-23900D01*
Y-93794D01*
G03X-22898Y-94796I1002J0D01*
G01X-1537D01*
G02X-546Y-95932I0J-1000D01*
G03X-551Y-96000I496J-71D01*
G01Y-98000D01*
G03X-50Y-98502I502J0D01*
G01X2250D01*
G03X2384Y-98483I-3J502D01*
G02X3017Y-98930I134J-482D01*
G03X3048Y-99167I1884J126D01*
G02X2067Y-100361I-981J-194D01*
G01X-47066D01*
G02X-47741Y-98623I0J1000D01*
G03X-44183Y-90551I-7377J8072D01*
G03X-55118Y-79616I-10935J0D01*
G03X-63190Y-83174I0J-10935D01*
G02X-64928Y-82499I-738J675D01*
G01Y-65002D01*
G37*
G36*
G01X-48070Y-20241D02*
G02X-47603Y-19742I500J0D01*
G03X-46670Y-18742I-69J1000D01*
G01Y-15742D01*
G03X-47672Y-14740I-1002J0D01*
G01X-57670D01*
G03X-58490Y-15166I0J-1002D01*
G02X-58971Y-15374I-410J287D01*
G03X-59242Y-15354I-274J-1868D01*
G03Y-19130I0J-1888D01*
G03X-58971Y-19110I-3J1888D01*
G02X-58490Y-19318I71J-495D01*
G03X-57670Y-19744I820J576D01*
G01X-51072D01*
Y-21539D01*
X-57670D01*
G03X-58505Y-21987I0J-1002D01*
G02X-59064Y-22190I-417J277D01*
G03X-59600Y-22112I-537J-1810D01*
G03Y-25888I0J-1888D01*
G03X-59098Y-25820I0J1887D01*
G02X-58534Y-26049I133J-482D01*
G03X-58443Y-26179I864J508D01*
G01X-58329Y-26318D01*
Y-26998D01*
X-64928D01*
Y27382D01*
G02X-63190Y28056I1000J-1D01*
G03X-55118Y24498I8072J7377D01*
G03X-50064Y25736I0J10935D01*
G02X-48602Y24850I462J-887D01*
G01Y24472D01*
G02X-49497Y23478I-1000J0D01*
G03X-50755Y22803I197J-1878D01*
G02X-51809Y22481I-771J637D01*
G03X-51950Y22502I-144J-481D01*
G01X-54250D01*
G03X-54417Y22473I1J-502D01*
G02X-54583Y22445I-165J472D01*
G01X-54972Y22630D01*
G03X-55750Y23002I-779J-630D01*
G01X-58050D01*
G03X-59051Y22000I1J-1002D01*
G01Y20000D01*
G03X-58618Y19175I1002J0D01*
G01X-58402Y19026D01*
Y18509D01*
X-58444Y18413D01*
G03X-58530Y18008I916J-406D01*
G01Y13284D01*
G03X-57528Y12282I1002J0D01*
G01X-56170D01*
Y6769D01*
G03X-55819Y5919I1202J-1D01*
G01X-54952Y5053D01*
X-55386Y4619D01*
X-55493Y4581D01*
G03X-55953Y4344I626J-1781D01*
G03X-57039Y4688I-1087J-1544D01*
G03X-58927Y2800I0J-1888D01*
G03X-57820Y1081I1888J0D01*
G01X-57526Y948D01*
Y-221D01*
X-57860Y-339D01*
G03X-58530Y-1284I331J-945D01*
G01Y-6008D01*
G03X-57783Y-6977I1002J0D01*
G01X-57411Y-7460D01*
X-57831Y-7954D01*
G03X-58366Y-8222I161J-989D01*
G03X-59000Y-8112I-635J-1778D01*
G03X-60888Y-10000I0J-1888D01*
G03X-59084Y-11886I1888J0D01*
G02X-58628Y-12238I-22J-500D01*
G03X-57671Y-12945I958J295D01*
G01X-47672D01*
G03X-46670Y-11943I0J1002D01*
G01Y-9456D01*
X-46543Y-9329D01*
G03X-46147Y-8372I-958J957D01*
G03X-46148Y-8318I-1353J2D01*
G01Y-7561D01*
X-45603D01*
X-45559Y-7569D01*
G03X-45200Y-7602I362J1969D01*
G03X-43224Y-5921I0J2002D01*
G01X-43156Y-5502D01*
X-39609D01*
Y-6475D01*
X-40082Y-6501D01*
G03X-41062Y-6938I81J-1499D01*
G01X-42662Y-8538D01*
G03X-43102Y-9600I1062J-1062D01*
G01Y-18385D01*
X-43902Y-19185D01*
Y-23570D01*
X-44062Y-23730D01*
G03X-44090Y-23759I1066J-1057D01*
G01X-44094Y-23764D01*
X-44962Y-24632D01*
G02X-46670Y-23925I-708J707D01*
G01Y-22541D01*
G03X-47603Y-21541I-1002J0D01*
G02X-48070Y-21042I33J499D01*
G01Y-20241D01*
G37*
G36*
G01X-42500Y-55252D02*
G03X-41600Y-54952I-1J1502D01*
G02X-40400I600J-800D01*
G03X-39500Y-55252I901J1202D01*
G01X-39231D01*
X-39197Y-55256D01*
G03X-38900Y-55276I294J2156D01*
G01X-35502D01*
Y-58050D01*
G03X-35000Y-58551I502J1D01*
G01X-33000D01*
G03X-32498Y-58050I0J502D01*
G01Y-56004D01*
X-30296D01*
Y-58551D01*
G03X-30295Y-58581I502J2D01*
G02X-30461Y-58985I-499J-31D01*
G03X-30796Y-59732I667J-748D01*
G01Y-62094D01*
G03X-30603Y-62685I1001J0D01*
G03X-30796Y-63276I808J-591D01*
G01Y-65638D01*
G03X-30603Y-66228I1002J1D01*
G03X-30796Y-66819I808J-591D01*
G01Y-69181D01*
G03X-30792Y-69263I1002J8D01*
G01X-30773Y-69493D01*
X-31291Y-70010D01*
X-34250Y-67050D01*
G03X-35100Y-66698I-850J-850D01*
G01X-36998D01*
Y-65750D01*
G03X-37370Y-64972I-1002J-1D01*
G02X-37527Y-64417I314J389D01*
G03X-37498Y-64250I-473J168D01*
G01Y-61950D01*
G03X-38000Y-61449I-502J-1D01*
G01X-40000D01*
G03X-40502Y-61950I0J-502D01*
G01Y-64250D01*
G03X-40473Y-64417I502J1D01*
G02X-40630Y-64972I-471J-166D01*
G03X-40981Y-65550I630J-778D01*
G01X-41063Y-65950D01*
X-41971D01*
Y-62686D01*
G03X-42472Y-62184I-502J0D01*
G01X-46410D01*
G03X-46440Y-62185I2J-501D01*
G02X-46843Y-62019I-30J499D01*
G03X-47590Y-61684I-748J-666D01*
G01X-51998D01*
Y-58676D01*
X-50355Y-57033D01*
G02X-49502Y-57387I353J-354D01*
G01Y-58050D01*
G03X-49000Y-58551I502J1D01*
G01X-47000D01*
G03X-46498Y-58050I0J502D01*
G01Y-55750D01*
G03X-46500Y-55713I-502J-9D01*
G01X-46501Y-55695D01*
Y-55176D01*
X-43974D01*
X-43907Y-55195D01*
G03X-43500Y-55252I410J1445D01*
G01X-42500D01*
G37*
G36*
G01X19415Y-11702D02*
X19920Y-11196D01*
G02X20774Y-11550I354J-354D01*
G01Y-19302D01*
X18218Y-21857D01*
G03X17874Y-22689I832J-831D01*
G01Y-31511D01*
G03X18218Y-32343I1176J-1D01*
G01X18420Y-32545D01*
G02X18067Y-33398I-354J-353D01*
G01X17056D01*
X14708Y-31050D01*
G03X13858Y-30698I-850J-850D01*
G01X-5600D01*
G03X-6450Y-31050I0J-1202D01*
G01X-11598Y-36198D01*
X-15600D01*
G03X-16450Y-36550I0J-1202D01*
G01X-21103Y-41204D01*
X-22898D01*
G03X-23900Y-42206I0J-1002D01*
G01Y-48600D01*
X-29794D01*
G03X-30296Y-49102I0J-502D01*
G01Y-51650D01*
X-32005D01*
X-32152Y-51417D01*
G03X-33000Y-50949I-848J-534D01*
G01X-33666D01*
X-33700Y-50944D01*
G03X-34000Y-50924I-294J-2156D01*
G01X-37788D01*
X-37886Y-50880D01*
G03X-38500Y-50748I-616J-1370D01*
G01X-39500D01*
G03X-40400Y-51048I1J-1502D01*
G02X-41600I-600J800D01*
G03X-42500Y-50748I-901J-1202D01*
G01X-43500D01*
G03X-43907Y-50805I3J-1502D01*
G01X-43974Y-50824D01*
X-47900D01*
G03X-48489Y-50905I-1J-2176D01*
G01X-48556Y-50924D01*
X-49500D01*
G03X-51039Y-51561I-1J-2176D01*
G01X-51144Y-51666D01*
G02X-51998Y-51312I-354J353D01*
G01Y-30386D01*
G02X-51519Y-29886I500J0D01*
G01X-51506D01*
G02X-50984Y-30330I25J-499D01*
G03X-48000Y-33002I2984J330D01*
G03X-44998Y-30000I0J3002D01*
G03X-45075Y-29324I-3002J0D01*
G01X-45138Y-29054D01*
X-44755Y-28671D01*
G02X-43902Y-29025I353J-354D01*
G01Y-40915D01*
X-42615Y-42202D01*
X-37085D01*
X-35698Y-40815D01*
Y-32832D01*
G02X-33991Y-32125I1000J0D01*
G01X-33915Y-32202D01*
X-32893D01*
X-32743Y-32375D01*
G03X-32669Y-32455I1139J979D01*
G01X-31962Y-33162D01*
G03X-30900Y-33602I1062J1062D01*
G01X-18300D01*
G03X-17238Y-33162I0J1502D01*
G01X-16079Y-32002D01*
X-10950D01*
G03X-9948Y-31000I0J1002D01*
G01Y-29000D01*
G03X-10029Y-28605I-1004J0D01*
G02X-9397Y-27939I459J197D01*
G03X-9050Y-28002I350J939D01*
G01X-6750D01*
G03X-5972Y-27630I-1J1002D01*
G02X-5417Y-27473I389J-314D01*
G03X-5250Y-27502I168J473D01*
G01X-2950D01*
G03X-2449Y-27000I-1J502D01*
G01Y-25000D01*
G03X-2950Y-24498I-502J0D01*
G01X-5250D01*
G03X-5417Y-24527I1J-502D01*
G02X-5972Y-24370I-166J471D01*
G03X-6521Y-24025I-779J-630D01*
G01X-6906Y-23934D01*
Y-23038D01*
X-4856D01*
G03X-4110Y-22705I0J1002D01*
G01X-3961Y-22538D01*
X-2888D01*
G03X-2387Y-22036I-1J501D01*
G01Y-18313D01*
X1836D01*
G03X2436Y-18114I1J1002D01*
G02X3715Y-18183I598J-801D01*
G03X5000Y-18688I1285J1382D01*
G03X5830Y-18496I0J1888D01*
G03X6550Y-18802I721J696D01*
G01X8850D01*
G03X9628Y-18430I-1J1002D01*
G02X10183Y-18273I389J-314D01*
G03X10350Y-18302I168J473D01*
G01X12650D01*
G03X13151Y-17800I-1J502D01*
G01Y-15800D01*
G03X13115Y-15612I-502J1D01*
G02X13346Y-14520I927J374D01*
G03X13652Y-13800I-696J721D01*
G01Y-11702D01*
X19415D01*
G37*
G36*
G01X-47066Y45243D02*
X-39931D01*
Y44644D01*
X-39968Y44553D01*
G03X-40006Y44362I463J-191D01*
G01Y39638D01*
G03X-39504Y39136I502J0D01*
G01X-38501D01*
G02X-37794Y37429I0J-1000D01*
G01X-42677Y32547D01*
G02X-44367Y33437I-707J707D01*
G03X-44183Y35433I-10751J1998D01*
G03X-47741Y43505I-10935J0D01*
G02X-47066Y45243I675J738D01*
G37*
G36*
G01X-42600Y-27500D02*
X-37900D01*
X-36700Y-28700D01*
Y-40400D01*
X-37500Y-41200D01*
X-42200D01*
X-42900Y-40500D01*
Y-27800D01*
X-42600Y-27500D01*
G37*
G36*
G01X-42100Y-18800D02*
X-29200D01*
X-28800Y-19200D01*
Y-30100D01*
X-29900Y-31200D01*
X-33500D01*
X-35200Y-29500D01*
Y-25400D01*
X-35800Y-24800D01*
X-41900D01*
X-42900Y-23800D01*
Y-19600D01*
X-42100Y-18800D01*
G37*
G36*
G01X-34100Y14900D02*
X-30400D01*
X-29500Y14000D01*
Y-3200D01*
X-30800Y-4500D01*
X-42400D01*
X-43100Y-3800D01*
Y-300D01*
X-42250Y550D01*
X-36850D01*
X-35600Y1800D01*
Y13400D01*
X-34100Y14900D01*
G37*
G36*
G01X-42600Y17700D02*
X-37900D01*
X-37200Y17000D01*
Y4300D01*
X-37500Y4000D01*
X-42200D01*
X-43400Y5200D01*
Y16900D01*
X-42600Y17700D01*
G37*
G36*
G01X-39505Y22187D02*
X-32417D01*
G03X-31916Y22688I0J501D01*
G01Y28398D01*
G03X-32417Y28899I-501J0D01*
G01X-36056D01*
G02X-36763Y30606I0J1000D01*
G01X-33971Y33398D01*
X-15330D01*
X-14702Y32770D01*
Y30985D01*
X-12115Y28398D01*
X-7693D01*
G02X-6696Y27474I0J-1000D01*
G03X-6448Y26634I2074J156D01*
G01X-6387Y26522D01*
Y25894D01*
X-7536D01*
G03X-8027Y25765I1J-1001D01*
G03X-8520Y25895I-494J-872D01*
G01X-13638D01*
G03X-13847Y25873I0J-1002D01*
G01X-14041Y25831D01*
X-14866Y26331D01*
X-15012Y26478D01*
Y26701D01*
G03X-16900Y28588I-1888J-1D01*
G03X-18788Y26700I0J-1888D01*
G01Y26687D01*
X-18786Y26477D01*
X-19047Y26217D01*
X-19918Y25823D01*
X-20087Y25865D01*
G03X-20330Y25895I-243J-972D01*
G01X-21247D01*
Y26438D01*
X-21239Y26480D01*
G03X-21212Y26796I-1861J318D01*
G01Y26800D01*
G03X-23100Y28688I-1888J0D01*
G03X-24160Y28362I0J-1888D01*
G02X-25584Y28683I-562J827D01*
G03X-27378Y29710I-1794J-1053D01*
G03X-29458Y27630I0J-2080D01*
G03X-28917Y26231I2079J0D01*
G01X-29287Y25394D01*
X-29976D01*
G03X-30478Y24893I0J-502D01*
G01Y20169D01*
G03X-29976Y19668I501J0D01*
G01X-27702D01*
Y16032D01*
G02X-29409Y15325I-1000J0D01*
G01X-29985Y15902D01*
X-31227D01*
X-31286Y15916D01*
G03X-32000Y16002I-713J-2916D01*
G03X-32714Y15916I-1J-3002D01*
G01X-32773Y15902D01*
X-34516D01*
G02X-36198Y16632I-682J730D01*
G01Y17415D01*
X-37485Y18702D01*
X-43198D01*
Y24171D01*
X-41713Y25656D01*
G02X-40006Y24949I707J-707D01*
G01Y22688D01*
G03X-39505Y22187I501J1D01*
G37*
G36*
G01X-31200Y32300D02*
X-27800D01*
X-27300Y31800D01*
Y30700D01*
X-29000Y29000D01*
Y28933D01*
X-29036Y28887D01*
G03X-29458Y27630I1658J-1256D01*
G03X-29036Y26373I2080J-1D01*
G01X-29000Y26327D01*
Y26300D01*
X-27809Y25109D01*
X-27820Y25023D01*
G03X-27828Y24893I993J-126D01*
G01Y20169D01*
G03X-27674Y19635I1001J0D01*
G01X-27648Y19593D01*
Y19269D01*
X-27702Y19215D01*
Y17398D01*
X-28000Y17100D01*
X-33300D01*
X-34000Y17800D01*
Y19000D01*
X-32800Y20200D01*
X-30000D01*
Y23900D01*
X-31600Y25500D01*
Y31900D01*
X-31200Y32300D01*
G37*
G36*
G01X-31991Y45243D02*
X-9D01*
Y44644D01*
X-46Y44553D01*
G03X-84Y44362I463J-191D01*
G01Y39638D01*
Y39620D01*
X-83Y39611D01*
Y39102D01*
X-31917D01*
Y39611D01*
X-31916Y39620D01*
Y44362D01*
G03X-31954Y44553I-501J0D01*
G01X-31991Y44644D01*
Y45243D01*
G37*
G36*
G01X-23386Y-49114D02*
X-20900D01*
X-14164Y-55850D01*
G03X-13314Y-56202I850J850D01*
G01X802D01*
X4598Y-59998D01*
Y-69700D01*
G03X4950Y-70550I1202J0D01*
G01X7510Y-73110D01*
X7512Y-73315D01*
G03X9400Y-75188I1888J15D01*
G03X11288Y-73300I0J1888D01*
G03X10845Y-72084I-1888J1D01*
G02X10803Y-71498I382J322D01*
G03X11088Y-70500I-1603J998D01*
G03X10705Y-69361I-1888J-1D01*
G03X11188Y-68143I-1405J1262D01*
G02X11523Y-67682I500J-11D01*
G03X12669Y-66559I-623J1782D01*
G03X13000Y-66588I330J1859D01*
G03X14105Y-66231I0J1889D01*
G02X14894Y-66697I293J-405D01*
G03X14886Y-66819I994J-126D01*
G01Y-69181D01*
G03X15079Y-69772I1001J0D01*
G03X14886Y-70362I809J-591D01*
G01Y-72724D01*
G03X15079Y-73315I1001J0D01*
G03X14886Y-73906I808J-591D01*
G01Y-76268D01*
G03X15079Y-76858I1002J1D01*
G03X14886Y-77449I808J-591D01*
G01Y-79811D01*
G03X15079Y-80402I1001J0D01*
G03X14886Y-80992I809J-591D01*
G01Y-81810D01*
X14066D01*
X13932Y-81519D01*
G03X11417Y-79908I-2515J-1158D01*
G03X8648Y-82677I0J-2769D01*
G03X9428Y-84603I2768J0D01*
G02X8788Y-86295I-719J-695D01*
G01X7697Y-87386D01*
X5449D01*
G03X5419Y-87387I2J-502D01*
G02X5016Y-87221I-30J499D01*
G03X4268Y-86886I-748J-668D01*
G01X-22886D01*
Y-84536D01*
G03X-23079Y-83945I-1001J0D01*
G03X-22886Y-83354I-808J591D01*
G01Y-80992D01*
G03X-22889Y-80921I-1002J-7D01*
G02X-22414Y-80386I499J36D01*
G03X-21357Y-80001I-88J1886D01*
G02X-20145I606J-796D01*
G03X-19000Y-80388I1145J1500D01*
G03X-17693Y-79862I0J1887D01*
G02X-16307I693J-721D01*
G03X-13693I1307J1361D01*
G02X-12307I693J-721D01*
G03X-9693I1307J1361D01*
G02X-8307I693J-721D01*
G03X-7000Y-80388I1307J1361D01*
G03Y-76612I0J1888D01*
G03X-8307Y-77138I0J-1887D01*
G02X-9693I-693J721D01*
G03X-12307I-1307J-1361D01*
G02X-13693I-693J721D01*
G03X-16307I-1307J-1361D01*
G02X-17693I-693J721D01*
G03X-19000Y-76612I-1307J-1361D01*
G03X-20145Y-76999I0J-1887D01*
G02X-21357I-606J796D01*
G03X-22411Y-76614I-1146J-1501D01*
G02X-22886Y-76115I25J499D01*
G01Y-73906D01*
G03X-23079Y-73315I-1001J0D01*
G03X-22886Y-72724I-808J591D01*
G01Y-70362D01*
G03X-23079Y-69772I-1002J-1D01*
G03X-22886Y-69181I-808J591D01*
G01Y-66819D01*
G03X-23079Y-66228I-1001J0D01*
G03X-22886Y-65638I-809J591D01*
G01Y-63276D01*
G03X-23079Y-62685I-1001J0D01*
G03X-22886Y-62094I-808J591D01*
G01Y-59732D01*
G03X-23221Y-58985I-1002J-1D01*
G02X-23387Y-58581I333J373D01*
G03X-23386Y-58551I-501J32D01*
G01Y-56189D01*
G03X-23387Y-56159I-502J-2D01*
G02X-23221Y-55755I499J31D01*
G03X-22886Y-55008I-667J748D01*
G01Y-52646D01*
G03X-23221Y-51899I-1002J-1D01*
G02X-23387Y-51495I333J373D01*
G03X-23386Y-51464I-501J32D01*
G01Y-49114D01*
G37*
G36*
G01X-18700Y-16100D02*
X-15160D01*
G02X-14813Y-16490I0J-350D01*
G03X-14822Y-16663I1492J-164D01*
G01Y-17682D01*
X-14836Y-17714D01*
G03X-14913Y-18100I925J-385D01*
G01Y-19413D01*
X-20700Y-25200D01*
X-24900D01*
X-25400Y-24700D01*
Y-19100D01*
X-25100Y-18800D01*
X-21400D01*
X-18700Y-16100D01*
G37*
G36*
G01X-26100Y2700D02*
X-22400D01*
X-14913Y-4787D01*
Y-5500D01*
G03X-14836Y-5886I1002J-1D01*
G01X-14822Y-5918D01*
Y-6752D01*
G03X-14802Y-6997I1511J0D01*
G01X-14800Y-7011D01*
Y-7400D01*
X-18700D01*
X-21900Y-4200D01*
X-26600D01*
Y2200D01*
X-26100Y2700D01*
G37*
G36*
G01X-20178Y9498D02*
X-18988D01*
G02X-18020Y8250I0J-1000D01*
G03X-18052Y8000I970J-251D01*
G01Y6000D01*
G03X-17746Y5280I1002J1D01*
G02X-17515Y4188I-696J-718D01*
G03X-17551Y4000I466J-187D01*
G01Y2000D01*
G03X-17050Y1498I502J0D01*
G01X-14750D01*
G03X-14583Y1527I-1J502D01*
G02X-14028Y1370I166J-471D01*
G03X-13250Y998I779J630D01*
G01X-12554D01*
Y-746D01*
X-12685Y-889D01*
G03X-12690Y-895I767J-645D01*
G01X-12839Y-1062D01*
X-13912D01*
G03X-14413Y-1564I0J-502D01*
G01Y-2664D01*
G02X-15267Y-3017I-500J0D01*
G01X-21985Y3702D01*
X-23231D01*
Y4305D01*
X-23190Y4400D01*
G03X-23148Y4600I-460J201D01*
G01Y8198D01*
X-22100D01*
G03X-21038Y8638I0J1502D01*
G01X-20178Y9498D01*
G37*
G36*
G01X-20000Y9500D02*
X-18300D01*
X-17756Y8956D01*
G02Y8708I-123J-124D01*
G03X-18050Y8000I705J-708D01*
G01Y6000D01*
G03X-17872Y5431I1000J1D01*
G01X-17789Y5311D01*
X-18500Y4600D01*
X-27000D01*
X-27300Y4900D01*
Y7800D01*
X-27200Y7900D01*
X-21600D01*
X-20000Y9500D01*
G37*
G36*
G01X-26400Y19100D02*
X-21800D01*
X-21300Y18600D01*
Y13100D01*
X-21800Y12600D01*
X-26300D01*
X-26700Y13000D01*
Y18800D01*
X-26400Y19100D01*
G37*
G36*
G01X-18412Y25405D02*
X-19544Y24893D01*
X-18990Y22360D01*
X-18363Y20169D01*
X-18188Y25237D01*
G03X-18412Y25405I-175J0D01*
G37*
G36*
G01X-16218Y20093D02*
X-16393Y24893D01*
X-17025Y22701D01*
X-17574Y20169D01*
X-16405Y19919D01*
G03X-16218Y20093I12J175D01*
G37*
G36*
G01X23084Y28398D02*
X24551D01*
G02X25548Y27474I0J-1000D01*
G03X26083Y26231I2074J156D01*
G01X25713Y25394D01*
X25024D01*
G03X24522Y24893I0J-502D01*
G01Y20169D01*
G03X25024Y19668I501J0D01*
G01X27278D01*
X27427Y19501D01*
G03X27725Y19274I745J669D01*
G01X28001Y19135D01*
Y18326D01*
X22789D01*
G03X21957Y17982I-1J-1176D01*
G01X21118Y17143D01*
G03X20774Y16311I832J-831D01*
G01Y6350D01*
G02X19920Y5996I-500J0D01*
G01X19116Y6800D01*
X19702Y7385D01*
Y19415D01*
X18115Y21002D01*
X13085D01*
X11050Y18966D01*
X10115Y19902D01*
X8773D01*
X8714Y19916D01*
G03X8000Y20002I-713J-2916D01*
G03X7286Y19916I-1J-3002D01*
G01X7227Y19902D01*
X6485D01*
X5098Y18515D01*
Y17773D01*
X5084Y17714D01*
G03X4998Y17000I2916J-713D01*
G03X5084Y16286I3002J-1D01*
G01X5098Y16227D01*
Y12702D01*
X3545D01*
X3396Y12868D01*
G03X2650Y13202I-747J-668D01*
G01X-3450D01*
G03X-4452Y12200I0J-1002D01*
G01Y10200D01*
G03X-4197Y9533I1002J1D01*
G02Y8867I-373J-333D01*
G03X-4452Y8200I747J-668D01*
G01Y6200D01*
G03X-4197Y5533I1002J1D01*
G02Y4867I-373J-333D01*
G03X-4290Y4745I748J-666D01*
G02X-5139Y4761I-420J272D01*
G03X-5370Y5028I-861J-511D01*
G02X-5527Y5583I314J389D01*
G03X-5498Y5750I-473J168D01*
G01Y8050D01*
G03X-6000Y8551I-502J-1D01*
G01X-8000D01*
G03X-8502Y8050I0J-502D01*
G01Y5750D01*
G03X-8473Y5583I502J1D01*
G02X-8630Y5028I-471J-166D01*
G03X-8998Y4332I630J-778D01*
G02X-9981Y4249I-498J41D01*
G03X-10203Y4667I-970J-247D01*
G02Y5333I373J333D01*
G03X-9948Y6000I-747J668D01*
G01Y8000D01*
G03X-10203Y8667I-1002J-1D01*
G02Y9333I373J333D01*
G03X-9948Y10000I-747J668D01*
G01Y12000D01*
G03X-10082Y12500I-1002J-1D01*
G02X-9215Y13998I867J498D01*
G01X-8354D01*
G03X-6939Y14585I-1J2002D01*
G01X-4939Y16585D01*
G03X-4352Y18000I-1415J1416D01*
G01Y19595D01*
G03X-4306Y19668I-824J570D01*
G01X-2024D01*
G03X-1522Y20169I0J502D01*
G01Y24893D01*
G03X-2024Y25394I-501J0D01*
G01X-2713D01*
X-3083Y26231D01*
G03X-2548Y27474I-1539J1399D01*
G02X-1551Y28398I997J-76D01*
G01X-84D01*
Y22688D01*
G03X418Y22187I502J1D01*
G01X7504D01*
G03X8006Y22688I0J501D01*
G01Y24662D01*
G02X9646Y25431I1000J0D01*
G03X11417Y24790I1772J2128D01*
G03X14023Y26624I0J2768D01*
G01X14142Y26955D01*
X14994D01*
Y25874D01*
X14984Y25824D01*
G03X14955Y25543I1359J-282D01*
G03X14984Y25262I1388J1D01*
G01X14994Y25212D01*
Y22688D01*
G03X15496Y22187I502J1D01*
G01X22582D01*
G03X23084Y22688I1J501D01*
G01Y28398D01*
G37*
G36*
G01X-15782Y25407D02*
X-15607Y20169D01*
X-14981Y22360D01*
X-14426Y24893D01*
X-15537Y25567D01*
G03X-15782Y25407I-70J-161D01*
G37*
G36*
G01X-12400Y36400D02*
X1800D01*
X4000Y34200D01*
X46300D01*
X49800Y30700D01*
Y29632D01*
X49683Y29591D01*
G03X48298Y27630I696J-1961D01*
G03X49515Y25738I2079J0D01*
G02X49692Y25283I-146J-319D01*
G03X49612Y24893I922J-392D01*
G01Y20682D01*
X49606D01*
G03X48393Y20241I0J-1889D01*
G01X48344Y20200D01*
X48000D01*
X47500Y20700D01*
Y24600D01*
X45000Y27100D01*
X32600D01*
X30600Y25100D01*
Y20500D01*
X30200Y20100D01*
X28388D01*
Y24893D01*
G03X28308Y25283I-1002J-2D01*
G02X28485Y25738I323J136D01*
G03X29702Y27630I-862J1892D01*
G03X27622Y29710I-2080J0D01*
G03X26530Y29400I0J-2080D01*
G01X13485D01*
G03X11417Y30328I-2068J-1840D01*
G03X9349Y29400I0J-2768D01*
G01X-3530D01*
G03X-4622Y29710I-1092J-1770D01*
G03X-5714Y29400I0J-2080D01*
G01X-11700D01*
X-13700Y31400D01*
Y35100D01*
X-12400Y36400D01*
G37*
G36*
G01X300Y-3500D02*
X9600D01*
X9900Y-3800D01*
Y-9300D01*
X9400Y-9800D01*
X5900D01*
X4720Y-8620D01*
X4709Y-8570D01*
G03X3730Y-7591I-1256J-277D01*
G01X3680Y-7580D01*
X3600Y-7500D01*
X-1630D01*
G02X-1980Y-7159I0J350D01*
G03X-1990Y-7007I-1886J-48D01*
G03X-1979Y-6821I-1489J181D01*
G01Y-5918D01*
X-1965Y-5885D01*
G03X-1921Y-5755I-923J385D01*
G01X-1909Y-5709D01*
X300Y-3500D01*
G37*
G36*
G01X-115Y-2498D02*
X-680Y-3064D01*
G02X-2387Y-2357I-707J707D01*
G01Y-1563D01*
G03X-2888Y-1062I-501J0D01*
G01X-3656D01*
G02X-4009Y-208I0J500D01*
G01X-2602Y1198D01*
X-1150D01*
G03X-372Y1570I-1J1002D01*
G01X17Y1755D01*
G02X183Y1727I1J-500D01*
G03X350Y1698I168J473D01*
G01X2650D01*
G03X3151Y2200I-1J502D01*
G01Y4200D01*
G03X3115Y4388I-502J1D01*
G02X3346Y5480I927J374D01*
G03X3652Y6200I-696J721D01*
G01Y8200D01*
G03X3398Y8866I-1002J-1D01*
G01X3272Y9008D01*
Y9171D01*
G03X3742Y9698I-623J1029D01*
G01X4998D01*
Y7750D01*
G03X5065Y7391I995J0D01*
G01X5098Y7304D01*
Y3285D01*
X6355Y2029D01*
X6349Y1814D01*
G03X6348Y1800I499J-43D01*
G01Y-1400D01*
G03X6350Y-1433I501J14D01*
G02X5352Y-2498I-998J-65D01*
G01X-115D01*
G37*
G36*
G01X-4172Y25000D02*
X-2200D01*
X-1900Y24700D01*
Y24600D01*
X-2000Y24500D01*
Y21800D01*
X-1400Y21200D01*
X2900D01*
X3700Y20400D01*
Y15100D01*
X2900Y14300D01*
X-3700D01*
X-4400Y15000D01*
Y17566D01*
X-4396Y17584D01*
G03X-4352Y18000I-1958J417D01*
G01Y19595D01*
G03X-4172Y20169I-821J573D01*
G01Y25000D01*
G37*
G36*
G01X54523Y-50102D02*
X55498D01*
Y-52250D01*
G03X55527Y-52417I502J1D01*
G02X55370Y-52972I-471J-166D01*
G03X54998Y-53750I630J-779D01*
G01Y-56095D01*
G03X54125Y-57687I1015J-1592D01*
G03X54698Y-59042I1889J0D01*
G01Y-61002D01*
X43985Y-71715D01*
G03X43715Y-72130I851J-849D01*
G01X43591Y-72449D01*
X42000D01*
G03X41498Y-72950I0J-502D01*
G01Y-75250D01*
G03X41527Y-75417I502J1D01*
G02X41370Y-75972I-471J-166D01*
G03X40998Y-76750I630J-779D01*
G01Y-79050D01*
G03X41432Y-79874I1002J1D01*
G01X41648Y-80023D01*
Y-80935D01*
X41266Y-81027D01*
G03X40498Y-82000I234J-974D01*
G01Y-85800D01*
G03X40699Y-86400I1002J2D01*
G02Y-87600I-800J-600D01*
G03X40498Y-88200I801J-602D01*
G01Y-92000D01*
G03X41500Y-93001I1002J1D01*
G01X44500D01*
G03X45502Y-92000I0J1002D01*
G01Y-88798D01*
X46500Y-87799D01*
X47498Y-88798D01*
Y-92000D01*
G03X48500Y-93001I1002J1D01*
G01X51500D01*
G03X52502Y-92000I0J1002D01*
G01Y-88200D01*
G03X52301Y-87600I-1002J-2D01*
G02Y-86400I800J600D01*
G03X52416Y-86203I-802J600D01*
G02X53447Y-85613I915J-404D01*
G03X53665Y-85626I221J1875D01*
G03X54014Y-85594I3J1888D01*
G02X55198Y-86576I184J-982D01*
G01Y-91800D01*
G03X55550Y-92650I1202J0D01*
G01X61555Y-98654D01*
G02X60848Y-100361I-707J-707D01*
G01X7733D01*
G02X6752Y-99167I0J1000D01*
G03X6788Y-98800I-1853J367D01*
G03X6784Y-98681I-1888J-4D01*
G03X6876Y-98566I-734J682D01*
G02X8408Y-98424I825J-565D01*
G01X9285Y-99302D01*
X35515D01*
X36702Y-98115D01*
Y-90885D01*
X35515Y-89698D01*
X28685D01*
X28209Y-90175D01*
G02X26502Y-89468I-707J707D01*
G01Y-88302D01*
X35715D01*
X36702Y-87315D01*
Y-82885D01*
X35515Y-81698D01*
X28385D01*
X27855Y-82229D01*
G02X27002Y-81875I-353J354D01*
G01Y-80750D01*
G03X26630Y-79972I-1002J-1D01*
G02X26473Y-79417I314J389D01*
G03X26502Y-79250I-473J168D01*
G01Y-76950D01*
G03X26000Y-76449I-502J-1D01*
G01X24000D01*
G03X23932Y-76454I3J-501D01*
G02X22796Y-75463I-136J991D01*
G01Y-73906D01*
G03X22603Y-73315I-1001J0D01*
G03X22796Y-72724I-808J591D01*
G01Y-70362D01*
G03X22603Y-69772I-1002J-1D01*
G03X22796Y-69181I-808J591D01*
G01Y-66819D01*
G03X22603Y-66228I-1001J0D01*
G03X22796Y-65638I-809J591D01*
G01Y-64802D01*
X28015D01*
X28359Y-64458D01*
X28408Y-64427D01*
G03X28734Y-64101I-526J852D01*
G01X28765Y-64052D01*
X29202Y-63615D01*
Y-58685D01*
X27315Y-56798D01*
X23985D01*
X23149Y-57635D01*
G02X22296Y-57281I-353J354D01*
G01Y-56189D01*
G03X22295Y-56159I-502J-2D01*
G02X22461Y-55755I499J31D01*
G03X22796Y-55008I-667J748D01*
G01Y-53802D01*
G02X23649Y-53448I500J0D01*
G01X24450Y-54250D01*
G03X25300Y-54602I850J850D01*
G01X45702D01*
X47098Y-55998D01*
Y-57144D01*
G03X46412Y-58600I1202J-1456D01*
G03X50188I1888J0D01*
G03X50157Y-58258I-1888J1D01*
G02X50541Y-57679I492J91D01*
G03X52024Y-55835I-405J1844D01*
G01Y-55822D01*
G03X54002Y-53000I-1024J2822D01*
G03X53643Y-51576I-3002J0D01*
G02X54523Y-50102I880J474D01*
G37*
G36*
G01X9200Y-87300D02*
X11100D01*
X11700Y-87900D01*
Y-93500D01*
X12179Y-93979D01*
X12190Y-93998D01*
G03X12332Y-94140I346J204D01*
G01X12351Y-94151D01*
X12600Y-94400D01*
X25400D01*
X29100Y-90700D01*
X35100D01*
X35700Y-91300D01*
Y-97700D01*
X35100Y-98300D01*
X9700D01*
X8600Y-97200D01*
Y-94411D01*
G03X8812Y-93794I-789J616D01*
G01Y-87888D01*
G03X8807Y-87784I-1001J4D01*
G01X8799Y-87701D01*
X9200Y-87300D01*
G37*
G36*
G01X7811Y-48614D02*
G03X7841Y-48613I-2J502D01*
G02X8244Y-48779I30J-499D01*
G03X8992Y-49114I748J668D01*
G01X11869D01*
Y-49687D01*
X11849Y-49757D01*
G03X11798Y-50100I1151J-346D01*
G01Y-53944D01*
G03X11199Y-54833I1202J-1456D01*
G02X9538Y-55239I-954J301D01*
G01X4250Y-49950D01*
G03X4237Y-49938I-822J-877D01*
G02X4480Y-49091I349J358D01*
G03X5016Y-48779I-211J979D01*
G02X5419Y-48613I373J-333D01*
G03X5449Y-48614I32J501D01*
G01X7811D01*
G37*
G36*
G01X6900Y18900D02*
X9700D01*
X10600Y18000D01*
Y7200D01*
X11200Y6600D01*
X17900D01*
X19300Y5200D01*
Y-10400D01*
X19000Y-10700D01*
X14000D01*
X12900Y-9600D01*
Y2300D01*
X12500Y2700D01*
X10792D01*
X10758Y2715D01*
G03X10350Y2802I-408J-913D01*
G01X6998D01*
X6100Y3700D01*
Y18100D01*
X6900Y18900D01*
G37*
G36*
G01X13500Y20000D02*
X17700D01*
X18700Y19000D01*
Y7800D01*
X18400Y7500D01*
X13700D01*
X13100Y8100D01*
Y12700D01*
X12500Y13300D01*
Y19000D01*
X13500Y20000D01*
G37*
G36*
G01X7931Y45243D02*
X15069D01*
Y44644D01*
X15032Y44553D01*
G03X14994Y44362I463J-191D01*
G01Y39888D01*
X10886D01*
G03X10036Y39536I0J-1202D01*
G01X9590Y39090D01*
X9385Y39088D01*
G03X8671Y38942I14J-1888D01*
G02X7992Y39520I-193J461D01*
G03X8006Y39638I-488J118D01*
G01Y44362D01*
G03X7968Y44553I-501J0D01*
G01X7931Y44644D01*
Y45243D01*
G37*
G36*
G01X15900Y-88302D02*
X23498D01*
Y-91050D01*
G03X24000Y-91551I502J1D01*
G01X25626D01*
G02X25979Y-92405I0J-500D01*
G01X24985Y-93398D01*
X15900D01*
Y-88302D01*
G37*
G36*
G01X28800Y-82700D02*
X35100D01*
X35700Y-83300D01*
Y-86900D01*
X35300Y-87300D01*
X16000D01*
X15500Y-86800D01*
Y-84900D01*
X15800Y-84600D01*
X26900D01*
X28800Y-82700D01*
G37*
G36*
G01X24400Y-57800D02*
X26900D01*
X28200Y-59100D01*
Y-63200D01*
X27600Y-63800D01*
X23700D01*
X23200Y-63300D01*
Y-59000D01*
X24400Y-57800D01*
G37*
G36*
G01X23600Y28300D02*
X24600D01*
X25562Y27338D01*
X25571Y27283D01*
G03X27070Y25625I2051J347D01*
G01X27198Y25589D01*
Y25125D01*
X27194Y25106D01*
G03X27172Y24893I979J-209D01*
G01Y20169D01*
G03X27194Y19956I1001J-4D01*
G01X27198Y19937D01*
Y19885D01*
X27219Y19865D01*
G03X27259Y19759I956J300D01*
G01X26400Y18900D01*
X20300D01*
X20200Y19000D01*
Y20800D01*
X21200Y21800D01*
X22700D01*
X23200Y22300D01*
Y27900D01*
X23600Y28300D01*
G37*
G36*
G01X36812Y19963D02*
X36637Y24893D01*
X36008Y22702D01*
X35456Y20169D01*
X36607Y19790D01*
G03X36812Y19963I30J172D01*
G37*
G36*
G01X36616Y25211D02*
X35456Y24893D01*
X36007Y22361D01*
X36637Y20169D01*
X36812Y25037D01*
G03X36616Y25211I-175J0D01*
G37*
G36*
G01X38782Y19893D02*
X38607Y24893D01*
X37978Y22702D01*
X37426Y20169D01*
X38567Y19723D01*
G03X38782Y19893I40J171D01*
G37*
G36*
G01X41366Y19969D02*
X42544Y20169D01*
X41995Y22701D01*
X41363Y24893D01*
X41188Y20144D01*
G03X41366Y19969I175J0D01*
G37*
G36*
G01X57491Y-64508D02*
G02X59198Y-65215I707J-707D01*
G01Y-66702D01*
X55550Y-70350D01*
G03X55198Y-71200I850J-850D01*
G01Y-79154D01*
G02X53699Y-80020I-1000J0D01*
G03X52756Y-79768I-942J-1636D01*
G03X52540Y-79780I-3J-1888D01*
G02X51989Y-79206I-57J497D01*
G03X52002Y-79050I-989J161D01*
G01Y-76750D01*
G03X51630Y-75972I-1002J-1D01*
G02X51473Y-75417I314J389D01*
G03X51502Y-75250I-473J168D01*
G01Y-72950D01*
G03X51000Y-72449I-502J-1D01*
G01X50757D01*
G02X50404Y-71595I0J500D01*
G01X57491Y-64508D01*
G37*
G36*
G01X53700Y28400D02*
X62377D01*
X63100Y27677D01*
Y23400D01*
X61700Y22000D01*
X55100D01*
X53200Y20100D01*
X51000D01*
X50828Y20272D01*
Y24893D01*
G03X50806Y25106I-1001J4D01*
G01X50802Y25125D01*
Y25502D01*
X50922Y25622D01*
X50965Y25634D01*
G03X52374Y27043I-587J1996D01*
G01X52386Y27086D01*
X53700Y28400D01*
G37*
G36*
G01X51917Y26231D02*
G03X52458Y27630I-1538J1399D01*
G03X52271Y28493I-2080J1D01*
G02X52744Y29200I455J207D01*
G03X52800Y29198I82J1499D01*
G01X54962D01*
Y28622D01*
X54939Y28548D01*
G03X54916Y28398I479J-150D01*
G01Y22688D01*
G03X55418Y22187I501J1D01*
G01X56440D01*
G02X57346Y20763I0J-1000D01*
G03X57306Y20672I1708J-805D01*
G02X56213Y20062I-927J376D01*
G03X55900Y20088I-312J-1862D01*
G03X54117Y18820I0J-1888D01*
G02X53009Y18163I-944J329D01*
G03X52700Y18188I-306J-1863D01*
G03X51244Y17502I0J-1888D01*
G01X49202D01*
Y18401D01*
G03X49187Y18589I-1202J-1D01*
G01X49180Y18628D01*
Y19168D01*
X49827D01*
G03X50573Y19501I0J1002D01*
G01X50722Y19668D01*
X52976D01*
G03X53478Y20169I0J502D01*
G01Y24893D01*
G03X52976Y25394I-501J0D01*
G01X52287D01*
X51917Y26231D01*
G37*
G36*
G01X72732Y-85976D02*
X72002Y-86701D01*
X72843Y-89900D01*
X73684Y-86701D01*
X72954Y-85976D01*
G03X72732I-111J-167D01*
G37*
G36*
G01X81625Y-94059D02*
X82687Y-92999D01*
X81504Y-89800D01*
X80320Y-92999D01*
X81383Y-94059D01*
G03X81625I121J159D01*
G37*
G36*
G01X81374Y-85371D02*
X80126Y-86701D01*
X81504Y-89900D01*
X82882Y-86701D01*
X81634Y-85371D01*
G03X81374I-130J-152D01*
G37*
G36*
G01X77666Y-84747D02*
X75795Y-86701D01*
X77166Y-89900D01*
X78551Y-86701D01*
X77985Y-84819D01*
G03X77666Y-84747I-185J-77D01*
G37*
G36*
G01X75795Y-93205D02*
X78551Y-92999D01*
X77253Y-89667D01*
X75795Y-86701D01*
X75595Y-93005D01*
G03X75795Y-93205I200J0D01*
G37*
G36*
G01X101736Y-73863D02*
G02X103443Y-74570I707J-707D01*
G01Y-81573D01*
G02X102589Y-81926I-500J0D01*
G01X102314Y-81650D01*
G03X101464Y-81298I-850J-850D01*
G01X96856D01*
G03X95400Y-80612I-1456J-1202D01*
G03X94254Y-81000I0J-1888D01*
G02X93646I-304J397D01*
G03X92500Y-80612I-1146J-1500D01*
G03X91067Y-81270I0J-1889D01*
G02X89769Y-81461I-759J651D01*
G03X88765Y-81162I-1020J-1589D01*
G01X88560Y-81160D01*
X88350Y-80950D01*
G03X87500Y-80598I-850J-850D01*
G01X82300D01*
G03X81793Y-80711I2J-1202D01*
G02X80602Y-80443I-422J907D01*
G03X80106Y-80022I-1452J-1207D01*
G03X80000Y-79900I-958J-725D01*
G01X79654Y-79555D01*
G02X80008Y-78702I354J353D01*
G01X96400D01*
G03X97250Y-78350I0J1202D01*
G01X101736Y-73863D01*
G37*
G36*
G01X75998Y39098D02*
X97502D01*
G02X98209Y37391I0J-1000D01*
G01X96835Y36017D01*
G02X95287Y36182I-707J707D01*
G03X93701Y37046I-1586J-1024D01*
G03X92456Y36577I0J-1887D01*
G02X91796I-330J376D01*
G03X90551Y37046I-1245J-1418D01*
G03X88663Y35158I0J-1888D01*
G03X89086Y33967I1888J0D01*
G02X89006Y33257I-388J-316D01*
G03X88896Y33160I722J-929D01*
G01X88401Y32665D01*
G03X88056Y31833I831J-832D01*
G01Y31338D01*
G03X88123Y30948I1177J1D01*
G01X88227Y30652D01*
X87484Y29908D01*
G02X85776Y30615I-708J707D01*
G01Y31500D01*
G03X85432Y32332I-1176J1D01*
G01X84697Y33066D01*
X85101Y33470D01*
X85163Y33504D01*
G03X86140Y35158I-912J1654D01*
G03X84252Y37046I-1888J0D01*
G03X83607Y36932I1J-1888D01*
G01X83307Y36823D01*
X82999Y37132D01*
G03X82167Y37476I-831J-832D01*
G01X81452D01*
G03X80620Y37132I-1J-1176D01*
G01X80402Y36914D01*
X80320Y36876D01*
G03X79214Y35158I781J-1718D01*
G01Y35137D01*
G02X78214Y34126I-1000J-11D01*
G01X77691D01*
G02X76691Y35137I0J1000D01*
G01Y35158D01*
G03X75630Y36855I-1888J0D01*
G02X75361Y38461I438J899D01*
G01X75998Y39098D01*
G37*
G36*
G01X90035Y-85371D02*
X88787Y-86701D01*
X90165Y-89900D01*
X91543Y-86701D01*
X90295Y-85371D01*
G03X90035I-130J-152D01*
G37*
G36*
G01X177175Y-55507D02*
G03X177551Y-55202I-424J907D01*
G02X178949Y-55002I799J-601D01*
G03X179250Y-55102I301J402D01*
G01X183038D01*
Y-82499D01*
G02X181300Y-83174I-1000J0D01*
G03X173228Y-79616I-8072J-7377D01*
G03X162293Y-90551I0J-10935D01*
G03X165851Y-98623I10935J0D01*
G02X165176Y-100361I-675J-738D01*
G01X98452D01*
G02X97745Y-98654I0J1000D01*
G01X102234Y-94165D01*
X103491Y-94077D01*
X103535Y-94695D01*
X103488Y-94805D01*
G03X103449Y-95000I463J-194D01*
G01Y-97000D01*
G03X103950Y-97502I502J0D01*
G01X106250D01*
G03X106417Y-97473I-1J502D01*
G02X106972Y-97630I166J-471D01*
G03X107750Y-98002I779J630D01*
G01X110232D01*
G03X111600Y-98588I1367J1302D01*
G03X113488Y-96700I0J1888D01*
G03X111837Y-94827I-1888J0D01*
G03X110916Y-94499I-937J-1173D01*
G03X110050Y-93998I-867J-500D01*
G01X107750D01*
G03X106972Y-94370I1J-1002D01*
G02X106417Y-94527I-389J314D01*
G03X106250Y-94498I-168J-473D01*
G01X105156D01*
Y-93808D01*
X105283Y-93666D01*
G03X105536Y-93028I-748J666D01*
G01Y-86700D01*
G03X105509Y-86467I-1001J2D01*
G02X106481Y-85234I972J233D01*
G01X111032D01*
G03X111533Y-84732I-1J502D01*
G01Y-71802D01*
X121900D01*
G03X122689Y-71506I-1J1202D01*
G01X122831Y-71383D01*
X123518D01*
Y-72469D01*
X123238Y-72748D01*
G03X122798Y-73810I1062J-1062D01*
G01Y-79282D01*
X114480D01*
G03X113478Y-80283I0J-1002D01*
G01Y-86189D01*
G03X114480Y-87190I1001J0D01*
G01X122354D01*
G03X123356Y-86189I0J1002D01*
G01Y-85686D01*
G02X124209Y-85332I500J0D01*
G01X124238Y-85362D01*
G03X125300Y-85802I1062J1062D01*
G01X135800D01*
G03X136862Y-85362I0J1502D01*
G01X138937Y-83286D01*
G02X140644Y-83993I707J-707D01*
G01Y-86189D01*
G03X141646Y-87190I1001J0D01*
G01X149520D01*
G03X150522Y-86189I0J1002D01*
G01Y-85207D01*
X151399Y-84879D01*
G03X153937Y-86037I2538J2202D01*
G03X157297Y-82677I0J3360D01*
G03X156447Y-80443I-3361J0D01*
G02X156434Y-79128I747J665D01*
G03X156888Y-77900I-1434J1228D01*
G03X156858Y-77566I-1888J-1D01*
G03X157002Y-77050I-858J517D01*
G01Y-74750D01*
G03X157001Y-74740I-993J-94D01*
G02X157692Y-74272I500J6D01*
G03X158075Y-74348I383J926D01*
G01X162799D01*
G03X163800Y-73346I0J1001D01*
G01Y-66654D01*
G03X162799Y-65652I-1001J1D01*
G01X157025D01*
X156876Y-65434D01*
G03X156050Y-64998I-827J-566D01*
G01X154598D01*
X151150Y-61550D01*
G03X150709Y-61270I-849J-850D01*
G01X150379Y-61151D01*
Y-60300D01*
X166100D01*
X171110Y-55290D01*
G02X172533Y-55300I707J-708D01*
G03X172825Y-55507I716J700D01*
G02X173112Y-55968I-213J-452D01*
G01Y-56000D01*
G03X176888I1888J0D01*
G01Y-55968D01*
G02X177175Y-55507I500J9D01*
G37*
G36*
G01X101701Y-93199D02*
X104535Y-92999D01*
X103241Y-89668D01*
X101779Y-86701D01*
X101501Y-92997D01*
G03X101701Y-93199I200J-2D01*
G37*
G36*
G01X103027Y-85371D02*
X101779Y-86701D01*
X103157Y-89900D01*
X104535Y-86701D01*
X103287Y-85371D01*
G03X103027I-130J-152D01*
G37*
G36*
G01X97401Y-93199D02*
X100205Y-92999D01*
X98910Y-89668D01*
X97449Y-86701D01*
X97201Y-92998D01*
G03X97401Y-93199I200J-1D01*
G37*
G36*
G01X97201Y-86702D02*
X97449Y-92999D01*
X98910Y-90032D01*
X100205Y-86701D01*
X97401Y-86501D01*
G03X97201Y-86702I0J-200D01*
G37*
G36*
G01X131126Y-76510D02*
X131607Y-75953D01*
X131016Y-72950D01*
X130426Y-75953D01*
X130906Y-76510D01*
G03X131126I110J167D01*
G37*
G36*
G01X134843Y-69490D02*
X134363Y-70047D01*
X134953Y-73050D01*
X135544Y-70047D01*
X135063Y-69490D01*
G03X134843I-110J-167D01*
G37*
G36*
G01X128256Y-69985D02*
X128456Y-75953D01*
X129085Y-73196D01*
X129637Y-70047D01*
X128467Y-69786D01*
G03X128256Y-69985I-11J-200D01*
G37*
G36*
G01X129157Y-76510D02*
X129637Y-75953D01*
X129047Y-72950D01*
X128456Y-75953D01*
X128937Y-76510D01*
G03X129157I110J167D01*
G37*
G36*
G01X132193Y-69893D02*
X132393Y-75953D01*
X133021Y-73196D01*
X133574Y-70047D01*
X132419Y-69695D01*
G03X132193Y-69893I-26J-198D01*
G37*
G36*
G01X133821Y26160D02*
X135654Y24313D01*
X139125Y26437D01*
X135654Y28561D01*
X133821Y26714D01*
G03Y26160I416J-277D01*
G37*
G36*
G01X135401Y41001D02*
X142346Y41201D01*
X139042Y43590D01*
X135654Y45925D01*
X135201Y41212D01*
G03X135401Y41001I200J-11D01*
G37*
G36*
G01X148502Y-73100D02*
Y-69433D01*
G02X149801Y-68479I1000J0D01*
G03X149950Y-68502I150J479D01*
G01X152250D01*
G03X152417Y-68473I-1J502D01*
G02X152972Y-68630I166J-471D01*
G03X153141Y-68795I779J629D01*
G02X153266Y-70269I-608J-794D01*
G03X152998Y-70950I734J-682D01*
G01Y-73250D01*
G03X153133Y-73750I1002J2D01*
G02Y-74250I-433J-250D01*
G03X152998Y-74750I867J-502D01*
G01Y-77050D01*
G03X153142Y-77566I1002J1D01*
G03X153112Y-77900I1858J-335D01*
G03X153180Y-78404I1888J-2D01*
G02X152611Y-79590I-964J-267D01*
G03X151856Y-80039I1325J-3088D01*
G02X150379Y-79768I-619J785D01*
G03X149520Y-79282I-859J-516D01*
G01X145356D01*
G02X144649Y-77574I0J1000D01*
G01X148062Y-74162D01*
G03X148502Y-73100I-1062J1062D01*
G37*
G36*
G01X138884Y-69384D02*
X138300Y-70047D01*
X138889Y-73050D01*
X139481Y-70047D01*
X139144Y-69408D01*
G03X138884Y-69384I-144J-139D01*
G37*
G36*
G01X143491Y31092D02*
G02X145198Y30385I707J-707D01*
G01Y28300D01*
G03X145550Y27450I1202J0D01*
G01X147892Y25109D01*
G02X147185Y23402I-707J-707D01*
G01X147100D01*
G03X145825Y22943I1J-2002D01*
G02X145123Y23008I-318J386D01*
G03X143787Y23684I-1450J-1208D01*
G02X142848Y24683I61J998D01*
G01Y28799D01*
G03X142743Y29106I-501J0D01*
G02X142826Y30427I790J613D01*
G01X143491Y31092D01*
G37*
G36*
G01X144559Y26742D02*
X142346Y28799D01*
X138875Y26437D01*
X142346Y24075D01*
X144559Y26132D01*
G03Y26742I-396J305D01*
G37*
G36*
G01X143348Y45243D02*
X165176D01*
G02X165851Y43505I0J-1000D01*
G03X162293Y35433I7377J-8072D01*
G03X173228Y24498I10935J0D01*
G03X181300Y28056I0J10935D01*
G02X183038Y27381I738J-675D01*
G01Y5102D01*
X179250D01*
G03X178949Y5002I0J-502D01*
G02X177551Y5202I-599J801D01*
G03X177175Y5507I-800J-602D01*
G02X176888Y5968I213J452D01*
G01Y6000D01*
G03X175000Y7888I-1888J0D01*
G03X173606Y7273I0J-1887D01*
G02X172160Y7240I-739J674D01*
G01X171890Y7510D01*
Y9911D01*
G03X171451Y11163I-2001J1D01*
G02X171518Y11858I390J313D01*
G03X172188Y13300I-1217J1442D01*
G03X170315Y15188I-1888J0D01*
G01X170110Y15190D01*
X160449Y24851D01*
G03X159599Y25202I-849J-851D01*
G01X158081D01*
G02X157130Y26514I-1J1000D01*
G03X157297Y27559I-3193J1046D01*
G03X156114Y30118I-3359J0D01*
G01X155938Y30268D01*
Y30999D01*
X156500D01*
G03X157502Y32000I0J1002D01*
G01Y35800D01*
G03X157301Y36400I-1002J-2D01*
G02Y37600I800J600D01*
G03X157451Y37885I-800J603D01*
G02X157983Y38225I475J-157D01*
G03X158200Y38212I221J1875D01*
G03Y41988I0J1888D01*
G03X157983Y41975I4J-1888D01*
G02X157451Y42315I-57J497D01*
G03X156500Y43001I-951J-316D01*
G01X153500D01*
G03X152498Y42000I0J-1002D01*
G01Y38200D01*
G03X152699Y37600I1002J2D01*
G02Y36400I-800J-600D01*
G03X152504Y35901I801J-601D01*
G01X152458Y35452D01*
X151026D01*
X150885Y35718D01*
G03X150630Y36028I-885J-468D01*
G02X150473Y36583I314J389D01*
G03X150502Y36750I-473J168D01*
G01Y39050D01*
G03X150000Y39551I-502J-1D01*
G01X148000D01*
G03X147498Y39050I0J-502D01*
G01Y38915D01*
G02X145791Y38208I-1000J0D01*
G01X145150Y38850D01*
G03X144300Y39202I-850J-850D01*
G01X144081D01*
G02X143214Y40701I-1J1000D01*
G03X143348Y41201I-867J500D01*
G01Y45243D01*
G37*
G36*
G01X156942Y-70122D02*
X158075Y-71258D01*
X160487Y-70000D01*
X158075Y-68742D01*
X156942Y-69878D01*
G03Y-70122I158J-122D01*
G37*
G36*
G01X157238Y-67023D02*
X158149Y-73028D01*
X160472Y-70035D01*
X162558Y-66800D01*
X157429D01*
G03X157238Y-67023I8J-200D01*
G37*
G36*
G01X181817Y-17241D02*
G02X183038Y-18217I221J-975D01*
G01Y-50898D01*
X179250D01*
G03X178949Y-50998I0J-502D01*
G02X177551Y-50798I-599J801D01*
G03X177175Y-50493I-800J-602D01*
G02X176888Y-50032I213J452D01*
G01Y-50000D01*
G03X175000Y-48112I-1888J0D01*
G03X174684Y-48139I2J-1888D01*
G01X174642Y-48146D01*
X174100D01*
Y-47002D01*
X176250D01*
G03X177028Y-46630I-1J1002D01*
G02X177583Y-46473I389J-314D01*
G03X177750Y-46502I168J473D01*
G01X180050D01*
G03X180551Y-46000I-1J502D01*
G01Y-44000D01*
G03X180424Y-43666I-503J0D01*
G02Y-42334I746J666D01*
G03X180551Y-42000I-376J334D01*
G01Y-40000D01*
G03X180424Y-39666I-503J0D01*
G02Y-38334I746J666D01*
G03X180551Y-38000I-376J334D01*
G01Y-36000D01*
G03X180424Y-35666I-503J0D01*
G02Y-34334I746J666D01*
G03X180551Y-34000I-376J334D01*
G01Y-32000D01*
G03X180424Y-31666I-503J0D01*
G02Y-30334I746J666D01*
G03X180551Y-30000I-376J334D01*
G01Y-28000D01*
G03X180424Y-27666I-503J0D01*
G02Y-26334I746J666D01*
G03X180551Y-26000I-376J334D01*
G01Y-24000D01*
G03X180515Y-23812I-502J1D01*
G02X180746Y-22720I927J374D01*
G03X181052Y-22000I-696J721D01*
G01Y-20000D01*
G03X180797Y-19333I-1002J-1D01*
G02Y-18667I373J333D01*
G03X181052Y-18000I-747J668D01*
G01Y-17783D01*
G02X181520Y-17284I500J0D01*
G03X181817Y-17241I-121J1884D01*
G37*
G36*
G01X177175Y493D02*
G03X177551Y798I-424J907D01*
G02X178949Y998I799J-601D01*
G03X179250Y898I301J402D01*
G01X183038D01*
Y-12583D01*
G02X181817Y-13559I-1000J-1D01*
G03X181499Y-13515I-417J-1841D01*
G02X180551Y-12516I52J999D01*
G01Y-12000D01*
G03X180050Y-11498I-502J0D01*
G01X177750D01*
G03X177583Y-11527I1J-502D01*
G02X177028Y-11370I-166J471D01*
G03X176913Y-11249I-781J-627D01*
G02Y-9751I662J749D01*
G03X177028Y-9630I-666J748D01*
G02X177583Y-9473I389J-314D01*
G03X177750Y-9502I168J473D01*
G01X180050D01*
G03X180551Y-9000I-1J502D01*
G01Y-7000D01*
G03X180050Y-6498I-502J0D01*
G01X177750D01*
G03X177583Y-6527I1J-502D01*
G02X177028Y-6370I-166J471D01*
G03X176913Y-6249I-781J-627D01*
G02Y-4751I662J749D01*
G03X177028Y-4630I-666J748D01*
G02X177583Y-4473I389J-314D01*
G03X177750Y-4502I168J473D01*
G01X180050D01*
G03X180551Y-4000I-1J502D01*
G01Y-2000D01*
G03X180050Y-1498I-502J0D01*
G01X177750D01*
G03X177583Y-1527I1J-502D01*
G02X177028Y-1370I-166J471D01*
G03X176902Y-1240I-779J-629D01*
G02X176761Y-680I325J380D01*
G03X176888Y0I-1761J681D01*
G01Y32D01*
G02X177175Y493I500J9D01*
G37*
%LPC*%
G75*
G36*
G01X-693Y-79862D02*
G02X-2000Y-80388I-1307J1361D01*
G02Y-76612I0J1888D01*
G02X-693Y-77138I0J-1887D01*
G03X693I693J721D01*
G02X2000Y-76612I1307J-1361D01*
G02Y-80388I0J-1888D01*
G02X693Y-79862I0J1887D01*
G03X-693I-693J-721D01*
G37*
G36*
G01X-15662Y-69307D02*
G02X-16188Y-68000I1361J1307D01*
G02X-12412I1888J0D01*
G02X-12938Y-69307I-1887J0D01*
G03Y-70693I721J-693D01*
G02X-12412Y-72000I-1361J-1307D01*
G02X-16188I-1888J0D01*
G02X-15662Y-70693I1887J0D01*
G03Y-69307I-721J693D01*
G37*
G36*
G01X37922Y-59443D02*
X38070Y-59413D01*
X38685Y-58798D01*
X43015D01*
X45102Y-60885D01*
Y-67515D01*
X43915Y-68702D01*
X40485D01*
X36998Y-65215D01*
Y-60485D01*
X37106Y-60377D01*
X37136Y-60229D01*
G02X37922Y-59443I982J-196D01*
G37*
G36*
G01X174700Y-73346D02*
Y-66654D01*
G02X175201Y-66152I501J1D01*
G01X179925D01*
G02X180426Y-66654I0J-501D01*
G01Y-73346D01*
G02X179925Y-73848I-501J-1D01*
G01X175201D01*
G02X174700Y-73346I0J501D01*
G37*
G54D55*
X8000Y-23000D03*
G54D56*
X165600Y-76700D03*
%LPD*%
G75*
G36*
G01X39100Y-59800D02*
X42600D01*
X44100Y-61300D01*
Y-66998D01*
G03X43293Y-67700I785J-1717D01*
G01X40900D01*
X38000Y-64800D01*
Y-60900D01*
X39100Y-59800D01*
G37*
G36*
G01X177342Y-65515D02*
X176165Y-66654D01*
X177563Y-70125D01*
X178961Y-66654D01*
X177784Y-65515D01*
G03X177342I-221J-448D01*
G37*
G36*
G01X180956Y-69795D02*
X179925Y-68718D01*
X177438Y-70000D01*
X179925Y-71282D01*
X180956Y-70205D01*
G03Y-69795I-456J205D01*
G37*
G54D10*
X-55118Y-90551D03*
Y35433D03*
X173228Y-90551D03*
Y35433D03*
G54D20*
X-40000Y-30000D03*
Y-22000D03*
Y-2000D03*
Y6000D03*
G54D11*
X-57579Y-71612D03*
X-62579D03*
X-57579Y-76612D03*
X-62579D03*
X-63233Y-18535D03*
Y-23535D03*
X-59242Y-17242D03*
X-59600Y-24000D03*
X-63233Y-7735D03*
Y-12735D03*
X-59000Y-10000D03*
X-63233Y3665D03*
Y-1335D03*
X-63133Y9765D03*
Y14765D03*
X-63033Y20365D03*
Y25365D03*
X-47804Y-78548D03*
X-52804D03*
X-49559Y-74141D03*
X-52954Y-71346D03*
X-50100Y-59500D03*
X-48000Y-56900D03*
X-49300Y-49100D03*
X-50300Y-45900D03*
X-47400Y-46000D03*
X-50231Y-37706D03*
Y-42706D03*
X-51600Y-28000D03*
X-52100Y-13600D03*
X-53000Y300D03*
X-57039Y2800D03*
X-54867D03*
X-51200Y3000D03*
X-49700Y4700D03*
X-48100Y9000D03*
X-53100Y22800D03*
X-49300Y21600D03*
X-41578Y-98968D03*
X-39000Y-77400D03*
Y-60900D03*
X-44441Y-61359D03*
X-42046Y-64654D03*
X-44500Y-58800D03*
X-39900D03*
X-46500Y-49100D03*
X-43300D03*
X-40400Y-49000D03*
X-37700Y-49100D03*
X-45700Y-57200D03*
X-41900Y-57100D03*
X-37700Y-56900D03*
X-44200Y-46000D03*
X-41100D03*
X-37500Y-45900D03*
X-46500Y-40800D03*
X-44500Y-42900D03*
X-38234Y-39992D03*
X-41234D03*
X-46800Y-36700D03*
X-41234Y-36892D03*
X-38234D03*
X-41234Y-33892D03*
X-38234D03*
X-45200Y-11200D03*
Y-15300D03*
X-39200Y-12000D03*
X-45200Y-5600D03*
Y-2600D03*
X-41866Y10392D03*
X-38866D03*
X-41866Y13392D03*
X-38866D03*
Y16492D03*
X-41866D03*
X-31578Y-98968D03*
X-36578D03*
X-32733Y-89535D03*
X-34900Y-79000D03*
X-32733Y-84535D03*
X-26841Y-78630D03*
Y-68000D03*
X-32900Y-60200D03*
X-35800Y-61600D03*
X-26841Y-57370D03*
Y-50283D03*
X-34000Y-56900D03*
X-34600Y-49100D03*
X-31800D03*
X-34700Y-46200D03*
X-31600Y-46900D03*
X-27194Y-39173D03*
X-32194D03*
X-27194Y-44173D03*
X-32194D03*
X-27900Y-12000D03*
X-27884Y-15400D03*
X-27000Y-8000D03*
X-32400Y18400D03*
X-30000D03*
X-35961Y26961D03*
X-31000Y28000D03*
X-30700Y30400D03*
X-28400Y31200D03*
X-35961Y42000D03*
X-29903Y41116D03*
X-16578Y-98968D03*
X-21578D03*
X-26578D03*
X-21717Y-90817D03*
X-18173Y-90841D03*
X-19000Y-78500D03*
X-22502D03*
X-26657Y-71543D03*
X-19637Y-62994D03*
X-17556Y-59625D03*
X-21733Y-40235D03*
X-22700Y-28800D03*
X-21733Y-35235D03*
X-20500Y-8847D03*
Y-14753D03*
X-20406Y7299D03*
X-18469Y8487D03*
X-22600Y14100D03*
X-24037Y16386D03*
X-25400Y14400D03*
X-16900Y26700D03*
X-23100Y26800D03*
X-19903Y41116D03*
X-24903D03*
X-6578Y-98968D03*
X-11578D03*
X-7543Y-90841D03*
X-14630D03*
X-11087D03*
X-7000Y-78500D03*
X-11000D03*
X-15000D03*
X-14300Y-72000D03*
Y-68000D03*
X-14637Y-62994D03*
X-13700Y-58200D03*
X-6866Y-7208D03*
X-9866D03*
X-12866D03*
X-6866Y-10208D03*
X-9866D03*
X-12866D03*
X-6866Y-13208D03*
X-9866D03*
X-12866D03*
X-6866Y-16208D03*
X-9866D03*
X-12866D03*
X-15900Y3000D03*
X-7416Y216D03*
X-7000Y6955D03*
X-15091Y18691D03*
X-7092Y31934D03*
X-9903Y41116D03*
X-14903D03*
X-7092Y34934D03*
X1100Y-98774D03*
X-4000Y-90841D03*
X-457D03*
X3087D03*
X2000Y-78500D03*
X-2000D03*
X3500Y-38000D03*
X1300Y-40500D03*
X-1000Y-26000D03*
X-3866Y-7208D03*
Y-10208D03*
Y-13208D03*
Y-16208D03*
X3453Y-8847D03*
Y-14753D03*
X2100Y19900D03*
Y17800D03*
Y15800D03*
X2843Y25543D03*
X-1150Y26050D03*
X-2192Y31934D03*
X-4692D03*
X3961Y42000D03*
X-4903Y41116D03*
X-2192Y34934D03*
X-4692D03*
X4900Y-98800D03*
X6630Y-90841D03*
X13717D03*
X7467Y-78835D03*
Y-83835D03*
X14000Y-67700D03*
X5900Y-74400D03*
X9200Y-70500D03*
X9300Y-68100D03*
X9400Y-73300D03*
X13000Y-64700D03*
X10900Y-65900D03*
X7800Y-50800D03*
X13000Y-55400D03*
X12900Y-38100D03*
X10300Y-40600D03*
X14200Y-16800D03*
X5000D03*
X8000Y-23000D03*
X4100Y3200D03*
X5900Y200D03*
X14034Y13892D03*
Y16392D03*
Y18792D03*
X9400Y37200D03*
X12900D03*
X21300Y-89900D03*
X18841Y-50283D03*
Y-57370D03*
X20800Y-38185D03*
X15600Y-29500D03*
X16700Y-31600D03*
X22300Y-29700D03*
X17267Y-18635D03*
X22800Y-23200D03*
X22500Y-26100D03*
X17267Y-13635D03*
X17034Y13892D03*
X24410Y13790D03*
X21260Y19961D03*
X17034Y16392D03*
Y18792D03*
X16343Y25543D03*
X23800Y27200D03*
X16500Y43000D03*
X25000Y-66200D03*
X25200Y-62000D03*
X25100Y-59039D03*
X25200Y-55700D03*
X28500Y-48800D03*
X30400Y-47200D03*
X25314Y-48850D03*
X24707Y-46084D03*
X30024Y-41700D03*
X29100Y-43714D03*
X26800Y-36200D03*
X24714Y-29492D03*
X31186Y-24200D03*
X34122Y-22061D03*
X34500Y-24200D03*
X29700Y-21500D03*
X27900Y-24300D03*
X26200Y-21500D03*
X28400Y-7800D03*
X29600Y-12000D03*
X26800Y-16000D03*
X30500Y4000D03*
X30600Y8000D03*
X27600Y13500D03*
X30800Y13654D03*
X33858Y14758D03*
X38462Y-81692D03*
X44884Y-68716D03*
X42599Y-66501D03*
X40900Y-64801D03*
X36700Y-24200D03*
X40700Y-24800D03*
X44300Y-25800D03*
X38500Y-12814D03*
X39700Y-4900D03*
X37400Y2000D03*
X44700Y-200D03*
X43300Y12600D03*
X40100Y16900D03*
X37008Y14800D03*
X49606Y-93894D03*
X54000Y-96500D03*
X50000Y-96600D03*
X52756Y-81656D03*
X53665Y-83738D03*
X46321Y-75079D03*
X48300Y-58600D03*
X50136Y-55835D03*
X53300Y-26989D03*
X48900Y-25800D03*
X46728D03*
X51100Y-19100D03*
X48500D03*
X54599Y-19199D03*
X51100Y-16000D03*
X54900Y-15800D03*
X49200Y-2000D03*
X52100Y2000D03*
Y6000D03*
X53100Y11300D03*
X50296Y12015D03*
X48124D03*
X49486Y4214D03*
X52700Y16300D03*
X49606Y18794D03*
X46400Y17900D03*
X57700Y-96500D03*
X56500Y-68700D03*
X62279Y-75079D03*
X56013Y-57687D03*
X58249Y-57312D03*
X63500Y-52900D03*
X59500Y-48800D03*
X58905Y-55000D03*
X58801Y-42089D03*
X63000Y-46600D03*
X64528Y-37913D03*
X59410Y-45590D03*
X64528Y-22559D03*
X61968D03*
X59213Y-22500D03*
X57600Y-9389D03*
X59410Y3032D03*
X64528Y472D03*
X58149Y13349D03*
X59410Y5590D03*
X61968D03*
X64528D03*
X55400Y11400D03*
X55900Y18200D03*
X65354Y21246D03*
X59055Y19961D03*
X62205D03*
X58986Y27815D03*
X61334Y26168D03*
X61600Y28100D03*
X65350Y35400D03*
X62200D03*
X55900Y36100D03*
X59055Y35158D03*
X59000Y42165D03*
X64300Y42600D03*
X74803Y-79303D03*
X67472Y-82528D03*
X73400Y-82900D03*
X71000Y-62600D03*
X72205Y-40472D03*
X69646Y-37913D03*
X72205D03*
X74763D03*
X67087D03*
X69646Y-35354D03*
X67087D03*
Y-30237D03*
X74763Y-27678D03*
Y-30237D03*
X74764Y-35354D03*
X69646Y-30237D03*
X72205D03*
Y-35354D03*
X74764Y-32795D03*
X74763Y-17441D03*
X72205Y-22560D03*
X74763Y-25118D03*
Y-22560D03*
X69646Y-20000D03*
X67087Y-25118D03*
X72205D03*
X69646D03*
X74763Y-14882D03*
X72205D03*
X74763Y-9763D03*
Y-12322D03*
X67087Y-14882D03*
X69646Y-7204D03*
X67087Y-7205D03*
X72204Y-9763D03*
X72205Y-12323D03*
X67087Y-12322D03*
X69646Y-12323D03*
X74764Y-7205D03*
X69646Y-14882D03*
X72205Y-7205D03*
Y-4646D03*
X74763Y-2086D03*
X67087Y472D03*
X74763Y-4646D03*
X67087D03*
Y-2087D03*
X72205D03*
X74800Y17900D03*
X74803Y35158D03*
X71654D03*
X68504D03*
X73300Y41300D03*
X68600Y43300D03*
X85799Y-96300D03*
X85835Y-83865D03*
X82800Y-83700D03*
X79150Y-81650D03*
X76200Y-81800D03*
X79404Y-61000D03*
X77399Y-58499D03*
X82000Y-49000D03*
X80000Y-50000D03*
X85000Y-37913D03*
X79882Y-45590D03*
Y-43032D03*
Y-37913D03*
X82441Y-27678D03*
X79882D03*
X82441Y-30237D03*
X79882D03*
Y-32795D03*
X82441D03*
X77322Y-27678D03*
Y-30237D03*
X79882Y-35354D03*
X82441D03*
X85001Y-30236D03*
X79882Y-25118D03*
Y-17441D03*
X82441D03*
X77322D03*
X79882Y-22559D03*
X82441D03*
Y-25118D03*
X77322D03*
Y-22560D03*
X82441Y-9763D03*
Y-14882D03*
X79882D03*
X77322D03*
X79882Y-9763D03*
Y-12322D03*
X77322D03*
Y-9763D03*
X82441Y-7205D03*
X79882D03*
Y472D03*
Y-4646D03*
Y-2087D03*
X82441Y-4646D03*
Y-2087D03*
X77294Y26508D03*
X84252Y35158D03*
X81102D03*
X77953D03*
X89251Y-96414D03*
X90551Y-79251D03*
X95400Y-82500D03*
X92500D03*
X88750Y-83050D03*
X92700Y-61100D03*
X95000Y-65200D03*
X88000Y-54400D03*
X95175Y-55951D03*
X87351Y-47349D03*
X87560Y-37913D03*
X90118D03*
X87559Y-40472D03*
X92677Y-37913D03*
X87560Y-35354D03*
X90118Y-27678D03*
X87559D03*
X95237Y-30237D03*
X92678Y-27678D03*
X95237D03*
X87560Y-30237D03*
Y-32796D03*
X90118Y-30237D03*
X90119Y-35354D03*
X92677Y-32795D03*
X90118D03*
X87559Y-17441D03*
X90118D03*
X92678D03*
X95237D03*
X87559Y-22559D03*
Y-25118D03*
X90118D03*
X92678D03*
X95237Y-22559D03*
Y-25118D03*
X92678Y-22559D03*
X90118Y-9763D03*
Y-12322D03*
X87559Y-9763D03*
Y-12322D03*
Y-14882D03*
X90118D03*
X92678D03*
X95237D03*
Y-7204D03*
Y-9763D03*
X87560Y-7205D03*
X87559Y472D03*
X90118Y-2087D03*
Y-4646D03*
X92678Y-2087D03*
X92677Y-4646D03*
X87560D03*
X92000Y13200D03*
X92014Y10600D03*
Y8350D03*
X93701Y35158D03*
X90551D03*
X87402D03*
X101900Y-97500D03*
X106300Y-81800D03*
X97000Y-62900D03*
X102800Y-62600D03*
X102714Y-58900D03*
X101200Y-60600D03*
X101349Y-56751D03*
X105472Y-43032D03*
Y-37913D03*
X100354D03*
X102913D03*
X105472Y-32795D03*
X100354Y-35354D03*
Y-27678D03*
X102913D03*
X97795D03*
X100354Y-32795D03*
X102913Y-35354D03*
X97795Y-30237D03*
X102913Y-32795D03*
X97795Y-32796D03*
Y-35355D03*
Y-20001D03*
X105472Y-25118D03*
X102913D03*
X100354D03*
X98583Y-17859D03*
X100354Y-20001D03*
X102913D03*
X97795Y-25118D03*
X97796Y-14881D03*
X105472Y-7205D03*
Y-14882D03*
X97795Y-12323D03*
X100354Y-14882D03*
X102913D03*
X100354Y-7205D03*
X97795Y-9763D03*
X101634Y-11200D03*
X102913Y-7205D03*
X105472Y472D03*
Y-2087D03*
X97795Y472D03*
X97796Y-4646D03*
X100354Y-2087D03*
X102913D03*
Y-4646D03*
X106300Y24100D03*
X103102Y22096D03*
X115053Y-99121D03*
X111600Y-96700D03*
X115748Y-75079D03*
X116186Y-61300D03*
X112700Y-59500D03*
X111700Y-62600D03*
X111949Y-57051D03*
X108032Y-45590D03*
X110590D03*
X111900Y-41752D03*
X115200Y-22100D03*
X108032Y-2087D03*
X110590Y3032D03*
X106752Y8300D03*
X109796Y6166D03*
X110200Y12600D03*
X115986Y6586D03*
X116450Y13750D03*
X115400Y10900D03*
X109614Y10100D03*
X112900Y8700D03*
X108012Y25866D03*
X115600Y24661D03*
X112700D03*
X112598Y36586D03*
X115700Y38100D03*
X125053Y-99121D03*
X120053D03*
X126086Y-81900D03*
X122900Y-62700D03*
X125400D03*
X120600Y-62600D03*
X118000Y-62700D03*
X123500Y-53000D03*
X120013Y-46554D03*
X118700Y-44700D03*
X121601Y-27999D03*
X122000Y-24600D03*
X119929Y-23851D03*
X119450Y-17450D03*
X122300Y-20100D03*
X121669Y-14674D03*
X121328Y-9600D03*
X125402Y-9602D03*
X124000Y-14300D03*
X123350Y-7450D03*
X121400Y-800D03*
X125406Y1904D03*
X119300Y200D03*
X125401Y-3401D03*
X121600Y13100D03*
X124200Y7264D03*
X117650Y8550D03*
X118617Y13591D03*
X121400Y6200D03*
X125100Y23489D03*
X122000Y23400D03*
X118100Y25400D03*
X125200Y34700D03*
X122100Y36300D03*
X118900Y36614D03*
X135053Y-99121D03*
X130053D03*
X131496Y-81514D03*
X129300Y-82000D03*
X136132Y-68100D03*
X131851Y-68772D03*
X128000Y-62800D03*
X132000Y-64614D03*
X136800Y-44472D03*
X135300Y-37200D03*
X136500Y-41323D03*
X132800Y-37100D03*
X137000Y-29500D03*
X135861Y-33950D03*
X134200Y-32400D03*
X130688Y-27200D03*
X131000Y-20606D03*
X136600Y-20600D03*
X130688Y-24200D03*
X127100Y-13800D03*
X136577Y-13047D03*
X127851Y-6551D03*
X135487Y-4914D03*
X130000Y-3500D03*
X130514Y1684D03*
X127651Y4149D03*
X128700Y8700D03*
X128346Y23254D03*
X134161Y22300D03*
X131989D03*
X134237Y26437D03*
X128300Y31500D03*
X127600Y42900D03*
X134646Y35100D03*
X131500Y35200D03*
X145053Y-99121D03*
X140053D03*
X144094Y-90276D03*
X144600Y-78200D03*
X143800Y-68600D03*
X144000Y-63100D03*
X147000Y-66000D03*
X139000Y-66500D03*
X137827Y-49197D03*
X140977D03*
X144126D03*
X144127Y-46046D03*
X144126Y-42898D03*
X144127Y-39747D03*
X140977Y-42897D03*
Y-46047D03*
X144164Y-30336D03*
X140977Y-36598D03*
X137828D03*
X144126Y-27149D03*
Y-36598D03*
Y-33449D03*
X140989Y-30311D03*
X140977Y-27149D03*
X137100Y-25773D03*
X144088Y-20812D03*
X137827Y1197D03*
Y-5103D03*
X137323Y-1009D03*
X137800Y21200D03*
X143672Y21800D03*
X141500D03*
X144163Y26437D03*
X137801Y32199D03*
X144000Y35063D03*
X140900Y35100D03*
X154265Y-98667D03*
X149265D03*
X154265Y-93667D03*
X149265D03*
X154265Y-88467D03*
X155000Y-77900D03*
X151100Y-69200D03*
X152000Y-44033D03*
Y-41762D03*
X156762Y-39786D03*
X148187Y-32513D03*
X156287Y-26713D03*
X152410Y-26735D03*
X149600Y-35024D03*
X154600Y-36900D03*
X154500Y-32872D03*
Y-30600D03*
X156686Y-33486D03*
X148129Y-28371D03*
X150297Y-22322D03*
X153756Y-20256D03*
X154700Y-17000D03*
X152410Y-24464D03*
X152037Y-17911D03*
X154614Y-13828D03*
X151853Y-12600D03*
X154314Y-7514D03*
X153900Y-10642D03*
X148900Y-15600D03*
X150043Y-9250D03*
X150251Y-2418D03*
X153900Y-4200D03*
X151815Y1085D03*
X153900Y2200D03*
Y-1000D03*
X149300Y3800D03*
X151860Y-5900D03*
X151800Y7000D03*
X149394Y10182D03*
X154700Y11786D03*
X152000Y13400D03*
X154400Y5386D03*
X153900Y8600D03*
Y15000D03*
X151700Y18450D03*
X149650Y17014D03*
X149000Y40500D03*
X159265Y-98667D03*
Y-93667D03*
Y-88467D03*
X164465Y-80867D03*
X159465D03*
X165600Y-76700D03*
X160200Y-64100D03*
X165000Y-65000D03*
X166900Y-48200D03*
X164800Y-49900D03*
X161449D03*
X158299Y-50000D03*
X167394Y-39738D03*
X159912Y-39710D03*
X159836Y-42935D03*
X167600Y-45100D03*
Y-41900D03*
X159838Y-46082D03*
X163000Y-39700D03*
X163023Y-42897D03*
X163035Y-46035D03*
X167700Y-28599D03*
X159911Y-33411D03*
X159873Y-27149D03*
X162987Y-27113D03*
X162962Y-23938D03*
X162986Y-20814D03*
X159887Y-24013D03*
X167400Y-23600D03*
X166500Y-17700D03*
X166172Y-11402D03*
Y-8253D03*
X166173Y1197D03*
Y-5103D03*
Y-1953D03*
X159203Y31743D03*
Y26743D03*
X161106Y27382D03*
X158200Y40100D03*
X177563Y-65963D03*
X177700Y-59700D03*
X176159Y-61703D03*
X171159D03*
X175000Y-50000D03*
Y-56000D03*
X175100Y-37000D03*
Y-41000D03*
Y-45000D03*
X167900Y-36600D03*
X168500Y-32006D03*
X169851Y-33849D03*
X172500Y-22000D03*
X172100Y-19400D03*
X169600Y-25575D03*
X172500Y-13000D03*
Y-8000D03*
X168200Y-14500D03*
X172500Y-3000D03*
X175000Y0D03*
X172500Y-5500D03*
X174630Y9811D03*
X175000Y6000D03*
X170300Y13300D03*
X174630Y19811D03*
Y14811D03*
X168088Y21714D03*
X180500Y-70000D03*
X180800Y-72100D03*
X181159Y-61703D03*
X179000Y-63800D03*
X181000Y-50000D03*
Y-56000D03*
X181300Y-45000D03*
X181500Y-40000D03*
Y-35000D03*
Y-30000D03*
Y-26000D03*
Y-18000D03*
X181600Y-22000D03*
X181500Y-8000D03*
Y-13000D03*
X181600Y-10400D03*
X181400Y-15400D03*
X181000Y0D03*
X181500Y-3000D03*
X181000Y-6000D03*
Y6000D03*
X179630Y9811D03*
Y19811D03*
Y14811D03*
G54D21*
X-35961Y25543D03*
X3961D03*
X19039D03*
X58961D03*
G54D30*
X-7416Y-20068D03*
X-9384D03*
X-11353D03*
X-13321D03*
Y-3532D03*
X-11353D03*
X-9384D03*
X-7416D03*
X-3479Y-20068D03*
X-5447D03*
Y-3532D03*
X-3479D03*
G54D12*
X-59000Y-57039D03*
Y-36961D03*
G54D22*
X-35961Y42000D03*
X3961D03*
X19039D03*
X58961D03*
G54D31*
X-8400Y-11800D03*
G54D13*
X-56900Y21000D03*
X-53100D03*
X-27900Y-8000D03*
Y-16000D03*
X-32100Y-12000D03*
X-35900D03*
X-27900D03*
X-35900Y-16000D03*
X-32100D03*
X-35900Y-8000D03*
X-32100D03*
X-15900Y-30000D03*
Y-26000D03*
X-24100Y-8000D03*
Y-16000D03*
Y-12000D03*
X-15900Y3000D03*
Y11000D03*
Y7000D03*
X-12100Y-30000D03*
X-7900Y-26000D03*
X-12100D03*
Y3000D03*
Y11000D03*
Y7000D03*
X1100Y-97000D03*
X-4100Y-26000D03*
X-2300Y3200D03*
X1500D03*
Y11200D03*
X-2300D03*
X1500Y7200D03*
X-2300D03*
X4900Y-97000D03*
X7700Y-16800D03*
X11500D03*
Y-12800D03*
X7700D03*
X52100Y-45000D03*
Y-2000D03*
Y2000D03*
Y6000D03*
X55900Y-45000D03*
Y-2000D03*
Y2000D03*
Y6000D03*
X105100Y-96000D03*
X108900D03*
X127100Y-27000D03*
Y-20000D03*
Y-24000D03*
Y-12000D03*
Y-16000D03*
X130900Y-27000D03*
Y-20000D03*
Y-24000D03*
Y-12000D03*
Y-16000D03*
X154900Y-67000D03*
X151100D03*
X175100Y-37000D03*
Y-41000D03*
Y-45000D03*
Y-33000D03*
Y-29000D03*
Y-17000D03*
Y-21000D03*
Y-25000D03*
Y-13000D03*
Y-8000D03*
Y-3000D03*
X178900Y-37000D03*
Y-41000D03*
Y-45000D03*
Y-33000D03*
Y-29000D03*
Y-17000D03*
Y-21000D03*
Y-25000D03*
Y-13000D03*
Y-8000D03*
Y-3000D03*
G54D40*
X107488Y-78236D03*
G54D50*
G01X-39000Y-66900D02*
X-39400Y-67300D01*
X-47200D01*
X-49559Y-64941D01*
Y-64654D01*
G01X-54969Y15646D02*
Y6769D01*
X-51200Y3000D01*
G01X-53000Y15646D02*
Y8000D01*
X-49700Y4700D01*
G01X-44441Y-71346D02*
X-42595Y-69500D01*
X-40600D01*
X-39000Y-71100D01*
G01X-26841Y-85717D02*
X-28483D01*
X-32700Y-81500D01*
Y-72300D01*
X-35200Y-69800D01*
X-37700D01*
X-39000Y-71100D01*
G01X-26841Y-82173D02*
X-28428D01*
X-31600Y-79001D01*
Y-71400D01*
X-35100Y-67900D01*
X-38000D01*
X-39000Y-66900D01*
G01X-32100Y-12000D02*
Y-8000D01*
G01Y-12000D02*
X-30000Y-9900D01*
X-26300D01*
X-24200Y-12000D01*
X-24100D01*
G01X-16668Y-12784D02*
X-21484D01*
X-22400Y-13700D01*
X-29600D01*
X-31900Y-16000D01*
X-32100D01*
G01X-21717Y-90841D02*
Y-90817D01*
G01X-26841Y-71543D02*
X-26657D01*
G01X9200Y-70500D02*
X7500Y-68800D01*
Y-59100D01*
X2000Y-53600D01*
X-12200D01*
X-18173Y-47627D01*
Y-45159D01*
G01X9400Y-73300D02*
X5800Y-69700D01*
Y-59500D01*
X1300Y-55000D01*
X-13314D01*
X-21717Y-46598D01*
Y-45159D01*
G01X-18173D02*
Y-43573D01*
X-13650Y-39050D01*
X-10650D01*
X-4900Y-33300D01*
X12499D01*
X17384Y-38185D01*
X17385D01*
X19000Y-39800D01*
X28000D01*
X29100Y-38700D01*
X39400D01*
X42300Y-35800D01*
X52262D01*
X53862Y-34200D01*
X57400D01*
X57900Y-34700D01*
X62623D01*
X63248Y-34075D01*
G01X-21717Y-45159D02*
Y-43517D01*
X-15600Y-37400D01*
X-11100D01*
X-5600Y-31900D01*
X13858D01*
X16558Y-34600D01*
X38100D01*
X41700Y-31000D01*
X60173D01*
X60689Y-31516D01*
G01X-24100Y-12000D02*
X-22916Y-10816D01*
X-16668D01*
G01X9300Y-68100D02*
Y-59000D01*
X2350Y-52050D01*
X-9950D01*
X-14630Y-47370D01*
Y-45159D01*
G01X10900Y-65900D02*
Y-58300D01*
X3400Y-50800D01*
X-7300D01*
X-11087Y-47013D01*
Y-45159D01*
G01X-14630D02*
Y-43430D01*
X-11500Y-40300D01*
X-9900D01*
X-4400Y-34800D01*
X12200D01*
X18400Y-41000D01*
X28200D01*
X29100Y-40100D01*
X39800D01*
X42800Y-37100D01*
X52800D01*
X54400Y-35500D01*
X64382D01*
X65807Y-34075D01*
G01X-11087Y-45159D02*
Y-43187D01*
X-4100Y-36200D01*
X11000D01*
X12900Y-38100D01*
G01X-12100Y-30000D02*
Y-26000D01*
G01D02*
X-7900D01*
G01X-12100D02*
X-11353Y-25253D01*
Y-20068D01*
G01X-12100Y7000D02*
Y3000D01*
G01D02*
X-11353Y2253D01*
Y-3532D01*
G01X-12100Y7000D02*
Y11000D01*
G01X7700Y-12800D02*
X5716Y-10816D01*
X-132D01*
G01X-2300Y3200D02*
Y7200D01*
G01Y3200D02*
X-5447Y53D01*
Y-3532D01*
G01X-2300Y7200D02*
Y11200D01*
G01X13000Y-55400D02*
Y-50100D01*
X13717Y-49383D01*
Y-45159D01*
G01X59500Y-48800D02*
X59400Y-48900D01*
X50100D01*
X47200Y-51800D01*
X25600D01*
X23700Y-49900D01*
Y-47500D01*
X19800Y-43600D01*
X17400D01*
X14400Y-40600D01*
X10300D01*
G01X73300Y41300D02*
X70686Y38686D01*
X10886D01*
X9400Y37200D01*
G01X12900D02*
X49200D01*
X53500Y32900D01*
X62599D01*
X66824Y28675D01*
X74125D01*
X76292Y26508D01*
X77294D01*
G01X18841Y-82173D02*
X24727D01*
X25000Y-81900D01*
G01X48300Y-58600D02*
Y-55500D01*
X46200Y-53400D01*
X25300D01*
X22600Y-50700D01*
Y-48300D01*
X19459Y-45159D01*
X13717D01*
G01X20800Y-38185D02*
X28015D01*
X28700Y-37500D01*
X38300D01*
X42800Y-33000D01*
X58000D01*
X58600Y-33600D01*
X62193D01*
X62800Y-32993D01*
X64330D01*
X65807Y-31516D01*
G01X22300Y-29700D02*
X23700Y-31100D01*
X36700D01*
X40300Y-27500D01*
X52789D01*
X53300Y-26989D01*
G01X28500Y-48800D02*
X44928D01*
X48728Y-45000D01*
X52100D01*
G01X25314Y-48850D02*
X26864Y-50400D01*
X46000D01*
X49100Y-47300D01*
X60100D01*
X61900Y-45500D01*
Y-43900D01*
X62800Y-43000D01*
X63700D01*
X64500Y-42200D01*
Y-40300D01*
X65607Y-39193D01*
X65807D01*
G01X63248D02*
X62141Y-40300D01*
X57400D01*
X54900Y-42800D01*
X47528D01*
X43128Y-47200D01*
X30400D01*
G01X24707Y-46084D02*
X25191Y-45600D01*
X42100D01*
X46100Y-41600D01*
X54570D01*
X56978Y-39193D01*
X60689D01*
G01X30024Y-41700D02*
Y-41773D01*
X31151Y-42900D01*
X39900D01*
X43966Y-38834D01*
X53617D01*
X55817Y-36634D01*
X60689D01*
G01X29100Y-43714D02*
X29686Y-44300D01*
X41200D01*
X45500Y-40000D01*
X54100D01*
X56300Y-37800D01*
X62082D01*
X63248Y-36634D01*
G01X26800Y-36200D02*
X37900D01*
X42200Y-31900D01*
X58800D01*
X59500Y-32600D01*
X61135D01*
X62219Y-31516D01*
X63248D01*
G01X24714Y-29492D02*
X36508D01*
X39600Y-26400D01*
X43700D01*
X44300Y-25800D01*
G01X31186Y-24200D02*
Y-22314D01*
X32925Y-20575D01*
X34738D01*
X34848Y-20685D01*
X55215D01*
X58300Y-17600D01*
X64368D01*
X65807Y-16161D01*
G01X63248D02*
X62809Y-16600D01*
X57600D01*
X56714Y-17486D01*
X47214D01*
X45800Y-18900D01*
X32300D01*
X29700Y-21500D01*
G01X27900Y-24300D02*
Y-20900D01*
X31100Y-17700D01*
X45300D01*
X48900Y-14100D01*
X55368D01*
X56752Y-15484D01*
X62116D01*
X62916Y-14684D01*
X64726D01*
X65807Y-13602D01*
G01X63248D02*
X62219D01*
X61137Y-14684D01*
X57084D01*
X55500Y-13100D01*
X48000D01*
X44400Y-16700D01*
X30300D01*
X26133Y-20867D01*
Y-21433D01*
X26200Y-21500D01*
G01X24410Y13790D02*
X26400Y11800D01*
Y-2200D01*
X35500Y-11300D01*
X54900D01*
X56300Y-12700D01*
X59787D01*
X60689Y-13602D01*
G01X32110Y22531D02*
Y24411D01*
X34099Y26400D01*
X42001D01*
X43921Y24480D01*
Y22531D01*
G01X43000Y-90100D02*
Y-89600D01*
X45500Y-87100D01*
Y-76359D01*
X44835Y-75694D01*
Y-72565D01*
X55900Y-61500D01*
Y-58000D01*
X56013Y-57887D01*
Y-57687D01*
G01X60689Y-18720D02*
X58312D01*
X55547Y-21485D01*
X35215D01*
X34639Y-22061D01*
X34122D01*
G01X63248Y-18720D02*
X62480D01*
X61398Y-19802D01*
X58397D01*
X55914Y-22285D01*
X36415D01*
X34500Y-24200D01*
G01X65807Y-18720D02*
X64627Y-19900D01*
X62800D01*
X61900Y-20800D01*
X58600D01*
X56200Y-23200D01*
X37700D01*
X36700Y-24200D01*
G01X63248Y-5925D02*
X63123Y-5800D01*
X47000D01*
X45900Y-6900D01*
X38000D01*
X35700Y-4600D01*
Y9600D01*
X38700Y12600D01*
Y15100D01*
X40100Y16500D01*
Y16900D01*
G01X52700Y16300D02*
X48500D01*
X48000Y16800D01*
Y18401D01*
X47016Y19386D01*
X45286D01*
X43100Y17200D01*
Y15800D01*
X41400Y14100D01*
Y10200D01*
X39100Y7900D01*
Y-4500D01*
X39500Y-4900D01*
X39700D01*
G01X60689Y-807D02*
X58607D01*
X57900Y-100D01*
X47800D01*
X46000Y-1900D01*
X43700D01*
X43100Y-1300D01*
Y5600D01*
X46638Y9138D01*
Y14238D01*
X47038Y14638D01*
X56662D01*
X58050Y13250D01*
X58149Y13349D01*
G01X65807Y-5925D02*
X64682Y-4800D01*
X42500D01*
X40500Y-2800D01*
Y7500D01*
X43300Y10300D01*
Y12600D01*
G01X46400Y17900D02*
X45200Y16700D01*
Y10100D01*
X41900Y6800D01*
Y-2600D01*
X43200Y-3900D01*
X57900D01*
X58434Y-3366D01*
X60689D01*
G01X43921Y22531D02*
Y20622D01*
X41850Y18551D01*
Y16250D01*
X40200Y14600D01*
Y11700D01*
X37400Y8900D01*
Y2000D01*
G01X58249Y-57312D02*
Y-62051D01*
X47807Y-72493D01*
Y-75694D01*
X47200Y-76301D01*
Y-86800D01*
X50000Y-89600D01*
Y-90100D01*
G01X73484Y1752D02*
Y2616D01*
X72300Y3800D01*
Y5000D01*
X62900Y14400D01*
X59200D01*
X57300Y16300D01*
X52700D01*
G01X103157Y-89850D02*
Y-91543D01*
X95700Y-99000D01*
X63600D01*
X56400Y-91800D01*
Y-71200D01*
X60400Y-67200D01*
Y-52100D01*
X64700Y-47800D01*
Y-43700D01*
X65807Y-42593D01*
Y-41752D01*
G01X98827Y-89850D02*
X99000Y-90023D01*
Y-91400D01*
X95700Y-94700D01*
X93200D01*
X92650Y-95250D01*
Y-96150D01*
X92850Y-96350D01*
X94650D01*
X95217Y-96917D01*
Y-97483D01*
X94800Y-97900D01*
X65000D01*
X57400Y-90300D01*
Y-71600D01*
X61600Y-67400D01*
Y-52500D01*
X65807Y-48293D01*
Y-44311D01*
G01X68000Y-57900D02*
X66100Y-59800D01*
Y-70500D01*
X63765Y-72835D01*
Y-75935D01*
X61100Y-78600D01*
Y-88300D01*
X67600Y-94800D01*
X77799D01*
X79400Y-93199D01*
Y-84700D01*
X82300Y-81800D01*
X87500D01*
X88750Y-83050D01*
G01X68366Y-44311D02*
Y-49534D01*
X66000Y-51900D01*
Y-54328D01*
X65600Y-54728D01*
X64500D01*
X64100Y-55128D01*
Y-55928D01*
X64500Y-56328D01*
X65600D01*
X66000Y-56728D01*
Y-57900D01*
X64500Y-59400D01*
Y-68000D01*
X63627Y-68873D01*
Y-69439D01*
X64361Y-70173D01*
Y-70739D01*
X63796Y-71304D01*
X63230D01*
X62496Y-70570D01*
X61930D01*
X59900Y-72600D01*
Y-89000D01*
X66800Y-95900D01*
X83400D01*
X84034Y-95266D01*
Y-94700D01*
X83634Y-94300D01*
X81904D01*
X81504Y-93900D01*
Y-89850D01*
G01X85799Y-96300D02*
X84700D01*
X84000Y-97000D01*
X66000D01*
X58500Y-89500D01*
Y-72200D01*
X63000Y-67700D01*
Y-53400D01*
X63500Y-52900D01*
G01X70925Y-39193D02*
X69700Y-40418D01*
Y-42300D01*
X70900Y-43500D01*
Y-58300D01*
X67700Y-61500D01*
Y-70600D01*
X65000Y-73300D01*
Y-76500D01*
X62300Y-79200D01*
Y-86600D01*
X62800Y-87100D01*
X69700D01*
X70100Y-87500D01*
Y-88200D01*
X69700Y-88600D01*
X65325D01*
X65025Y-88900D01*
Y-89850D01*
X65425Y-90250D01*
X69850D01*
X70250Y-90650D01*
Y-91216D01*
X69850Y-91616D01*
X68355D01*
X67955Y-92016D01*
Y-92941D01*
X68714Y-93700D01*
X75100D01*
X77173Y-91627D01*
Y-89850D01*
G01X63500Y-52900D02*
Y-52700D01*
X67000Y-49200D01*
Y-40559D01*
X68366Y-39193D01*
G01X58905Y-55000D02*
X58805Y-54900D01*
X57000D01*
G01X55900Y-45000D02*
X56900Y-44000D01*
X59470D01*
X60470Y-43000D01*
X61200D01*
X62448Y-41752D01*
X63248D01*
G01Y-807D02*
X62166Y-1889D01*
X59900D01*
X59789Y-2000D01*
G01X59817Y670D02*
X62070D01*
X63152Y1752D01*
X63248D01*
G01X55400Y11400D02*
X64400D01*
X70400Y5400D01*
Y2760D01*
X69646Y2006D01*
Y-2087D01*
X70925Y-3366D01*
G01X55900Y18200D02*
X57500D01*
X60000Y15700D01*
X63000D01*
X73484Y5216D01*
Y4311D01*
G01X59055Y19961D02*
Y19945D01*
X62050Y16950D01*
X70050D01*
X72000Y18900D01*
G01X68000D02*
X63266D01*
X62205Y19961D01*
G01X55900Y36100D02*
Y36600D01*
X56900Y37600D01*
X72800D01*
X75500Y40300D01*
X128700D01*
X129900Y39100D01*
X130000D01*
G01X64300Y42600D02*
X66100D01*
X66800Y43300D01*
X68600D01*
G01X76200Y-81800D02*
X77200D01*
X77600Y-82200D01*
Y-82800D01*
X77000Y-83400D01*
X76300D01*
X75900Y-83800D01*
Y-85200D01*
X75350Y-85750D01*
X74750D01*
X74300Y-85300D01*
Y-84800D01*
X74017Y-84517D01*
X72383D01*
X72100Y-84800D01*
Y-85400D01*
X72843Y-86143D01*
Y-89850D01*
G01X76200Y-81800D02*
X75600Y-81200D01*
X72500D01*
X72100Y-80800D01*
Y-78200D01*
X72400Y-77900D01*
X73400D01*
X73617Y-77683D01*
Y-77117D01*
X71800Y-75300D01*
X70900D01*
X70600Y-75600D01*
Y-78500D01*
X70283Y-78817D01*
X69717D01*
X69234Y-78334D01*
Y-74200D01*
X68934Y-73900D01*
X68100D01*
X67700Y-74300D01*
Y-78400D01*
X67300Y-78800D01*
X66700D01*
X66200Y-78300D01*
Y-73900D01*
X67200Y-72900D01*
X70183D01*
X70583Y-72500D01*
Y-71683D01*
X70300Y-71400D01*
X69500D01*
X69100Y-71000D01*
Y-62100D01*
X71900Y-59300D01*
Y-42727D01*
X70925Y-41752D01*
G01X131016Y-73000D02*
Y-70517D01*
X128999Y-68500D01*
X122500D01*
X121500Y-69500D01*
X102700D01*
X95800Y-76400D01*
X78100D01*
X73900Y-72200D01*
Y-45425D01*
X74566Y-44759D01*
Y-43863D01*
X74565Y-43862D01*
Y-43765D01*
X73484Y-42684D01*
Y-41752D01*
G01X136132Y-68100D02*
X134853D01*
X134039Y-67286D01*
X130614D01*
X130300Y-67600D01*
X121900D01*
X121100Y-68400D01*
X102000D01*
X95100Y-75300D01*
X78500D01*
X75043Y-71843D01*
Y-45758D01*
X75600Y-45201D01*
Y-43500D01*
X74600Y-42500D01*
Y-40636D01*
X76043Y-39193D01*
G01X71000Y-68900D02*
X71800Y-69700D01*
Y-73400D01*
X79150Y-80750D01*
Y-81650D01*
G01X73484Y-44311D02*
X73000Y-44795D01*
Y-72900D01*
X77600Y-77500D01*
X96400D01*
X103300Y-70600D01*
X121900D01*
X123100Y-69400D01*
X127871D01*
X129047Y-70576D01*
Y-73000D01*
G01X68000Y-54100D02*
Y-52100D01*
X69600Y-50500D01*
Y-43900D01*
X68366Y-42666D01*
Y-41752D01*
G01Y-36634D02*
X67087Y-37913D01*
G01X68366Y-34075D02*
X67087Y-35354D01*
G01X68366Y-31516D02*
X67087Y-30237D01*
G01X76043Y-34075D02*
X74764Y-35354D01*
G01X70925Y-31516D02*
X69646Y-30237D01*
G01X73484Y-31516D02*
X72205Y-30237D01*
G01X67087Y-25118D02*
Y-27678D01*
X68366Y-28957D01*
G01X73484D02*
X72205Y-27678D01*
Y-25118D01*
G01X70925Y-28957D02*
X69646Y-27678D01*
Y-25118D01*
G01X73484Y-34075D02*
X72205Y-35354D01*
G01X76043Y-31516D02*
X74764Y-32795D01*
G01X70925Y-5925D02*
X69646Y-7204D01*
G01X73484Y-13602D02*
X72205Y-12323D01*
G01X68366Y-13602D02*
X67087Y-12322D01*
G01X70925Y-13602D02*
X69646Y-12323D01*
G01X76043Y-8484D02*
X74764Y-7205D01*
G01X73484Y-8484D02*
X72205Y-7205D01*
G01X73484Y-5925D02*
X72205Y-4646D01*
G01X73484Y-3366D02*
X72205Y-2087D01*
G01X68000Y15100D02*
Y12200D01*
X74900Y5300D01*
Y336D01*
X76043Y-807D01*
G01X74800Y17900D02*
Y8600D01*
X77400Y6000D01*
Y-4568D01*
X76043Y-5925D01*
G01X72000Y15100D02*
Y9700D01*
X76043Y5657D01*
Y1752D01*
G01X72000Y18900D02*
Y23100D01*
G01X68000Y18900D02*
Y23100D01*
G01X82800Y-83700D02*
X82500D01*
X81504Y-84696D01*
Y-89850D01*
G01X79150Y-81650D02*
Y-82850D01*
X77800Y-84200D01*
Y-89223D01*
X77173Y-89850D01*
G01X81161Y-41752D02*
X81500Y-42091D01*
Y-46200D01*
X78500Y-49200D01*
Y-51300D01*
X79300Y-52100D01*
Y-59002D01*
X77918Y-60384D01*
Y-70118D01*
X79800Y-72000D01*
X91000D01*
X95000Y-68000D01*
G01X76043Y-41752D02*
X76052D01*
X76500Y-42200D01*
Y-45665D01*
X75900Y-46265D01*
Y-71200D01*
X78900Y-74200D01*
X94500D01*
X101450Y-67250D01*
X120150D01*
X120800Y-66600D01*
X129800D01*
X130300Y-66100D01*
X138600D01*
X139000Y-66500D01*
G01X132000Y-64614D02*
X130354D01*
X129468Y-65500D01*
X119500D01*
X119100Y-65900D01*
X101100D01*
X93900Y-73100D01*
X79429D01*
X76800Y-70471D01*
Y-59099D01*
X77399Y-58499D01*
G01X84000Y-57900D02*
X85600Y-59500D01*
Y-64613D01*
X82654Y-67559D01*
G01X78602Y-39193D02*
X77520Y-40275D01*
Y-58378D01*
X77399Y-58499D01*
G01X83720Y-44311D02*
Y-50220D01*
X85600Y-52100D01*
Y-56300D01*
X84000Y-57900D01*
G01X88000D02*
X86400Y-56300D01*
Y-51169D01*
X85000Y-49769D01*
Y-43032D01*
X83720Y-41752D01*
G01Y-8484D02*
X82441Y-7205D01*
G01X81161Y-8484D02*
X79882Y-7205D01*
G01X81161Y-5925D02*
X79882Y-4646D01*
G01X81161Y-3366D02*
X79882Y-2087D01*
G01X83720Y-5925D02*
X82441Y-4646D01*
G01X83720Y-3366D02*
X82441Y-2087D01*
G01X115700Y38100D02*
X114500Y39300D01*
X101817D01*
X88000Y25483D01*
Y22400D01*
X84100Y18500D01*
Y11300D01*
X86100Y9300D01*
Y7400D01*
X88839Y4661D01*
Y1752D01*
G01X88750Y-83050D02*
X90165Y-84465D01*
Y-89850D01*
G01X95400Y-82500D02*
X101464D01*
X103157Y-84193D01*
Y-89850D01*
G01X92500Y-82500D02*
X93200D01*
X98827Y-88127D01*
Y-89850D01*
G01X144000Y-63100D02*
X143300Y-62400D01*
X130900D01*
X128700Y-64600D01*
X96502D01*
X94700Y-62798D01*
Y-60999D01*
X91900Y-58199D01*
Y-53600D01*
X88839Y-50539D01*
Y-41752D01*
G01X95000Y-68000D02*
Y-65200D01*
G01X89346Y-62441D02*
X87086D01*
X86686Y-62041D01*
Y-59214D01*
X88000Y-57900D01*
G01X97000Y-58100D02*
Y-55400D01*
X90200Y-48600D01*
Y-40391D01*
X91398Y-39193D01*
G01X96516D02*
X95400Y-40309D01*
Y-47900D01*
X104229Y-56729D01*
X107829D01*
X109500Y-58400D01*
Y-60400D01*
X111700Y-62600D01*
G01X101349Y-56751D02*
Y-55249D01*
X93957Y-47857D01*
Y-41752D01*
G01Y-39193D02*
X92700Y-40450D01*
Y-48300D01*
X99863Y-55463D01*
Y-57763D01*
X101000Y-58900D01*
X102714D01*
G01X91398Y-44311D02*
Y-48398D01*
X98900Y-55900D01*
Y-58300D01*
X99814Y-59214D01*
Y-59816D01*
X100599Y-60600D01*
X101200D01*
G01X86280Y-39193D02*
X87559Y-40472D01*
G01X87351Y-47349D02*
Y-42823D01*
X86280Y-41752D01*
G01X91398Y-36634D02*
X92677Y-37913D01*
G01X91398Y-34075D02*
X90119Y-35354D01*
G01X91398Y-31516D02*
X92677Y-32795D01*
G01X88839Y-31516D02*
X90118Y-32795D01*
G01X88839Y-8484D02*
X87560Y-7205D01*
G01X91398Y1752D02*
Y2598D01*
X92480Y3680D01*
Y5719D01*
X89100Y9099D01*
Y11000D01*
X87600Y12500D01*
Y16800D01*
X91400Y20600D01*
Y23743D01*
X101757Y34100D01*
X124600D01*
X125200Y34700D01*
G01X96516Y-3366D02*
X95300Y-2150D01*
Y14100D01*
X99100Y17900D01*
Y22100D01*
X104400Y27400D01*
X132900D01*
X135700Y30200D01*
X140900D01*
X144000Y33300D01*
Y35063D01*
G01X93957Y1752D02*
X94300Y2095D01*
Y14600D01*
X98100Y18400D01*
Y22600D01*
X103900Y28400D01*
X132300D01*
X136099Y32199D01*
X137801D01*
G01X93957Y-807D02*
Y-357D01*
X92800Y800D01*
Y2700D01*
X93500Y3400D01*
Y15600D01*
X96800Y18900D01*
Y22900D01*
X103400Y29500D01*
X131600D01*
X137200Y35100D01*
X140900D01*
G01X91398Y-3366D02*
X92678Y-2087D01*
G01X91398Y-5925D02*
X92677Y-4646D01*
G01X88839Y-5925D02*
X87560Y-4646D01*
G01X88839Y-807D02*
X90100Y454D01*
Y5100D01*
X87100Y8100D01*
Y9800D01*
X85500Y11400D01*
Y18200D01*
X89100Y21800D01*
Y24800D01*
X102500Y38200D01*
X113414D01*
X115000Y36614D01*
X118900D01*
G01X122100Y36300D02*
X120900Y35100D01*
X101227D01*
X90300Y24173D01*
Y21200D01*
X86800Y17700D01*
Y11700D01*
X88200Y10300D01*
Y8600D01*
X91398Y5402D01*
Y4311D01*
G01X128300Y31500D02*
Y30900D01*
X128000Y30600D01*
X103000D01*
X95300Y22900D01*
Y19400D01*
X92000Y16100D01*
Y13200D01*
G01X134646Y35100D02*
X133146Y33600D01*
X128200D01*
X126400Y31800D01*
X102600D01*
X93900Y23100D01*
Y19900D01*
X90183Y16183D01*
Y12817D01*
X92014Y10986D01*
Y10600D01*
G01X131500Y35200D02*
X127900D01*
X125800Y33100D01*
X102300D01*
X92600Y23400D01*
Y20100D01*
X89000Y16500D01*
Y12600D01*
X90100Y11500D01*
Y9700D01*
X91450Y8350D01*
X92014D01*
G01X102800Y-62600D02*
X99700D01*
X99200Y-62100D01*
Y-60400D01*
X97000Y-58200D01*
Y-58100D01*
G01X101634Y-44311D02*
Y-44834D01*
X106600Y-49800D01*
X112400D01*
X122900Y-60300D01*
Y-62700D01*
G01X101634Y-39193D02*
X100400Y-40427D01*
Y-45000D01*
X106190Y-50790D01*
X111490D01*
X120600Y-59900D01*
Y-62600D01*
G01X99075Y-41752D02*
X99400Y-42077D01*
Y-45500D01*
X105892Y-51992D01*
X110692D01*
X118000Y-59300D01*
Y-62700D01*
G01X116186Y-61300D02*
X114786Y-59900D01*
Y-57786D01*
X110123Y-53123D01*
X104923D01*
X98500Y-46700D01*
Y-43100D01*
X97993Y-42593D01*
Y-40274D01*
X99075Y-39193D01*
G01X112700Y-59500D02*
X112200D01*
X108156Y-55456D01*
X104556D01*
X96516Y-47416D01*
Y-44311D01*
G01Y-41752D02*
Y-42616D01*
X97598Y-43698D01*
Y-47098D01*
X104754Y-54254D01*
X109554D01*
X111800Y-56500D01*
Y-56901D01*
X111949Y-57051D01*
G01X99075Y-36634D02*
X100354Y-37913D01*
G01X101634Y-36634D02*
X102913Y-37913D01*
G01X128000Y-62800D02*
Y-61500D01*
X113900Y-47400D01*
X107282D01*
X104193Y-44311D01*
G01X101634Y-41752D02*
X102900Y-43018D01*
Y-44800D01*
X106600Y-48500D01*
X112900D01*
X125400Y-61000D01*
Y-62700D01*
G01X144126Y-33449D02*
X144075Y-33500D01*
X138683D01*
X136647Y-35536D01*
X134036D01*
X132300Y-33800D01*
X131400D01*
X131000Y-34200D01*
Y-37900D01*
X133900Y-40800D01*
Y-46000D01*
X135300Y-47400D01*
Y-50117D01*
X134600Y-50817D01*
X133417D01*
X129100Y-46500D01*
Y-41600D01*
X121300Y-33800D01*
X119800D01*
X116900Y-30900D01*
X112500D01*
X111900Y-30300D01*
X105536D01*
X104193Y-28957D01*
G01X159911Y-33411D02*
X165411D01*
X167100Y-35100D01*
X169000D01*
X170200Y-36300D01*
Y-49700D01*
X164000Y-55900D01*
X132000D01*
X124500Y-48400D01*
Y-43400D01*
X119300Y-38200D01*
X117500D01*
X114500Y-35200D01*
X105318D01*
X104193Y-34075D01*
G01X140977Y-27149D02*
X140826Y-27300D01*
X135800D01*
X135400Y-26900D01*
Y-25171D01*
X136305Y-24266D01*
Y-23700D01*
X135905Y-23300D01*
X134300D01*
X134000Y-23600D01*
Y-27700D01*
X134400Y-28100D01*
X134900D01*
X135300Y-28500D01*
Y-29300D01*
X135000Y-29600D01*
X133000D01*
X132398Y-30202D01*
X128499D01*
X127981Y-29684D01*
X127416D01*
X127133Y-29967D01*
Y-30533D01*
X127832Y-31232D01*
Y-31234D01*
X128983Y-32386D01*
Y-33033D01*
X128716Y-33300D01*
X128201D01*
X124801Y-29900D01*
X124000D01*
X123600Y-30300D01*
Y-30700D01*
X128667Y-35767D01*
Y-36333D01*
X128383Y-36617D01*
X127817D01*
X122200Y-31000D01*
X120800D01*
X118600Y-28800D01*
X114200D01*
X113800Y-28400D01*
X108400D01*
X107480Y-27480D01*
X105274D01*
X104193Y-26398D01*
G01X101634Y-28957D02*
X102913Y-27678D01*
G01X96516Y-28957D02*
X97795Y-27678D01*
G01X99075Y-31516D02*
X100354Y-32795D01*
G01X101634Y-34075D02*
X102913Y-35354D01*
G01X96516Y-31516D02*
X97795Y-30237D01*
G01X101634Y-31516D02*
X102913Y-32795D01*
G01X96516Y-34075D02*
X97795Y-32796D01*
G01X96516Y-36634D02*
X97795Y-35355D01*
G01X101634Y-23839D02*
X102913Y-25118D01*
G01X99075Y-23839D02*
X100354Y-25118D01*
G01X96516Y-16161D02*
X98155Y-17800D01*
X98524D01*
X98583Y-17859D01*
G01X125402Y-9602D02*
X125052Y-9952D01*
Y-11948D01*
X124400Y-12600D01*
X123400D01*
X122812Y-13188D01*
X120212D01*
X112300Y-21100D01*
X108102D01*
X107200Y-20198D01*
X105274D01*
X104193Y-21280D01*
G01Y-18720D02*
X105613Y-17300D01*
X111499D01*
X121864Y-6935D01*
Y-6636D01*
X122600Y-5900D01*
X126400D01*
X127300Y-5000D01*
X128800D01*
X130000Y-3800D01*
Y-3500D01*
G01X96516Y-23839D02*
X97795Y-25118D01*
G01X96516Y-13602D02*
X97795Y-12323D01*
G01X99075Y-16161D02*
X100354Y-14882D01*
G01X101634Y-16161D02*
X102913Y-14882D01*
G01X125406Y1904D02*
X124604D01*
X122886Y186D01*
Y-1416D01*
X122016Y-2286D01*
X120914D01*
X110900Y-12300D01*
X105495D01*
X104193Y-13602D01*
G01X119300Y200D02*
Y-1000D01*
X110500Y-9800D01*
X105436D01*
X104193Y-11043D01*
G01X99075Y-8484D02*
X100354Y-7205D01*
G01X96516Y-8484D02*
X97795Y-9763D01*
G01X101634Y-13602D02*
Y-11200D01*
G01Y-8484D02*
X102913Y-7205D01*
G01X104193Y-807D02*
X105472Y472D01*
G01X99075Y-3366D02*
X100354Y-2087D01*
G01X121400Y6200D02*
X117900D01*
X116800Y5100D01*
X114900D01*
X114300Y4500D01*
Y0D01*
X109600Y-4700D01*
X105418D01*
X104193Y-5925D01*
G01X123500Y-53000D02*
X114100Y-43600D01*
X110631D01*
X109931Y-42900D01*
X107900D01*
X106752Y-41752D01*
G01X109311Y-36634D02*
X114034D01*
X117200Y-39800D01*
X119100D01*
X123200Y-43900D01*
Y-48800D01*
X131600Y-57200D01*
X164500D01*
X171400Y-50300D01*
Y-32200D01*
X169500Y-30300D01*
X160921D01*
X159873Y-29252D01*
Y-27149D01*
G01X106752Y-36634D02*
X108018Y-37900D01*
X113300D01*
X116500Y-41100D01*
X118700D01*
X121900Y-44300D01*
Y-49200D01*
X131300Y-58600D01*
X165200D01*
X172600Y-51200D01*
Y-28900D01*
X170813Y-27113D01*
X162987D01*
G01X106752Y-34075D02*
X115275D01*
X118300Y-37100D01*
X120000D01*
X125800Y-42900D01*
Y-48000D01*
X132300Y-54500D01*
X163400D01*
X169300Y-48600D01*
Y-39200D01*
X168352Y-38252D01*
X166920D01*
X165268Y-36600D01*
X157600D01*
X156686Y-35686D01*
Y-33486D01*
G01X140989Y-30311D02*
X138861D01*
X137972Y-31200D01*
X136200D01*
X135900Y-30900D01*
X133114D01*
X132714Y-31300D01*
Y-32302D01*
X132316Y-32700D01*
X131750D01*
X131350Y-32300D01*
Y-31757D01*
X130996Y-31404D01*
X130496D01*
X130050Y-31850D01*
Y-33350D01*
X129183Y-34217D01*
Y-34783D01*
X130050Y-35650D01*
Y-36750D01*
X129333Y-37467D01*
Y-38033D01*
X131400Y-40100D01*
Y-41000D01*
X131800Y-41400D01*
X132400D01*
X132800Y-41800D01*
Y-42600D01*
X132400Y-43000D01*
X131800D01*
X131400Y-43400D01*
Y-45228D01*
X134200Y-48028D01*
Y-48593D01*
X133847Y-48947D01*
X133347D01*
X130300Y-45900D01*
Y-40900D01*
X121800Y-32400D01*
X120200D01*
X117700Y-29900D01*
X113300D01*
X112700Y-29300D01*
X107095D01*
X106752Y-28957D01*
G01X148129Y-28371D02*
X149757Y-30000D01*
X152400D01*
X152800Y-29600D01*
Y-29000D01*
X152300Y-28500D01*
X150800D01*
X146387Y-24087D01*
X138919D01*
X136931Y-22100D01*
X133100D01*
X132700Y-22500D01*
Y-28300D01*
X132300Y-28700D01*
X125700D01*
X125300Y-28300D01*
Y-23700D01*
X124900Y-23300D01*
X124237D01*
X123837Y-23700D01*
Y-28465D01*
X122534Y-29768D01*
X121268D01*
X118980Y-27480D01*
X108780D01*
X107698Y-26398D01*
X106752D01*
G01Y-21280D02*
X107772Y-22300D01*
X112499D01*
X118834Y-15964D01*
X118836D01*
X118900Y-15900D01*
X120200D01*
X120600Y-16300D01*
X121800D01*
X122200Y-15900D01*
Y-15205D01*
X121669Y-14674D01*
G01X127851Y-6551D02*
X126502Y-7900D01*
X125002D01*
X123800Y-9102D01*
Y-10700D01*
X122300Y-12200D01*
X119700D01*
X112098Y-19802D01*
X108702D01*
X107620Y-18720D01*
X106752D01*
G01Y-23839D02*
X108013Y-25100D01*
X118000D01*
X118389Y-24711D01*
Y-23289D01*
X119378Y-22300D01*
X122034D01*
X122634Y-21700D01*
Y-20434D01*
X122300Y-20100D01*
G01X109311Y-23839D02*
X112461D01*
X113100Y-23200D01*
X113800D01*
X114439Y-23839D01*
X116600D01*
X117000Y-23439D01*
Y-20631D01*
X117531Y-20100D01*
X118400D01*
X118800Y-20500D01*
Y-21200D01*
X119083Y-21483D01*
X119717D01*
X120000Y-21200D01*
Y-20314D01*
X120814Y-19500D01*
Y-19484D01*
X122099Y-18200D01*
X123300D01*
X123800Y-18700D01*
Y-21734D01*
X124200Y-22134D01*
X124766D01*
X125200Y-21700D01*
Y-18700D01*
X125700Y-18200D01*
X132800D01*
X133300Y-17700D01*
Y-15200D01*
X133700Y-14800D01*
X134300D01*
X134700Y-15200D01*
Y-15817D01*
X135100Y-16217D01*
X137017D01*
X137300Y-16500D01*
Y-17100D01*
X136800Y-17600D01*
X135000D01*
X133400Y-19200D01*
Y-20200D01*
X133900Y-20700D01*
X134600D01*
X135100Y-20200D01*
Y-19500D01*
X135700Y-18900D01*
X137200D01*
X138500Y-17600D01*
X140300D01*
X140767Y-17133D01*
X141333D01*
X141717Y-17517D01*
Y-18047D01*
X141164Y-18600D01*
Y-19095D01*
X140547Y-19712D01*
X139838D01*
X139402Y-19276D01*
G01X121601Y-27999D02*
X119999Y-26398D01*
X109311D01*
G01X115200Y-22100D02*
Y-20900D01*
X117100Y-19000D01*
X120100D01*
X121800Y-17300D01*
X123201D01*
X124000Y-16501D01*
Y-14300D01*
G01X109311Y-18720D02*
X111680D01*
X119100Y-11300D01*
X121900D01*
X122800Y-10400D01*
Y-10230D01*
X122814Y-10216D01*
Y-7986D01*
X123350Y-7450D01*
G01X121400Y-800D02*
X121100Y-1100D01*
X120700D01*
X110757Y-11043D01*
X106752D01*
G01X130514Y1684D02*
Y500D01*
X130114Y100D01*
X127500D01*
X125485Y-1915D01*
X124785D01*
X122814Y-3886D01*
X122114D01*
X111000Y-15000D01*
X108150D01*
X106752Y-13602D01*
G01X118617Y13591D02*
X118626Y13600D01*
X118900D01*
X120300Y15000D01*
X122600D01*
X123300Y14300D01*
Y10400D01*
X125786Y7914D01*
Y5986D01*
X123200Y3400D01*
X118100D01*
X117300Y2600D01*
X117000D01*
X116600Y2200D01*
Y-700D01*
X110100Y-7200D01*
X108100D01*
X106816Y-8484D01*
X106752D01*
G01X109311Y-13602D02*
X110998D01*
X121514Y-3086D01*
X122414D01*
X124800Y-700D01*
X125400D01*
X127400Y1300D01*
X128100D01*
X128500Y1700D01*
Y3300D01*
X127651Y4149D01*
G01X106752Y-16161D02*
X111139D01*
X122300Y-5000D01*
X126100D01*
X128217Y-2883D01*
Y-2317D01*
X127733Y-1833D01*
X127167D01*
X125600Y-3400D01*
X125401D01*
Y-3401D01*
G01X128700Y8700D02*
Y7300D01*
X123600Y2200D01*
X118700D01*
X117800Y1300D01*
Y-1200D01*
X110516Y-8484D01*
X109311D01*
G01X110200Y12600D02*
X111100Y11700D01*
Y7500D01*
X112100Y6500D01*
Y2300D01*
X109311Y-489D01*
Y-807D01*
G01X121600Y13100D02*
X120400Y11900D01*
X118799D01*
X113000Y6101D01*
Y323D01*
X109311Y-3366D01*
G01X106752Y-5925D02*
X109875D01*
X115500Y-300D01*
Y3400D01*
X115900Y3800D01*
X116900D01*
X117800Y4700D01*
X122200D01*
X123700Y6200D01*
Y6864D01*
X124100Y7264D01*
X124200D01*
G01X109614Y10100D02*
Y8614D01*
X108200Y7200D01*
Y641D01*
X106752Y-807D01*
G01X115700Y38100D02*
X123400D01*
X125050Y36450D01*
X130649D01*
X132199Y38000D01*
X144300D01*
X146400Y35900D01*
Y28300D01*
X150699Y24001D01*
X159599D01*
X170300Y13300D01*
G01X131016Y-73000D02*
Y-81030D01*
X131496Y-81510D01*
Y-81514D01*
G01X129300Y-82000D02*
X129047Y-81747D01*
Y-73000D01*
G01X134953D02*
Y-69278D01*
X136132Y-68100D01*
G01X132984Y-73000D02*
Y-70484D01*
X132000Y-69500D01*
Y-68921D01*
X131851Y-68772D01*
G01X132800Y-37100D02*
X135000Y-39300D01*
Y-45300D01*
X136300Y-46600D01*
Y-50200D01*
X136900Y-50800D01*
X148800D01*
X153600Y-46000D01*
Y-40500D01*
X149600Y-36500D01*
Y-35024D01*
G01X130000Y39100D02*
X130500Y39600D01*
X133800D01*
X137763Y43563D01*
X139000D01*
G01Y-66500D02*
Y-72890D01*
X138890Y-73000D01*
G01X144000Y-63100D02*
X144700Y-62400D01*
X150300D01*
X154900Y-67000D01*
G01X145701Y-47622D02*
X144126Y-49197D01*
G01X145701Y-38173D02*
X144127Y-39747D01*
G01X142551Y-41323D02*
X140977Y-42897D01*
G01X142551Y-44472D02*
X140977Y-46047D01*
G01X145701Y-35024D02*
X149600D01*
G01X145701Y-31874D02*
X144126Y-33449D01*
G01X142551Y-31874D02*
X140989Y-30311D01*
G01X142551Y-25575D02*
X140977Y-27149D01*
G01X145701Y-25575D02*
Y-25944D01*
X148129Y-28371D01*
G01X148900Y-15600D02*
Y-16830D01*
X147935Y-17794D01*
X144600D01*
X144200Y-17394D01*
Y-16526D01*
X144600Y-16126D01*
X145701D01*
G01X150251Y-2418D02*
X150200Y-2469D01*
X149831D01*
X149811Y-2489D01*
X149211D01*
X148333Y-3367D01*
Y-3933D01*
X149417Y-5017D01*
Y-5583D01*
X149100Y-5900D01*
X147600D01*
X147300Y-6200D01*
Y-7700D01*
X146700Y-8300D01*
X142951D01*
X142551Y-8700D01*
Y-9827D01*
G01X151860Y-5900D02*
Y-6800D01*
X151460Y-7200D01*
X149500D01*
X146873Y-9827D01*
X145701D01*
G01Y-12976D02*
X144284D01*
X143884Y-13376D01*
Y-14284D01*
X144168Y-14568D01*
X147830D01*
X148284Y-14114D01*
X148285D01*
X149333Y-13066D01*
Y-12500D01*
X148933Y-12100D01*
X147300D01*
X146733Y-11533D01*
Y-10967D01*
X147100Y-10600D01*
X148500D01*
X149850Y-9250D01*
X150043D01*
G01X151800Y7000D02*
X151400Y7400D01*
X147200D01*
X145701Y5901D01*
Y-378D01*
G01X151815Y1085D02*
X148785D01*
X148500Y800D01*
Y-1600D01*
X147200Y-2900D01*
Y-4500D01*
X145701Y-5999D01*
Y-6677D01*
G01X149394Y10182D02*
X149527Y10316D01*
X151184D01*
X151467Y10033D01*
Y9467D01*
X150596Y8596D01*
X146396D01*
X144039Y6239D01*
Y-5190D01*
X142551Y-6677D01*
G01Y-3528D02*
X141100Y-2077D01*
Y7100D01*
X147900Y13900D01*
Y17500D01*
X149000Y18600D01*
X151550D01*
X151700Y18450D01*
G01X152000Y13400D02*
X149200D01*
X142551Y6751D01*
Y-378D01*
G01X149300Y3800D02*
Y5726D01*
X148900Y6126D01*
X147809D01*
X147200Y5517D01*
Y-1200D01*
X145701Y-2699D01*
Y-3528D01*
G01X160437Y-70000D02*
X157100D01*
X155000Y-72100D01*
G01X154900Y-67000D02*
X157437D01*
X160437Y-70000D01*
G01X158299Y-38173D02*
X155873D01*
X154600Y-36900D01*
G01X158299Y-41323D02*
X156762Y-39786D01*
G01X156686Y-33486D02*
X156761D01*
X158299Y-35024D01*
G01X150297Y-22322D02*
X158196D01*
X158299Y-22425D01*
G01Y-19276D02*
X159500D01*
X159900Y-19676D01*
Y-20500D01*
X159500Y-20900D01*
X156600D01*
X156210Y-20510D01*
Y-19290D01*
X155819Y-18900D01*
X154156D01*
X153756Y-19300D01*
Y-20256D01*
G01X154700Y-17000D02*
X155489Y-17789D01*
X163111D01*
X164598Y-19276D01*
G01X154614Y-13828D02*
X154356Y-14086D01*
X152095D01*
X151953Y-14228D01*
Y-15014D01*
X152353Y-15414D01*
X155632D01*
X156344Y-16126D01*
X158299D01*
G01X151853Y-12600D02*
X152200D01*
X152572Y-12228D01*
X155127D01*
X157538Y-14639D01*
X159961D01*
X161449Y-16126D01*
G01X154314Y-7514D02*
X154400Y-7600D01*
Y-7743D01*
X156800Y-10143D01*
Y-10800D01*
X157315Y-11315D01*
X162715D01*
X163100Y-11700D01*
Y-13300D01*
X162700Y-13700D01*
X161849D01*
X161449Y-13300D01*
Y-12976D01*
G01X153900Y-10642D02*
X152396D01*
X152086Y-10333D01*
Y-9895D01*
X152981Y-9000D01*
X154500D01*
X155800Y-10300D01*
Y-11400D01*
X157376Y-12976D01*
X158299D01*
G01X153900Y-4200D02*
Y-3600D01*
X154300Y-3200D01*
X154866D01*
X155200Y-3534D01*
Y-6000D01*
X155911Y-6711D01*
Y-7811D01*
X157927Y-9827D01*
X158299D01*
G01X161449D02*
X162400D01*
X162947Y-9280D01*
Y-8711D01*
X162401Y-8165D01*
X157683D01*
X156811Y-7293D01*
Y-6211D01*
X156100Y-5500D01*
Y-3200D01*
X153900Y-1000D01*
G01X158299Y-6677D02*
Y-6299D01*
X156900Y-4900D01*
Y-2727D01*
X155800Y-1627D01*
Y3000D01*
X155100Y3700D01*
X154300D01*
X153900Y3300D01*
Y2200D01*
G01X158299Y-3528D02*
Y-2853D01*
X156700Y-1254D01*
Y7100D01*
X156300Y7500D01*
X155400D01*
X154400Y6500D01*
Y5386D01*
G01X161449Y-6677D02*
X160877D01*
X159800Y-5600D01*
Y9100D01*
X158649Y10251D01*
X158084D01*
X157849Y10016D01*
X157284D01*
X156718Y10582D01*
Y11148D01*
X156952Y11382D01*
Y11948D01*
X155666Y13234D01*
X155100D01*
X154700Y12834D01*
Y11786D01*
G01X153900Y8600D02*
Y9200D01*
X154300Y9600D01*
X156000D01*
X156900Y8700D01*
X157800D01*
X158299Y8201D01*
Y-378D01*
G01X161449D02*
X160900Y171D01*
Y3012D01*
X161817Y3930D01*
Y4495D01*
X160900Y5412D01*
Y6212D01*
X161700Y7012D01*
Y7812D01*
X160900Y8612D01*
Y9900D01*
X155233Y15567D01*
X154467D01*
X153900Y15000D01*
G01X149650Y17014D02*
X149950Y16714D01*
X156186D01*
X163000Y9900D01*
Y-1977D01*
X161449Y-3528D01*
G01X158299Y-47622D02*
Y-50000D01*
G01X161449Y-41323D02*
X163023Y-42897D01*
G01X161449Y-47622D02*
X163035Y-46035D01*
G01X161449Y-31874D02*
X159911Y-33411D01*
G01X161449Y-28724D02*
X162987Y-27186D01*
Y-27113D01*
G01X158299Y-25575D02*
X159873Y-27149D01*
G54D41*
X118417Y-83236D03*
X145583D03*
G54D23*
X-26841Y-78630D03*
Y-82173D03*
Y-85717D03*
Y-68000D03*
Y-71543D03*
Y-75087D03*
Y-57370D03*
Y-60913D03*
Y-64457D03*
Y-50283D03*
Y-53827D03*
X18841Y-85717D03*
Y-82173D03*
Y-78630D03*
Y-75087D03*
Y-71543D03*
Y-68000D03*
Y-64457D03*
Y-60913D03*
Y-57370D03*
Y-53827D03*
Y-50283D03*
G54D14*
X-49559Y-71346D03*
Y-64654D03*
X-44441Y-71346D03*
Y-64654D03*
X82654Y-67559D03*
Y-62441D03*
X89346Y-67559D03*
Y-62441D03*
G54D32*
X11417Y-82677D03*
Y27559D03*
G54D51*
G01X140316Y-20812D02*
X140040D01*
X140039Y-20813D01*
X138765D01*
X138764Y-20812D01*
X138488D01*
G01X142551Y-16126D02*
X141108Y-14683D01*
X138017D01*
G01X137965Y-10564D02*
X138765Y-11365D01*
X140940D01*
X142551Y-12976D01*
G54D42*
X125110Y-73000D03*
X127079D03*
X129047D03*
X131016D03*
X132984D03*
X134953D03*
X136921D03*
X138890D03*
G54D15*
X-48000Y-56900D03*
Y-53100D03*
X-39000Y-71100D03*
Y-74900D03*
Y-66900D03*
Y-63100D03*
X-34000Y-56900D03*
Y-53100D03*
X-7000Y3100D03*
Y6900D03*
X25000Y-89900D03*
Y-86100D03*
Y-81900D03*
Y-78100D03*
X43000Y-77900D03*
Y-74100D03*
X50000Y-77900D03*
Y-74100D03*
X57000Y-54900D03*
Y-51100D03*
X71000Y-68900D03*
X68000Y-57900D03*
X71000Y-65100D03*
X68000Y-54100D03*
X72000Y23100D03*
X68000Y15100D03*
Y18900D03*
X72000Y15100D03*
Y18900D03*
X68000Y23100D03*
X72000Y26900D03*
X68000D03*
X84000Y-57900D03*
Y-54100D03*
X88000Y-57900D03*
Y-54100D03*
X97000Y-61900D03*
Y-58100D03*
X130000Y42900D03*
Y39100D03*
X155000Y-75900D03*
Y-72100D03*
X149000Y34100D03*
Y37900D03*
G54D24*
X-31400Y-28800D03*
Y6200D03*
X-25400Y-28800D03*
Y6200D03*
X8600Y200D03*
X14600D03*
X175000Y-53000D03*
Y3000D03*
X181000Y-53000D03*
Y3000D03*
G54D33*
X8000Y10000D03*
X16000D03*
G54D52*
G01X-66929Y35433D02*
Y-90551D01*
G03X-55118Y-102362I11811J0D01*
G01X173228D01*
G03X185039Y-90551I0J11811D01*
G01Y35433D01*
G03X173228Y47244I-11811J0D01*
G01X-55118D01*
G03X-66929Y35433I0J-11811D01*
G54D25*
X-31000Y-22000D03*
X-32400Y-800D03*
X-23000Y-22000D03*
X-24400Y-800D03*
X7600Y-6800D03*
X15600D03*
G54D43*
X139000Y26437D03*
Y43563D03*
G54D34*
X25520Y-62000D03*
X40480D03*
G54D16*
X-48000Y-30000D03*
X-32000Y13000D03*
X8000Y-23000D03*
Y17000D03*
X51000Y-53000D03*
X95000Y-68000D03*
G54D53*
G01X-55771Y-17242D02*
X-59242D01*
G01X-59600Y-24000D02*
X-55812D01*
X-55771Y-24041D01*
G01X-59000Y-10000D02*
X-56214D01*
X-55771Y-10443D01*
G01X-49571D02*
X-47500Y-8372D01*
Y5300D01*
X-50100Y7900D01*
Y12564D01*
X-49690Y12973D01*
Y13109D01*
X-49063Y13737D01*
Y15646D01*
G01X-53000Y-3646D02*
Y300D01*
G01X-49700Y19200D02*
X-51031Y17869D01*
Y15646D01*
G01X-24100Y-16000D02*
X-25850Y-17750D01*
X-34150D01*
X-35900Y-16000D01*
G01X43000Y-83900D02*
Y-77900D01*
G01X50000Y-83900D02*
Y-77900D01*
G01X65807Y-36634D02*
X64528Y-37913D01*
G01X60689Y-44311D02*
X59410Y-45590D01*
G01X63248Y-44311D02*
X63000Y-44559D01*
Y-45787D01*
G01X60689Y-41752D02*
X59637D01*
X59300Y-42089D01*
X58801D01*
G01X65807Y-21280D02*
X64528Y-22559D01*
G01X63248Y-21280D02*
X61968Y-22559D01*
G01X65807Y-26398D02*
X64481Y-25071D01*
X60471D01*
X59213Y-23813D01*
Y-22500D01*
G01Y-9389D02*
X59784D01*
X60689Y-8484D01*
G01Y1752D02*
X59410Y3032D01*
G01X65807Y-807D02*
X64528Y472D01*
G01X65807Y1752D02*
X64528Y472D01*
G01X60689Y4311D02*
X59410Y5590D01*
G01X63248Y4311D02*
X61968Y5590D01*
G01X65807Y4311D02*
X64528Y5590D01*
G01X64331Y5787D02*
X64528Y5590D01*
G01X73484Y-39193D02*
X72205Y-40472D01*
G01X70925Y-36634D02*
X69646Y-37913D01*
G01X73484Y-36634D02*
X72205Y-37913D01*
G01X76043Y-36634D02*
X74763Y-37913D01*
G01X73484Y-36634D02*
X74763Y-37913D01*
G01X70925Y-36634D02*
X72205Y-37913D01*
G01X70925Y-34075D02*
X69646Y-35354D01*
G01X76043Y-26398D02*
X74763Y-27678D01*
G01X76043Y-28957D02*
X74763Y-30237D01*
G01Y-27678D02*
X76043Y-28957D01*
G01X73484Y-18720D02*
X74763Y-20000D01*
G01X76043Y-18720D02*
X74763Y-17441D01*
G01X76043Y-16161D02*
X74763Y-17441D01*
G01X73484Y-23839D02*
X72205Y-22560D01*
G01X76043Y-18721D02*
X74763Y-20000D01*
G01Y-17441D02*
X73484Y-16161D01*
X72204Y-17441D01*
X73484Y-18720D01*
G01X74763Y-20000D02*
X76043Y-21280D01*
G01X73484Y-18720D02*
X74763Y-17441D01*
G01X76043Y-23839D02*
X74763Y-25118D01*
G01D02*
X76043Y-26398D01*
G01Y-23839D02*
X74763Y-22560D01*
G01X68366Y-21280D02*
X69646Y-20000D01*
G01X76043Y-16161D02*
X74763Y-14882D01*
G01X73484Y-16161D02*
X72205Y-14882D01*
G01X74763D02*
X73484Y-16161D01*
G01X76043Y-11043D02*
X74763Y-9763D01*
G01X76043Y-13602D02*
X74763Y-12322D01*
G01X76043Y-11043D02*
X74763Y-12322D01*
G01X68366Y-16161D02*
X67087Y-14882D01*
G01X70925Y-16161D02*
X69646Y-14882D01*
G01X68366Y-807D02*
X67087Y472D01*
G01X73484Y-807D02*
X74763Y-2086D01*
G01X76043Y-3366D02*
X74763Y-4646D01*
G01X83720Y-39193D02*
X85000Y-37913D01*
G01X78602Y-44311D02*
X79882Y-45590D01*
G01X78602Y-41752D02*
X79882Y-43032D01*
G01X81161Y-39193D02*
X78602Y-41752D01*
G01X79882Y-37913D02*
X81161Y-36634D01*
G01X83720Y-26398D02*
X82441Y-27678D01*
G01X81161Y-26398D02*
X79882Y-27678D01*
G01X81161Y-26398D02*
X82441Y-27678D01*
G01X83720Y-28957D02*
X82441Y-30237D01*
G01X81161Y-28957D02*
X79882Y-30237D01*
G01X82441Y-27678D02*
X81161Y-28957D01*
G01D02*
X82441Y-30237D01*
G01X81161Y-31516D02*
X79882Y-32795D01*
G01Y-30237D02*
X81161Y-31516D01*
G01X83720D02*
X82441Y-32795D01*
G01Y-30237D02*
X83720Y-31516D01*
G01X81161D02*
X81162D01*
X82441Y-32795D01*
G01X84988Y-27689D02*
X86279Y-26398D01*
X86280D01*
G01X83720Y-28957D02*
X82441Y-27678D01*
G01X81161Y-28957D02*
X79882Y-27678D01*
G01X81161Y-31516D02*
X82440Y-30237D01*
X82441D01*
G01X83720Y-28957D02*
X84988Y-27689D01*
G01D02*
X83720Y-26420D01*
Y-26398D01*
G01X78602D02*
X77322Y-27678D01*
G01X76043Y-26398D02*
X77322Y-27678D01*
G01X78602Y-28957D02*
X77322Y-30237D01*
G01Y-27678D02*
X78602Y-28957D01*
G01X77322Y-27678D02*
X76043Y-28957D01*
G01D02*
X77322Y-30237D01*
G01X81161Y-34075D02*
X79882Y-35354D01*
G01X83720Y-34075D02*
X82441Y-35354D01*
G01X81161Y-34075D02*
X81162D01*
X82441Y-35354D01*
G01D02*
Y-35355D01*
X83720Y-36634D01*
G01X86280Y-28957D02*
X85001Y-30236D01*
G01X82441Y-35354D02*
X81161Y-36634D01*
G01X79882Y-35354D02*
Y-35355D01*
X81161Y-36634D01*
G01Y-23839D02*
X79882Y-25118D01*
G01X81161Y-18720D02*
X79882Y-17441D01*
G01X81161Y-16161D02*
X79882Y-17441D01*
G01X83720Y-18720D02*
X82441Y-17441D01*
G01X81161Y-16161D02*
X82441Y-17441D01*
G01X83720Y-16161D02*
X82441Y-17441D01*
G01X86280Y-16161D02*
X86279D01*
X83720Y-18720D01*
G01Y-16161D02*
X83721D01*
X86280Y-18720D01*
G01X78602D02*
X77322Y-17441D01*
G01X76043Y-16161D02*
X77322Y-17441D01*
G01X79882D02*
X78602Y-16161D01*
X77322Y-17441D01*
G01X79882D02*
X78602Y-18720D01*
G01X76043Y-21280D02*
Y-21279D01*
X78602Y-18720D01*
G01X81161Y-21280D02*
X79882Y-22559D01*
G01X78602Y-18720D02*
Y-18721D01*
X81161Y-21280D01*
G01X83720Y-18720D02*
Y-18721D01*
X81161Y-21280D01*
G01X83720D02*
X82441Y-22559D01*
G01X81161Y-18720D02*
Y-18721D01*
G01X83720Y-21280D02*
X86280Y-18720D01*
G01X83720D02*
X86280Y-21280D01*
G01X83720Y-23839D02*
X82441Y-25118D01*
G01X86280Y-21280D02*
X86279D01*
X83720Y-23839D01*
G01Y-21280D02*
X83721D01*
X86280Y-23839D01*
G01X82441Y-25118D02*
X83720Y-26398D01*
G01X81161Y-23839D02*
X82441Y-25118D01*
G01X83720Y-23839D02*
X83721D01*
X86280Y-26398D01*
G01Y-23839D02*
X86279D01*
X83720Y-26398D01*
G01X82441Y-22559D02*
X81161Y-23839D01*
G01Y-21280D02*
X82441Y-22559D01*
G01X78602Y-21280D02*
X79882Y-22559D01*
G01Y-25118D02*
X81161Y-26398D01*
G01X78602Y-21280D02*
X76043Y-18721D01*
G01X78602Y-21280D02*
X81161Y-18721D01*
G01X83720Y-23839D02*
X82441Y-22560D01*
Y-22559D01*
G01X81161Y-18720D02*
X82440Y-17441D01*
X82441D01*
G01X81161Y-23839D02*
X79882Y-22560D01*
Y-22559D01*
G01X81161Y-26398D02*
X82440Y-25118D01*
X82441D01*
G01X76043Y-18720D02*
X77322Y-17441D01*
G01X81161Y-18721D02*
X83720Y-21280D01*
G01X76043Y-18721D02*
Y-18720D01*
G01X78602Y-23839D02*
X77322Y-25118D01*
G01X76043Y-23839D02*
X77322Y-25118D01*
G01D02*
X76043Y-26398D01*
G01X77322Y-25118D02*
X78602Y-26398D01*
G01Y-23839D02*
X77322Y-22560D01*
G01D02*
X76043Y-23839D01*
G01X83720Y-11043D02*
X82441Y-9763D01*
G01X83720Y-11043D02*
X83721D01*
X86280Y-13602D01*
G01X83720Y-16161D02*
X82441Y-14882D01*
G01X86280Y-13602D02*
X86279D01*
X83720Y-16161D01*
G01Y-13602D02*
X82441Y-14882D01*
G01X81161Y-16161D02*
X79882Y-14882D01*
G01X78602Y-16161D02*
X77322Y-14882D01*
G01X79882D02*
X78602Y-16161D01*
G01X86279Y-11043D02*
X83720Y-13602D01*
G01Y-11043D02*
X82441Y-12322D01*
X83720Y-13602D01*
G01X81161Y-16161D02*
X82440Y-14882D01*
X82441D01*
G01X76043Y-16161D02*
X77322Y-14882D01*
G01X83720Y-11043D02*
X85000Y-9763D01*
G01X83721Y-13602D02*
X86280Y-16161D01*
G01X87559Y-9763D02*
X86280Y-8484D01*
X85000Y-9763D01*
G01D02*
X86279Y-11043D01*
G01X81161D02*
X79882Y-9763D01*
G01X81161Y-13602D02*
X79882Y-12322D01*
G01X78602Y-13602D02*
X77322Y-12322D01*
G01D02*
X76043Y-13602D01*
G01X79882Y-12322D02*
X78602Y-13602D01*
G01X81161Y-11043D02*
X79882Y-12322D01*
G01X78602Y-11043D02*
X77322Y-9763D01*
G01X79882D02*
X78602Y-11043D01*
G01X77322Y-9763D02*
X76043Y-11043D01*
G01D02*
X77322Y-12322D01*
G01X79882D02*
X78602Y-11043D01*
X77322Y-12322D01*
G01X78602Y-807D02*
X79882Y472D01*
G01X88839Y-39193D02*
X87560Y-37913D01*
G01X88839Y-36634D02*
X90118Y-37913D01*
G01X88839Y-34075D02*
X87560Y-35354D01*
G01X88839Y-26398D02*
X90118Y-27678D01*
G01X86280Y-26398D02*
X87559Y-27678D01*
G01X93957Y-28957D02*
X95237Y-30237D01*
G01X88839Y-26398D02*
X87560Y-27678D01*
X87559D01*
G01X91398Y-26398D02*
X92678Y-27678D01*
G01X93957Y-26398D02*
X95237Y-27678D01*
G01X92678D02*
X93957Y-26398D01*
G01X88839Y-28957D02*
X87560Y-30237D01*
G01Y-32796D02*
Y-30237D01*
G01X91398Y-28957D02*
X90118Y-30237D01*
G01X86280Y-18720D02*
X87559Y-17441D01*
G01X86280Y-16161D02*
X87559Y-17441D01*
G01X88839Y-18720D02*
X90118Y-17441D01*
G01X88839Y-16161D02*
X90118Y-17441D01*
G01X91398Y-18720D02*
X92678Y-17441D01*
G01X93957Y-16161D02*
X92678Y-17441D01*
G01X93957Y-18720D02*
X95237Y-17441D01*
G01X93957Y-16161D02*
X95237Y-17441D01*
G01X92678D02*
X91398Y-16161D01*
X90118Y-17441D01*
G01D02*
X91398Y-18720D01*
G01X88839Y-16161D02*
X87559Y-17441D01*
G01X86280Y-21280D02*
X87559Y-22559D01*
G01X88839Y-21280D02*
X90118Y-22559D01*
G01X86280Y-18720D02*
Y-18721D01*
X88839Y-21280D01*
G01X90110Y-20009D02*
X88839Y-21280D01*
G01Y-18720D02*
Y-18721D01*
G01X86280Y-23839D02*
X87559Y-25118D01*
G01X88839Y-23839D02*
X90118Y-25118D01*
G01X88839Y-23839D02*
X87559Y-25118D01*
G01Y-22559D02*
X88839Y-23839D01*
G01Y-21280D02*
X87559Y-22559D01*
G01X90118Y-25118D02*
X88839Y-26398D01*
G01X87559Y-25118D02*
X86280Y-26398D01*
G01X90118Y-22559D02*
Y-22560D01*
X88839Y-23839D01*
G01X93957Y-18720D02*
X92678Y-17441D01*
G01X88839Y-18720D02*
X87560Y-17441D01*
X87559D01*
G01X88839Y-26398D02*
X87560Y-25118D01*
X87559D01*
G01X86280Y-23839D02*
X87559Y-22560D01*
Y-22559D01*
G01X91398Y-18720D02*
Y-18721D01*
G01X93957D02*
X92678Y-20000D01*
X91398Y-18721D01*
G01D02*
X90110Y-20009D01*
G01X88839Y-18721D02*
X86280Y-21280D01*
G01X90110Y-20009D02*
X88839Y-18739D01*
Y-18721D01*
G01X91398Y-23839D02*
X92678Y-25118D01*
G01X93957Y-21280D02*
X95237Y-22559D01*
G01X93957Y-23839D02*
X95237Y-25118D01*
G01D02*
X93957Y-26398D01*
G01X92678Y-25118D02*
X93957Y-26398D01*
G01Y-23839D02*
X92678Y-25118D01*
G01D02*
X91398Y-26398D01*
G01Y-21280D02*
X92678Y-22559D01*
G01X93957Y-21280D02*
X92678Y-22559D01*
G01D02*
Y-22560D01*
X91398Y-23839D01*
G01X92678Y-22559D02*
X93957Y-23839D01*
G01X95237Y-22559D02*
Y-22560D01*
X93957Y-23839D01*
G01X88839Y-11043D02*
X90118Y-9763D01*
G01X88839Y-13602D02*
X90118Y-12322D01*
G01X86280Y-11043D02*
X87559Y-9763D01*
G01X86280Y-13602D02*
X87559Y-12322D01*
G01X86280Y-16161D02*
X87559Y-14882D01*
G01X88839Y-16161D02*
X90118Y-14882D01*
G01X88839Y-13602D02*
X87559Y-14882D01*
G01X86280Y-13602D02*
X87559Y-14882D01*
G01X88839Y-11043D02*
X87559Y-12322D01*
G01X86280Y-11043D02*
X87559Y-12322D01*
G01X88839Y-11043D02*
X90118Y-12322D01*
G01X88839Y-13602D02*
X90118Y-14882D01*
G01X91398Y-13602D02*
X92678Y-12322D01*
G01X90118Y-9763D02*
X91398Y-11043D01*
G01D02*
X90118Y-12322D01*
G01D02*
X91398Y-13602D01*
G01D02*
X90118Y-14882D01*
G01X91398Y-16161D02*
X92678Y-14882D01*
G01X91398Y-13602D02*
X92678Y-14882D01*
G01X90118D02*
X91398Y-16161D01*
G01X93957D02*
X95237Y-14882D01*
G01X93957Y-13602D02*
X95237Y-14882D01*
G01X93957Y-13602D02*
X92678Y-14882D01*
X93957Y-16161D01*
G01X91398Y-8484D02*
X90118Y-9763D01*
G01X91398Y-8484D02*
X92678Y-9763D01*
X91398Y-11043D01*
G01X88839Y-13602D02*
X87560Y-12322D01*
X87559D01*
G01X88839Y-16161D02*
X87560Y-14882D01*
X87559D01*
G01Y-9763D02*
X87560D01*
X88839Y-11043D01*
G01X91398D02*
X92678Y-12322D01*
G01D02*
X93957Y-13602D01*
G01X86279Y-11043D02*
X86280D01*
G01X96516Y-5925D02*
X95237Y-7204D01*
G01X93957Y-11043D02*
X95237Y-9763D01*
G01X86280Y-807D02*
X87559Y472D01*
G01X91398Y-807D02*
X90118Y-2087D01*
G01X88839Y-3366D02*
X90118Y-4646D01*
G01X104193Y-41752D02*
X105472Y-43032D01*
G01X104193Y-36634D02*
X105472Y-37913D01*
G01X104193Y-39193D02*
X105472Y-37913D01*
G01X106752Y-44311D02*
X105472Y-43032D01*
G01X104193Y-31516D02*
X105472Y-32795D01*
G01X99075Y-34075D02*
X100354Y-35354D01*
G01X99075Y-28957D02*
X100354Y-27678D01*
G01X96516Y-21280D02*
X97795Y-20001D01*
G01X104193Y-23839D02*
X105472Y-25118D01*
G01X99075Y-13602D02*
X97796Y-14881D01*
G01X104193Y-8484D02*
X105472Y-7205D01*
G01X104193Y-16161D02*
X105472Y-14882D01*
G01X104193Y-3366D02*
X105472Y-2087D01*
G01X96516Y-807D02*
X97795Y472D01*
G01X106752Y-3366D02*
X105472Y-2087D01*
G01X99075Y-5925D02*
X97796Y-4646D01*
G01X101634Y-3366D02*
X102913Y-2087D01*
G01X101634Y-5925D02*
X102913Y-4646D01*
G01X106752Y-44311D02*
X108032Y-45590D01*
G01X109311Y-44311D02*
X110590Y-45590D01*
G01X108032D02*
X109311Y-44311D01*
G01Y-41752D02*
X110787D01*
G01X106752Y-3366D02*
X108032Y-2087D01*
G01X109311Y1752D02*
X110590Y3032D01*
G01X106752Y5787D02*
Y4311D01*
G01X109311D02*
X109700Y4700D01*
Y5787D01*
G01X138017Y-14683D02*
X135900D01*
X134716Y-13500D01*
X133400D01*
X130900Y-16000D01*
G01X132400Y-10564D02*
X137965D01*
G01X149000Y34100D02*
X154800D01*
X155000Y33900D01*
G54D35*
X32000Y-93000D03*
Y-85000D03*
G54D17*
X-49571Y-17242D03*
X-55771D03*
X-49571Y-24041D03*
X-55771D03*
X-49571Y-10443D03*
X-55771D03*
G54D26*
X-28795Y22531D03*
X-25646D03*
X-6354D03*
X-3205D03*
X26205D03*
X29354D03*
X48646D03*
X51795D03*
G54D44*
X139402Y-47622D03*
X142551D03*
X145701D03*
X139402Y-38173D03*
X142551D03*
X145701D03*
X139402Y-41323D03*
X142551D03*
X145701D03*
X139402Y-44472D03*
X142551D03*
X145701D03*
X139402Y-28724D03*
X142551D03*
X145701D03*
X139402Y-31874D03*
X142551D03*
X145701D03*
X139402Y-35024D03*
X142551D03*
X145701D03*
X139402Y-19276D03*
X142551D03*
X145701D03*
X139402Y-22425D03*
X142551D03*
X145701D03*
X139402Y-25575D03*
X142551D03*
X145701D03*
X139402Y-6677D03*
X142551D03*
X145701D03*
X139402Y-9827D03*
X142551D03*
X145701D03*
X139402Y-12976D03*
X142551D03*
X145701D03*
X139402Y-16126D03*
X142551D03*
X145701D03*
X139402Y-378D03*
X142551D03*
X145701D03*
X139402Y-3528D03*
X142551D03*
X145701D03*
X158299Y-47622D03*
X161449D03*
X164598D03*
X158299Y-38173D03*
X161449D03*
X164598D03*
X158299Y-41323D03*
X161449D03*
X164598D03*
X158299Y-44472D03*
X161449D03*
X164598D03*
X158299Y-28724D03*
X161449D03*
X164598D03*
X158299Y-31874D03*
X161449D03*
X164598D03*
X158299Y-35024D03*
X161449D03*
X164598D03*
X158299Y-19276D03*
X161449D03*
X164598D03*
X158299Y-22425D03*
X161449D03*
X164598D03*
X158299Y-25575D03*
X161449D03*
X164598D03*
X158299Y-6677D03*
X161449D03*
X164598D03*
X158299Y-9827D03*
X161449D03*
X164598D03*
X158299Y-12976D03*
X161449D03*
X164598D03*
X158299Y-16126D03*
X161449D03*
X164598D03*
X158299Y-378D03*
X161449D03*
X164598D03*
X158299Y-3528D03*
X161449D03*
X164598D03*
G54D54*
G01X-57039Y2800D02*
X-56350Y2111D01*
Y-1250D01*
X-56937Y-1837D01*
Y-3646D01*
G01X-54969D02*
Y-1831D01*
X-55600Y-1200D01*
Y2067D01*
X-54867Y2800D01*
G01X-16900Y26700D02*
X-18953Y24647D01*
Y22531D01*
G01X-15016D02*
Y24816D01*
X-16900Y26700D01*
G01X-16984Y22531D02*
Y20684D01*
X-15091Y18791D01*
Y18691D01*
G01D02*
X-14909D01*
X-13047Y20553D01*
Y22531D01*
G01X63248Y-28957D02*
X62814D01*
X62468Y-29303D01*
X41258D01*
X36911Y-33650D01*
X21189D01*
X19050Y-31511D01*
Y-22689D01*
X21950Y-19789D01*
Y16311D01*
X22789Y17150D01*
X36600D01*
X37650Y18200D01*
Y18950D01*
X36047Y20553D01*
Y22531D01*
G01X65807Y-28957D02*
X64750Y-27900D01*
X62810D01*
X62157Y-28553D01*
X40947D01*
X36600Y-32900D01*
X21500D01*
X19800Y-31200D01*
Y-23000D01*
X22700Y-20100D01*
Y16000D01*
X23100Y16400D01*
X36911D01*
X38400Y17889D01*
Y18906D01*
X38921Y19427D01*
X39000Y19500D01*
G01X63248Y-11043D02*
X62942Y-10736D01*
X62264D01*
X61400Y-11600D01*
X56539D01*
X55189Y-10250D01*
X35989D01*
X27900Y-2161D01*
Y9950D01*
X28950Y11000D01*
Y12150D01*
X27600Y13500D01*
G01X65807Y-11043D02*
X64751Y-9986D01*
X61953D01*
X61089Y-10850D01*
X56850D01*
X55500Y-9500D01*
X36300D01*
X28650Y-1850D01*
Y9639D01*
X29700Y10689D01*
Y13100D01*
X30254Y13654D01*
X30800D01*
G01X37008Y14800D02*
X36300Y14092D01*
Y12000D01*
X34050Y9750D01*
Y-4650D01*
X37150Y-7750D01*
X56112D01*
X57212Y-6650D01*
X62475D01*
X62774Y-6949D01*
X62778D01*
X62856Y-7027D01*
X64350D01*
X65807Y-8484D01*
G01X33858Y14758D02*
X35200D01*
X35550Y14408D01*
Y12311D01*
X33300Y10061D01*
Y-4961D01*
X36839Y-8500D01*
X56423D01*
X57523Y-7400D01*
X62164D01*
X63248Y-8484D01*
G01X39984Y22531D02*
Y24417D01*
X38933Y25468D01*
X37068D01*
X36047Y24447D01*
Y22531D01*
G01X41953D02*
Y20734D01*
X40719Y19500D01*
X39000D01*
G01D02*
X38016Y20484D01*
Y22531D01*
G01X63248Y-26398D02*
X62184D01*
X61127Y-27455D01*
X60251D01*
X59944Y-27148D01*
X57648D01*
X55700Y-25200D01*
X49500D01*
X48900Y-25800D01*
G01X60689Y-26398D02*
X57959D01*
X56011Y-24450D01*
X49616D01*
X49505Y-24339D01*
X48189D01*
X46728Y-25800D01*
G01X50296Y12015D02*
X49585Y11304D01*
Y9863D01*
X49948Y9500D01*
X64761D01*
X69130Y5131D01*
Y5041D01*
X69423Y4749D01*
Y3873D01*
X68366Y2817D01*
Y1752D01*
G01X48124Y12015D02*
X48835Y11304D01*
Y9552D01*
X49637Y8750D01*
X64450D01*
X68380Y4820D01*
Y4325D01*
X68366Y4311D01*
G01X78602D02*
X78950Y4659D01*
Y5950D01*
X76261Y8639D01*
Y22261D01*
X79250Y25250D01*
Y27889D01*
X76989Y30150D01*
X68689D01*
X66986Y31853D01*
X66491D01*
X66167Y31528D01*
X65672D01*
X65177Y32023D01*
Y32518D01*
X65501Y32843D01*
Y33338D01*
X64900Y33939D01*
X64261D01*
X62800Y35400D01*
X62200D01*
G01X68366Y-8484D02*
X67087Y-7205D01*
G01X70925Y-8484D02*
X72204Y-9763D01*
G01X68366Y-5925D02*
X67087Y-4646D01*
G01X68366Y-3366D02*
X67087Y-2087D01*
G01X74803Y35158D02*
Y35003D01*
X73603Y33804D01*
Y33300D01*
X73953Y32950D01*
X79250D01*
X82200Y30000D01*
Y24239D01*
X78850Y20889D01*
Y9611D01*
X81350Y7111D01*
Y3057D01*
X82218Y2190D01*
Y249D01*
X81161Y-807D01*
G01Y1752D02*
Y2185D01*
X80600Y2746D01*
Y6800D01*
X78100Y9300D01*
Y21200D01*
X81450Y24550D01*
Y29689D01*
X78939Y32200D01*
X73643D01*
X72853Y32989D01*
Y34150D01*
X73214Y34511D01*
Y35804D01*
X72819Y36200D01*
X72017D01*
X71654Y35837D01*
Y35158D01*
G01X78602Y1752D02*
X79700Y2850D01*
Y6261D01*
X77011Y8950D01*
Y21950D01*
X80000Y24939D01*
Y28200D01*
X77300Y30900D01*
X69000D01*
X65350Y34550D01*
Y35400D01*
G01X84252Y35158D02*
X83413Y34319D01*
Y32687D01*
X84600Y31500D01*
Y23689D01*
X80750Y19839D01*
Y10511D01*
X83300Y7961D01*
Y4661D01*
X84900Y3061D01*
Y373D01*
X83720Y-807D01*
G01X81102Y35158D02*
Y35950D01*
X81452Y36300D01*
X82167D01*
X82663Y35804D01*
Y32376D01*
X83850Y31189D01*
Y24000D01*
X80000Y20150D01*
Y10200D01*
X82550Y7650D01*
Y4350D01*
X84150Y2750D01*
Y2182D01*
X83720Y1752D01*
G01X86280D02*
X87337Y2809D01*
Y4749D01*
X86718Y5368D01*
X86432D01*
X85100Y6700D01*
Y8761D01*
X82650Y11211D01*
Y19089D01*
X86450Y22889D01*
Y26150D01*
X92900Y32600D01*
Y34357D01*
X93701Y35158D01*
G01X86280Y4311D02*
Y4459D01*
X84350Y6389D01*
Y8450D01*
X81900Y10900D01*
Y19400D01*
X85700Y23200D01*
Y26461D01*
X89658Y30419D01*
Y30914D01*
X89233Y31338D01*
Y31833D01*
X89728Y32328D01*
X90223D01*
X90648Y31904D01*
X91143D01*
X92150Y32911D01*
Y34808D01*
X91800Y35158D01*
X90551D01*
G01X99075Y-21280D02*
X100354Y-20001D01*
G01X101634Y-21280D02*
X102913Y-20001D01*
G01X106752Y1752D02*
X105399Y3105D01*
Y5314D01*
X104900Y5814D01*
Y9600D01*
X114100Y18800D01*
X141200D01*
X142950Y20550D01*
Y21078D01*
X143672Y21800D01*
G01X134161Y22300D02*
X132561Y20700D01*
X112900D01*
X103100Y10900D01*
Y3376D01*
X104193Y2284D01*
Y1752D01*
G01X101634D02*
X101355Y2031D01*
Y2034D01*
X99827Y3562D01*
Y5060D01*
X100327Y5560D01*
Y11988D01*
X111539Y23200D01*
X118200D01*
X120000Y25000D01*
X123400D01*
X124911Y23489D01*
X125100D01*
G01X101634Y-807D02*
X102293D01*
X102700Y-400D01*
Y2449D01*
X102340Y2808D01*
X102073D01*
X102072Y2809D01*
X101641D01*
X100577Y3873D01*
Y4749D01*
X101077Y5249D01*
Y11677D01*
X111850Y22450D01*
X118511D01*
X120311Y24250D01*
X121650D01*
X122000Y23900D01*
Y23400D01*
G01X99075Y1752D02*
Y2263D01*
X98377Y2961D01*
Y12738D01*
X107850Y22211D01*
Y23484D01*
X110566Y26200D01*
X114061D01*
X115600Y24661D01*
G01X99075Y-807D02*
X99593D01*
X100577Y178D01*
Y1822D01*
X99127Y3272D01*
Y12427D01*
X108600Y21900D01*
Y23173D01*
X110877Y25450D01*
X112350D01*
X112700Y25100D01*
Y24661D01*
G01X103102Y22096D02*
X103505Y22500D01*
X104550D01*
X104900Y22150D01*
Y20900D01*
X104536Y20536D01*
X101650D01*
X101300Y20186D01*
Y17300D01*
X97400Y13400D01*
Y4921D01*
X97573Y4749D01*
Y2808D01*
X96516Y1752D01*
G01X141500Y21800D02*
X139900Y23400D01*
X139350D01*
X139000Y23050D01*
Y22200D01*
X139900Y21300D01*
Y19900D01*
X139550Y19550D01*
X113789D01*
X104150Y9911D01*
Y4354D01*
X104193Y4311D01*
G01X131989Y22300D02*
X131900Y22389D01*
Y24200D01*
X131600Y24500D01*
X130650D01*
X130300Y24150D01*
Y22300D01*
X129450Y21450D01*
X112589D01*
X102350Y11211D01*
Y5027D01*
X101634Y4311D01*
G01X96516D02*
X96650Y4445D01*
Y13711D01*
X100550Y17611D01*
Y21611D01*
X103039Y24100D01*
X106300D01*
G01X109311Y-39193D02*
X109469Y-39351D01*
X113051D01*
X115886Y-42186D01*
X118253D01*
X119305Y-43239D01*
X119306D01*
X120161Y-44094D01*
Y-46406D01*
X120013Y-46554D01*
G01X118700Y-44700D02*
Y-43696D01*
X117942Y-42936D01*
X115575D01*
X112740Y-40101D01*
X109939D01*
X109740Y-40300D01*
X107859D01*
X106752Y-39193D01*
G01X154500Y-32872D02*
X153678Y-32050D01*
X151850D01*
X151290Y-32610D01*
Y-33105D01*
X152250Y-34066D01*
Y-36689D01*
X155301Y-39740D01*
Y-51199D01*
X153350Y-53150D01*
X132989D01*
X127050Y-47211D01*
Y-42411D01*
X120389Y-35750D01*
X119050D01*
X116200Y-32900D01*
X108136D01*
X106752Y-31516D01*
G01X154500Y-30600D02*
X153800Y-31300D01*
X151539D01*
X150540Y-32300D01*
Y-33416D01*
X151500Y-34376D01*
Y-37000D01*
X154551Y-40051D01*
Y-50888D01*
X153039Y-52400D01*
X151996D01*
X151646Y-52050D01*
Y-51150D01*
X151296Y-50800D01*
X150596D01*
X150246Y-51150D01*
Y-52050D01*
X149896Y-52400D01*
X133300D01*
X127800Y-46900D01*
Y-42100D01*
X120700Y-35000D01*
X119361D01*
X116511Y-32150D01*
X109661D01*
X109311Y-31800D01*
Y-31516D01*
G01X152000Y-44033D02*
X151509D01*
X150748Y-43272D01*
X146901D01*
X145701Y-44472D01*
G01X152000Y-41762D02*
X151509D01*
X150748Y-42522D01*
X146901D01*
X145701Y-41323D01*
G01X152410Y-26735D02*
X151649Y-25974D01*
X150574D01*
X147950Y-23350D01*
Y-21550D01*
X147600Y-21200D01*
X146926D01*
X145701Y-22425D01*
G01Y-19276D02*
X146875Y-20450D01*
X147911D01*
X148700Y-21239D01*
Y-23039D01*
X150885Y-25224D01*
X151650D01*
X152410Y-24464D01*
G01X158299Y-31874D02*
X155498D01*
X154500Y-32872D01*
G01X158299Y-28724D02*
Y-29574D01*
X156749Y-31124D01*
X155024D01*
X154500Y-30600D01*
G54D36*
X43000Y-90100D03*
Y-83900D03*
X50000Y-90100D03*
Y-83900D03*
X155000Y33900D03*
Y40100D03*
G54D18*
X-49063Y-3646D03*
X-51031D03*
X-53000D03*
X-54969D03*
X-56937D03*
Y15646D03*
X-54969D03*
X-53000D03*
X-51031D03*
X-49063D03*
X-16984Y22531D03*
X-18953D03*
X-20921D03*
X-22890D03*
X-9110D03*
X-11079D03*
X-13047D03*
X-15016D03*
X34079D03*
X32110D03*
X43921D03*
X41953D03*
X39984D03*
X38016D03*
X36047D03*
X45890D03*
G54D27*
X-27378Y27630D03*
X-4622D03*
X27622D03*
X50378D03*
G54D45*
X153937Y-82677D03*
Y27559D03*
G54D37*
X67213Y-82528D03*
G54D46*
X160437Y-70000D03*
X177563D03*
G54D28*
X-21717Y-90841D03*
X-18173D03*
Y-45159D03*
X-21717D03*
X-14630Y-90841D03*
X-11087D03*
X-7543D03*
Y-45159D03*
X-11087D03*
X-14630D03*
X-4000Y-90841D03*
X-457D03*
X3087D03*
Y-45159D03*
X-457D03*
X-4000D03*
X6630Y-90841D03*
X10173D03*
X13717D03*
Y-45159D03*
X10173D03*
X6630D03*
G54D19*
X-39000Y-53000D03*
X-43000D03*
G54D47*
G01X-55118Y-90551D02*
Y-79116D01*
G01Y-90551D02*
X-43683D01*
G01X-49559Y-71346D02*
Y-74141D01*
G01Y-71346D02*
X-52954D01*
G01X-48000Y-59052D02*
Y-56900D01*
G01X-50002D02*
X-48000D01*
G01D02*
X-45998D01*
G01X-51600Y-28000D02*
Y-26100D01*
X-49571Y-24071D01*
Y-24041D01*
G01X-40207Y-22000D02*
X-42707Y-24500D01*
X-42708D01*
X-43000Y-24792D01*
Y-24793D01*
X-48000Y-29793D01*
Y-30000D01*
G01X-49571Y-24041D02*
Y-17242D01*
G01X-48100Y9000D02*
X-47100Y10000D01*
Y26000D01*
X-35500Y37600D01*
X2400D01*
X4800Y35200D01*
X48300D01*
X52800Y30700D01*
X62200D01*
X66000Y26900D01*
X68000D01*
G01X-53100Y21000D02*
Y22800D01*
G01X-55118Y23998D02*
Y35433D01*
G01X-56900Y21000D02*
Y15683D01*
X-56937Y15646D01*
G01X-49300Y21600D02*
Y19600D01*
X-49700Y19200D01*
G01X-55118Y35433D02*
X-43683D01*
G01X-39000Y-74900D02*
Y-77400D01*
G01X-41002Y-74900D02*
X-39000D01*
G01D02*
X-36998D01*
G01X-39000Y-63100D02*
Y-60900D01*
G01X-44441Y-64654D02*
Y-61359D01*
G01Y-64654D02*
X-42046D01*
G01X-41002Y-63100D02*
X-39000D01*
G01D02*
X-36998D01*
G01X-40000Y-22000D02*
X-40207D01*
G01X-40707Y-21293D02*
X-40000Y-22000D01*
G01X-41600Y-20400D02*
X-40707Y-21293D01*
G01X-41600Y-20400D02*
Y-9600D01*
X-40000Y-8000D01*
X-35900D01*
G01Y-12000D02*
X-39200D01*
G01X-40507Y25543D02*
X-35961D01*
G01X-40507Y42000D02*
X-35961D01*
G01X-34000Y-59052D02*
Y-56900D01*
G01X-30796Y-50283D02*
X-26841D01*
G01X-30796Y-57370D02*
X-26841D01*
G01X-36002Y-56900D02*
X-34000D01*
G01D02*
X-31998D01*
G01X-31400Y-28800D02*
X-31607Y-29007D01*
G01D02*
Y-31393D01*
X-30900Y-32100D01*
X-18300D01*
X-16200Y-30000D01*
X-15900D01*
G01X-27900Y-8000D02*
X-27000D01*
G01X-31100Y9400D02*
X-30800Y9700D01*
G01D02*
X-22100D01*
X-20800Y11000D01*
X-15900D01*
G01X-31000Y25600D02*
X-28795Y23395D01*
G01X-35961Y21686D02*
Y25543D01*
G01X-28795Y19167D02*
Y22531D01*
G01X-30978D02*
X-28795D01*
G01X-35961Y25543D02*
Y26961D01*
G01X-31000Y28000D02*
Y25600D01*
G01X-35961Y25543D02*
X-31415D01*
G01X-35961Y42000D02*
X-31415D01*
G01X-26841Y-50283D02*
Y-48100D01*
G01Y-50283D02*
X-22886D01*
G01X-26841Y-57370D02*
X-22886D01*
G01X-25400Y-28800D02*
X-22700D01*
G01X-16668Y-8847D02*
X-20500D01*
G01X-24100Y-8000D02*
X-21347D01*
X-20500Y-8847D01*
G01Y-14753D02*
X-21747Y-16000D01*
X-24100D01*
G01X-16668Y-14753D02*
X-20500D01*
G01X-18052Y3000D02*
X-15900D01*
G01X-20406Y7299D02*
X-20548D01*
G01X-21647Y6200D02*
X-25400D01*
G01X-20548Y7299D02*
X-21647Y6200D01*
G01X-23100Y26800D02*
X-25646Y24254D01*
Y22531D01*
G01X-15900Y-26000D02*
Y-30000D01*
G01X-12866Y-16208D02*
X-13321Y-16663D01*
Y-20068D01*
G01X-9866Y-7208D02*
X-9384Y-6726D01*
Y-3532D01*
G01X-12866Y-7208D02*
X-13321Y-6752D01*
Y-3532D01*
G01X-13300Y-200D02*
X-13321Y-221D01*
G01D02*
Y-3532D01*
G01X-15900Y998D02*
Y3000D01*
G01X-7000Y3100D02*
Y632D01*
X-7416Y216D01*
G01Y-3532D02*
Y216D01*
G01X-15900Y11000D02*
Y7000D01*
G01X-7000Y6900D02*
Y9052D01*
G01X-9002Y6900D02*
X-7000D01*
G01D02*
X-4998D01*
G01X1100Y-97000D02*
Y-98774D01*
G01X-4100Y-28002D02*
Y-26000D01*
G01D02*
X-1000D01*
G01X-3866Y-16208D02*
X-3479Y-16594D01*
Y-20068D01*
G01Y-23039D02*
Y-20068D01*
G01D02*
X-1886D01*
G01X-4100Y-26000D02*
Y-23998D01*
G01X-3866Y-13208D02*
X-3442Y-12784D01*
X-132D01*
G01X-3866Y-7208D02*
X-3479Y-6821D01*
Y-3532D01*
G01X-132Y-8847D02*
X3453D01*
G01X-132Y-14753D02*
X3453D01*
G01X11500Y-12800D02*
Y-13199D01*
X9899Y-14800D01*
X3500D01*
X3453Y-14753D01*
G01X1500Y3200D02*
X4100D01*
G01X-3500Y-500D02*
X-3479Y-521D01*
G01D02*
Y-3532D01*
G01X1500Y11200D02*
Y7200D01*
G01Y11200D02*
X6800D01*
G01X-1150Y26050D02*
X-3205Y23995D01*
G01D02*
Y22531D01*
G01Y19167D02*
Y22531D01*
G01D02*
X-1022D01*
G01X3961Y25543D02*
X2843D01*
G01X-585Y42000D02*
X3961D01*
G01X4900Y-97000D02*
Y-98800D01*
G01X7800Y-50800D02*
X6630Y-49630D01*
G01D02*
Y-45159D01*
G01X11500Y-16800D02*
X14200D01*
G01X7700D02*
X5000D01*
G01X8600Y200D02*
X5900D01*
G01X6800Y11200D02*
X8000Y10000D01*
G01X3961Y42000D02*
X8507D01*
G01X25000Y-89900D02*
X21300D01*
G01X26205Y22531D02*
X22051D01*
X19039Y25543D01*
G01X24300Y20100D02*
X21399D01*
G01X24300D02*
X26205Y22005D01*
G01X21399Y20100D02*
X21260Y19961D01*
G01X19039Y21686D02*
Y25543D01*
G01D02*
X16343D01*
G01X23800Y27200D02*
Y25900D01*
G01D02*
X26205Y23495D01*
G01X19039Y25543D02*
X23585D01*
G01X19039Y42000D02*
X17500D01*
X16500Y43000D01*
G01X25000Y-92052D02*
Y-89900D01*
G01D02*
X27002D01*
G01X25000Y-78100D02*
Y-66200D01*
G01X25520Y-62000D02*
Y-59720D01*
X25100Y-59300D01*
Y-59039D01*
G01X38500Y-12814D02*
X31312D01*
X28126Y-16000D01*
X26800D01*
G01X43000Y-74100D02*
Y-71000D01*
G01D02*
X44800Y-69200D01*
Y-68800D01*
X44884Y-68716D01*
G01X42599Y-66501D02*
X40900Y-64801D01*
G01D02*
Y-64600D01*
X40480Y-64180D01*
Y-62000D01*
G01X49486Y4214D02*
X49114D01*
X44700Y-200D01*
G01X55200Y-68700D02*
X50000Y-73900D01*
Y-74100D01*
G01X51000Y-53000D02*
X50136Y-54814D01*
Y-55835D01*
G01X52100Y-2000D02*
X49200D01*
G01X51795Y22531D02*
X54807Y25543D01*
G01X51795Y19167D02*
Y22531D01*
G01D02*
X53978D01*
G01X54807Y25543D02*
X58961D01*
G01X56500Y-68700D02*
X55200D01*
G01X57000Y-51100D02*
X59726D01*
X63000Y-47826D01*
Y-46600D01*
G01X57000Y-51100D02*
X55100D01*
G01X63000Y-45787D02*
Y-46600D01*
G01X57600Y-9389D02*
X59213D01*
G01X59789Y-2000D02*
X55900D01*
G01Y2000D02*
X57400D01*
X58730Y670D01*
X59817D01*
G01X55900Y6000D02*
X57226Y7326D01*
X62792D01*
X64331Y5787D01*
G01X58961Y25543D02*
Y27790D01*
X58986Y27815D01*
G01X67213Y-82528D02*
X67472D01*
G01X71000Y-65100D02*
Y-62600D01*
G01X72000Y26900D02*
X68000D01*
G01X79404Y-61000D02*
Y-69804D01*
X80400Y-70800D01*
X88828D01*
X89828Y-69800D01*
Y-68041D01*
X89346Y-67559D01*
G01X82654Y-62441D02*
X81454D01*
X80825Y-61811D01*
X80511D01*
X79700Y-61000D01*
X79404D01*
G01X84000Y-54100D02*
Y-54000D01*
X80000Y-50000D01*
G01X94496Y-89850D02*
Y-91319D01*
X89401Y-96414D01*
X89251D01*
G01X85835Y-89850D02*
Y-83865D01*
G01X89346Y-67559D02*
X89741D01*
X92800Y-64500D01*
Y-61200D01*
X92700Y-61100D01*
G01X101900Y-97500D02*
X103600D01*
G01D02*
X105100Y-96000D01*
G01Y-98002D02*
Y-96000D01*
G01X102948D02*
X105100D01*
G01X102942Y-78236D02*
X107488D01*
G01X97000Y-61900D02*
Y-62900D01*
G01X111600Y-96700D02*
X110900Y-96000D01*
X108900D01*
G01X106300Y-81800D02*
X107488Y-80612D01*
Y-78236D01*
G01D02*
X112034D01*
G01X110787Y-41752D02*
X111900D01*
G01X106752Y8300D02*
Y5787D01*
G01X109700D02*
Y6070D01*
X109796Y6166D01*
G01X127079Y-73000D02*
Y-80109D01*
X126300Y-80888D01*
Y-81686D01*
X126086Y-81900D01*
G01X147000Y-66000D02*
Y-73100D01*
X135800Y-84300D01*
X125300D01*
X124300Y-83300D01*
Y-73810D01*
X125110Y-73000D01*
G01X135300Y-37200D02*
X136600Y-38500D01*
X139075D01*
X139402Y-38173D01*
G01X136500Y-41323D02*
X139402D01*
G01Y-31874D02*
X138996D01*
X138570Y-32300D01*
X137511D01*
X135861Y-33950D01*
G01X127100Y-24000D02*
Y-27000D01*
G01Y-24000D02*
Y-20000D01*
G01X142551Y-22425D02*
X140938Y-20812D01*
X140316D01*
G01X138488D02*
X136812D01*
X136600Y-20600D01*
G01X127100Y-16000D02*
Y-13800D01*
G01D02*
Y-12000D01*
G01X136577Y-13047D02*
X139331D01*
X139402Y-12976D01*
G01Y-9827D02*
X135487Y-5913D01*
Y-4914D01*
G01X139000Y26437D02*
X134237D01*
G01X130000Y42900D02*
X127600D01*
G01X143800Y-68600D02*
Y-74100D01*
X140872Y-77028D01*
X137628D01*
X136921Y-76321D01*
Y-73000D01*
G01X139402Y-47622D02*
X137827Y-49197D01*
G01X142551Y-47622D02*
X140977Y-49197D01*
G01X142551Y-38173D02*
X140977Y-36598D01*
G01X139402Y-44472D02*
X136800D01*
G01X142551Y-28724D02*
X144164Y-30336D01*
G01X142551Y-35024D02*
X140977Y-36598D01*
G01X137000Y-29500D02*
X137800D01*
X138576Y-28724D01*
X139402D01*
G01Y-35024D02*
X137828Y-36598D01*
G01X148187Y-32513D02*
Y-31209D01*
X145701Y-28724D01*
G01X142551Y-19276D02*
X144088Y-20812D01*
G01X139402Y-25575D02*
X137325D01*
X137127Y-25773D01*
X137100D01*
G01X139402Y-6677D02*
X137827Y-5103D01*
G01X139402Y-378D02*
X137827Y1197D01*
G01X139402Y-3528D02*
X137323Y-1449D01*
Y-1009D01*
G01X139000Y26437D02*
X144163D01*
G01X151100Y-67000D02*
Y-69200D01*
G01X155000Y-75900D02*
Y-77900D01*
G01X149000Y37900D02*
Y40500D01*
G01X155000Y40100D02*
X158200D01*
G01X161793Y-90551D02*
X173228D01*
G01X166900Y-48200D02*
Y-47200D01*
X164598Y-44898D01*
Y-44472D01*
G01Y-47622D02*
X164800Y-47824D01*
Y-49900D01*
G01X158299Y-44472D02*
X159836Y-42935D01*
G01X164598Y-38173D02*
X166163Y-39738D01*
X167394D01*
G01X164598Y-41323D02*
X165175Y-41900D01*
X167600D01*
G01X161449Y-44472D02*
X159838Y-46082D01*
G01X163000Y-39700D02*
X161473Y-38173D01*
X161449D01*
G01Y-35024D02*
X161759Y-35334D01*
X164288D01*
X164598Y-35024D01*
G01D02*
X165427D01*
X167003Y-36600D01*
X167900D01*
G01X167700Y-28599D02*
X167601D01*
X167476Y-28724D01*
X164598D01*
G01X169851Y-33849D02*
X169801Y-33800D01*
X167500D01*
X165574Y-31874D01*
X164598D01*
G01X161449Y-22425D02*
X162962Y-23938D01*
G01X161449Y-19276D02*
X162986Y-20814D01*
G01X161449Y-25575D02*
X159887Y-24013D01*
G01X172100Y-19400D02*
X171800Y-19700D01*
X167900D01*
X166500Y-18300D01*
Y-17700D01*
G01X164598Y-25575D02*
X169600D01*
G01X164598Y-12976D02*
X166172Y-11402D01*
G01X164598Y-6677D02*
X166173Y-5103D01*
G01X164598Y-9827D02*
X166172Y-8253D01*
G01X164598Y-378D02*
X166173Y1197D01*
G01X164598Y-3528D02*
X166173Y-1953D01*
G01X161793Y35433D02*
X173228D01*
G01Y-90551D02*
Y-79116D01*
G01X177563Y-70000D02*
Y-65963D01*
G01Y-70000D02*
X180500D01*
G01X177563Y-74349D02*
Y-70000D01*
G01X174199D02*
X177563D01*
G01X175000Y-53000D02*
Y-50000D01*
G01Y-53000D02*
Y-56000D01*
G01X169600Y-25575D02*
X174525D01*
X175100Y-25000D01*
G01Y-13000D02*
X172500D01*
G01X175100Y-8000D02*
X172500D01*
G01X175100Y-3000D02*
X172500D01*
G01X175000Y3000D02*
Y6000D01*
G01Y3000D02*
Y0D01*
G01X173228Y23998D02*
Y35433D01*
G01X181000Y-53000D02*
Y-50000D01*
G01Y-53000D02*
Y-56000D01*
G01X178900Y-45000D02*
X181300D01*
G01X178900Y-41000D02*
X180500D01*
X181500Y-40000D01*
G01X178900Y-33000D02*
X179500D01*
X181500Y-35000D01*
G01X178900Y-37000D02*
X179500D01*
X181500Y-35000D01*
G01X178900Y-29000D02*
X180500D01*
X181500Y-30000D01*
G01X178900Y-25000D02*
X180500D01*
X181500Y-26000D01*
G01X178900Y-17000D02*
Y-21000D01*
G01X181400Y-15400D02*
X180700D01*
X179100Y-17000D01*
X178900D01*
G01Y-8000D02*
X181500D01*
G01X178900Y-13000D02*
X181500D01*
G01X178900Y-10002D02*
Y-8000D01*
G01D02*
Y-5998D01*
G01X181000Y3000D02*
Y6000D01*
G01Y3000D02*
Y0D01*
G01X178900Y-3000D02*
X181500D01*
G01X178900Y-5002D02*
Y-3000D01*
G01D02*
Y-998D01*
G54D29*
X-16668Y-16721D03*
Y-14753D03*
Y-12784D03*
Y-10816D03*
Y-8847D03*
Y-6879D03*
X-132Y-16721D03*
Y-6879D03*
Y-8847D03*
Y-10816D03*
Y-12784D03*
Y-14753D03*
G54D38*
X60689Y-44311D03*
Y-41752D03*
Y-39193D03*
X63248Y-44311D03*
Y-41752D03*
Y-39193D03*
X60689Y-36634D03*
Y-31516D03*
X63248Y-36634D03*
Y-34075D03*
Y-31516D03*
Y-28957D03*
X60689Y-26398D03*
Y-18720D03*
X63248Y-26398D03*
Y-23839D03*
Y-21280D03*
Y-18720D03*
X60689Y-13602D03*
Y-8484D03*
X63248Y-16161D03*
Y-13602D03*
Y-11043D03*
Y-8484D03*
X60689Y-3366D03*
Y-807D03*
Y1752D03*
X63248Y-5925D03*
Y-3366D03*
Y-807D03*
Y1752D03*
X60689Y4311D03*
X63248D03*
X65807Y-44311D03*
Y-41752D03*
Y-39193D03*
X68366Y-44311D03*
Y-41752D03*
Y-39193D03*
X70925Y-41752D03*
Y-39193D03*
X73484Y-44311D03*
Y-41752D03*
Y-39193D03*
X65807Y-36634D03*
Y-34075D03*
Y-31516D03*
Y-28957D03*
X68366Y-36634D03*
Y-34075D03*
Y-31516D03*
Y-28957D03*
X70925Y-36634D03*
Y-34075D03*
Y-31516D03*
Y-28957D03*
X73484Y-36634D03*
Y-34075D03*
Y-31516D03*
Y-28957D03*
X65807Y-26398D03*
Y-23839D03*
Y-21280D03*
Y-18720D03*
X68366Y-23839D03*
Y-21280D03*
X70925Y-23839D03*
Y-21280D03*
X73484Y-23839D03*
Y-21280D03*
X65807Y-16161D03*
Y-13602D03*
Y-11043D03*
Y-8484D03*
X68366Y-16161D03*
Y-13602D03*
Y-8484D03*
X70925Y-16161D03*
Y-13602D03*
Y-8484D03*
X73484Y-16161D03*
Y-13602D03*
Y-8484D03*
X65807Y-5925D03*
Y-3366D03*
Y-807D03*
Y1752D03*
X68366Y-5925D03*
Y-3366D03*
Y-807D03*
Y1752D03*
X70925Y-5925D03*
Y-3366D03*
Y-807D03*
Y1752D03*
X73484Y-5925D03*
Y-3366D03*
Y-807D03*
Y1752D03*
X65807Y4311D03*
X68366D03*
X73484D03*
X76043Y-41752D03*
Y-39193D03*
X78602Y-44311D03*
Y-41752D03*
Y-39193D03*
X81161Y-41752D03*
Y-39193D03*
X83720Y-44311D03*
Y-41752D03*
Y-39193D03*
X76043Y-36634D03*
Y-34075D03*
Y-31516D03*
Y-28957D03*
X78602D03*
X81161Y-36634D03*
Y-34075D03*
Y-31516D03*
Y-28957D03*
X83720Y-36634D03*
Y-34075D03*
Y-31516D03*
Y-28957D03*
X76043Y-26398D03*
Y-23839D03*
Y-21280D03*
Y-18720D03*
X78602Y-26398D03*
Y-23839D03*
Y-21280D03*
Y-18720D03*
X81161Y-26398D03*
Y-23839D03*
Y-21280D03*
Y-18720D03*
X83720Y-26398D03*
Y-23839D03*
Y-21280D03*
Y-18720D03*
X76043Y-16161D03*
Y-13602D03*
Y-11043D03*
Y-8484D03*
X78602Y-16161D03*
Y-13602D03*
Y-11043D03*
X81161Y-16161D03*
Y-13602D03*
Y-11043D03*
Y-8484D03*
X83720Y-16161D03*
Y-13602D03*
Y-11043D03*
Y-8484D03*
X76043Y-5925D03*
Y-3366D03*
Y-807D03*
Y1752D03*
X78602Y-807D03*
Y1752D03*
X81161Y-5925D03*
Y-3366D03*
Y-807D03*
Y1752D03*
X83720Y-5925D03*
Y-3366D03*
Y-807D03*
Y1752D03*
X78602Y4311D03*
X86280Y-41752D03*
Y-39193D03*
X88839Y-41752D03*
Y-39193D03*
X91398Y-44311D03*
Y-41752D03*
Y-39193D03*
X93957Y-41752D03*
Y-39193D03*
X86280Y-28957D03*
X88839Y-36634D03*
Y-34075D03*
Y-31516D03*
Y-28957D03*
X91398Y-36634D03*
Y-34075D03*
Y-31516D03*
Y-28957D03*
X93957D03*
X86280Y-26398D03*
Y-23839D03*
Y-21280D03*
Y-18720D03*
X88839Y-26398D03*
Y-23839D03*
Y-21280D03*
Y-18720D03*
X91398Y-26398D03*
Y-23839D03*
Y-21280D03*
Y-18720D03*
X93957Y-26398D03*
Y-23839D03*
Y-21280D03*
Y-18720D03*
X86280Y-16161D03*
Y-13602D03*
Y-11043D03*
X88839Y-16161D03*
Y-13602D03*
Y-11043D03*
Y-8484D03*
X91398Y-16161D03*
Y-13602D03*
Y-11043D03*
Y-8484D03*
X93957Y-16161D03*
Y-13602D03*
Y-11043D03*
X86280Y-807D03*
Y1752D03*
X88839Y-5925D03*
Y-3366D03*
Y-807D03*
Y1752D03*
X91398Y-5925D03*
Y-3366D03*
Y-807D03*
Y1752D03*
X93957Y-807D03*
Y1752D03*
X86280Y4311D03*
X91398D03*
X96516Y-44311D03*
Y-41752D03*
Y-39193D03*
X99075Y-41752D03*
Y-39193D03*
X101634Y-44311D03*
Y-41752D03*
Y-39193D03*
X104193Y-44311D03*
Y-41752D03*
Y-39193D03*
X96516Y-36634D03*
Y-34075D03*
Y-31516D03*
Y-28957D03*
X99075Y-36634D03*
Y-34075D03*
Y-31516D03*
Y-28957D03*
X101634Y-36634D03*
Y-34075D03*
Y-31516D03*
Y-28957D03*
X104193Y-36634D03*
Y-34075D03*
Y-31516D03*
Y-28957D03*
X96516Y-23839D03*
Y-21280D03*
X99075Y-23839D03*
Y-21280D03*
X101634Y-23839D03*
Y-21280D03*
X104193Y-26398D03*
Y-23839D03*
Y-21280D03*
Y-18720D03*
X96516Y-16161D03*
Y-13602D03*
Y-8484D03*
X99075Y-16161D03*
Y-13602D03*
Y-8484D03*
X101634Y-16161D03*
Y-13602D03*
Y-8484D03*
X104193Y-16161D03*
Y-13602D03*
Y-11043D03*
Y-8484D03*
X96516Y-5925D03*
Y-3366D03*
Y-807D03*
Y1752D03*
X99075Y-5925D03*
Y-3366D03*
Y-807D03*
Y1752D03*
X101634Y-5925D03*
Y-3366D03*
Y-807D03*
Y1752D03*
X104193Y-5925D03*
Y-3366D03*
Y-807D03*
Y1752D03*
X96516Y4311D03*
X101634D03*
X104193D03*
X106752Y-44311D03*
Y-41752D03*
Y-39193D03*
X109311Y-44311D03*
Y-41752D03*
Y-39193D03*
X106752Y-36634D03*
Y-34075D03*
Y-31516D03*
Y-28957D03*
X109311Y-36634D03*
Y-31516D03*
X106752Y-26398D03*
Y-23839D03*
Y-21280D03*
Y-18720D03*
X109311Y-26398D03*
Y-23839D03*
Y-18720D03*
X106752Y-16161D03*
Y-13602D03*
Y-11043D03*
Y-8484D03*
X109311Y-13602D03*
Y-8484D03*
X106752Y-5925D03*
Y-3366D03*
Y-807D03*
Y1752D03*
X109311Y-3366D03*
Y-807D03*
Y1752D03*
X106752Y4311D03*
X109311D03*
G54D48*
G01X-45200Y-2600D02*
Y-5600D01*
G01X-12501Y33400D02*
X-14501Y35400D01*
X-34800D01*
X-45200Y25000D01*
Y-2600D01*
G01X-25646Y22531D02*
Y17746D01*
G01D02*
X-23900Y16000D01*
G01D02*
X-8354D01*
X-6354Y18000D01*
Y22531D01*
G01X-12501Y32900D02*
Y33400D01*
G01X29354Y22531D02*
Y25008D01*
X32546Y28200D01*
X45154D01*
X48646Y24708D01*
Y22531D01*
G01X112900Y8700D02*
X113100Y8900D01*
Y14900D01*
X115100Y16900D01*
X133343D01*
G01X130900Y-12000D02*
X132336Y-10564D01*
X132400D01*
G01D02*
X132600Y-10364D01*
Y433D01*
X133343Y1176D01*
Y16900D01*
G01X168200Y-14500D02*
X169889Y-12811D01*
Y9911D01*
X158400Y21400D01*
X147100D01*
X142600Y16900D01*
X133343D01*
G01X175100Y-17000D02*
X170700D01*
X168200Y-14500D01*
G01X175100Y-25000D02*
Y-29000D01*
G01D02*
Y-33000D01*
G01Y-17000D02*
Y-21000D01*
G01D02*
Y-25000D01*
G54D39*
X72843Y-89850D03*
X77173D03*
X81504D03*
X85835D03*
X90165D03*
X94496D03*
X98827D03*
X103157D03*
G54D49*
G01X-48000Y-53100D02*
X-49500D01*
X-53439Y-57039D01*
X-59000D01*
G01X-43000Y-53000D02*
X-47900D01*
X-48000Y-53100D01*
G01X-34000D02*
X-38900D01*
X-39000Y-53000D01*
G01X-26841Y-53827D02*
X-33273D01*
X-34000Y-53100D01*
M02*
